<svg id="Camada_1" data-name="Camada 1" xmlns="http://www.w3.org/2000/svg" width="144" height="46.01" viewBox="0 0 144 46.01"><defs><style>.cls-1,.cls-3,.cls-4{fill:none;stroke-miterlimit:10;}.cls-1{stroke:lime;}.cls-2{font-size:16.65px;font-family:MyriadPro-Regular, Myriad Pro;}.cls-3,.cls-4{stroke:#000;}.cls-3{stroke-width:1.39px;}.cls-4{stroke-width:1.01px;}</style></defs><path class="cls-1" d="M-683.5,249.5" transform="translate(-105 -159.38)"/><text class="cls-2" transform="translate(39.29 21)">1</text><text class="cls-2" transform="translate(108.67 39.03)">1</text><line class="cls-3" x1="28.14" y1="24.66" x2="57.28" y2="24.66"/><line class="cls-3" x1="108.62" y1="23.97" x2="144" y2="23.97"/><text class="cls-2" transform="translate(28.42 39.2)">K</text><text class="cls-2" transform="translate(38.85 43.58) scale(0.58)">ef</text><text class="cls-2" transform="translate(46.62 38.92)">T</text><text class="cls-2" transform="translate(134.04 38.92)">T</text><line class="cls-3" x1="64.22" y1="24.66" x2="76.7" y2="24.66"/><line class="cls-3" x1="70.46" y1="30.21" x2="70.46" y2="19.8"/><line class="cls-4" x1="115.56" y1="34.09" x2="123.88" y2="34.09"/><line class="cls-4" x1="119.72" y1="38.54" x2="119.72" y2="30.21"/><text class="cls-2" transform="translate(95.91 8.13) scale(0.58)">6</text><path class="cls-3" d="M199.74,183.34H187.25L193.5,175l-6.25-6.94h12.49" transform="translate(-105 -159.38)"/><text class="cls-2" transform="translate(96.57 24) scale(0.58)">i=1</text><text class="cls-2" transform="translate(121.77 18.89)">β</text><text class="cls-2" transform="translate(131.59 22.71) scale(0.58)">i</text><text class="cls-2" transform="translate(132.98 40.75) scale(0.58)">i</text><text class="cls-2" transform="translate(124.88 38.59)">λ</text><text class="cls-2" transform="translate(0 27.21)">ρ =</text></svg>