<svg id="Camada_1" data-name="Camada 1" xmlns="http://www.w3.org/2000/svg" width="355" height="250.12" viewBox="0 0 355 250.12"><defs><style>.cls-1,.cls-10,.cls-14,.cls-15,.cls-20{fill:none;}.cls-1,.cls-11,.cls-14,.cls-15{stroke:#000;}.cls-1,.cls-10,.cls-11,.cls-14,.cls-15,.cls-20{stroke-miterlimit:10;}.cls-2{font-size:10px;}.cls-12,.cls-16,.cls-18,.cls-2,.cls-5{fill:blue;}.cls-12,.cls-16,.cls-18,.cls-2{font-family:MyriadPro-Regular, Myriad Pro;}.cls-3{letter-spacing:-0.03em;}.cls-4{letter-spacing:0.01em;}.cls-6{letter-spacing:-0.03em;}.cls-7{letter-spacing:0em;}.cls-8{letter-spacing:-0.04em;}.cls-9{letter-spacing:0em;}.cls-10{stroke:blue;}.cls-12{font-size:9px;}.cls-13{letter-spacing:0em;}.cls-14{stroke-width:1.22px;}.cls-15{stroke-width:1.02px;}.cls-16,.cls-18{font-size:8px;}.cls-16{letter-spacing:-0.02em;}.cls-17{letter-spacing:0em;}.cls-19{letter-spacing:0.01em;}.cls-20{stroke:gray;stroke-width:0.5px;}.cls-21{letter-spacing:0.01em;}.cls-22{letter-spacing:-0.02em;}</style></defs><path class="cls-1" d="M151.5,575.5h116s27,9,24,30-19,28-29,28h-111s-24-7-23-29S151.5,575.5,151.5,575.5Z" transform="translate(-25.5 -520.88)"/><text class="cls-2" transform="translate(137.86 72.72)"><tspan class="cls-3">T</tspan><tspan class="cls-4" x="4.7" y="0">Q</tspan><tspan x="11.73" y="0">-102</tspan></text><path class="cls-5" d="M143,596.84h-2v-.74h5v.74h-2.06v6H143Z" transform="translate(-25.5 -520.88)"/><path class="cls-5" d="M148.74,602.84l-.07-.61h0a1.8,1.8,0,0,1-1.48.72,1.38,1.38,0,0,1-1.48-1.39c0-1.17,1-1.81,2.91-1.8v-.1a1,1,0,0,0-1.1-1.12,2.41,2.41,0,0,0-1.26.36l-.2-.58a3,3,0,0,1,1.59-.43c1.48,0,1.84,1,1.84,2v1.81a6.81,6.81,0,0,0,.08,1.16Zm-.13-2.47c-1,0-2.05.15-2.05,1.09a.78.78,0,0,0,.83.84,1.2,1.2,0,0,0,1.17-.81.92.92,0,0,0,.05-.28Z" transform="translate(-25.5 -520.88)"/><path class="cls-5" d="M150.88,599.31c0-.5,0-.91,0-1.31h.78l0,.8h0a1.78,1.78,0,0,1,1.6-.91c.67,0,1.71.4,1.71,2.06v2.89h-.88v-2.79c0-.78-.29-1.43-1.12-1.43a1.25,1.25,0,0,0-1.18.9,1.27,1.27,0,0,0-.06.41v2.91h-.88Z" transform="translate(-25.5 -520.88)"/><path class="cls-5" d="M159.73,602.09h0a1.72,1.72,0,0,1-1.58.86,2.21,2.21,0,0,1-2-2.45,2.32,2.32,0,0,1,2.19-2.61,1.59,1.59,0,0,1,1.49.84h0l0-.73h.83c0,.41,0,.83,0,1.33v5.49h-.88Zm0-2.13a1.5,1.5,0,0,0,0-.37,1.29,1.29,0,0,0-1.26-1c-.91,0-1.46.77-1.46,1.86s.46,1.8,1.43,1.8a1.31,1.31,0,0,0,1.26-1,1.48,1.48,0,0,0,.07-.42Z" transform="translate(-25.5 -520.88)"/><path class="cls-5" d="M166.11,601.52c0,.5,0,.94,0,1.32h-.78l-.05-.79h0a1.82,1.82,0,0,1-1.6.9c-.76,0-1.67-.42-1.67-2.12V598h.88v2.68c0,.92.28,1.54,1.08,1.54a1.27,1.27,0,0,0,1.16-.8,1.29,1.29,0,0,0,.08-.45v-3h.88Z" transform="translate(-25.5 -520.88)"/><path class="cls-5" d="M168.06,600.58a1.55,1.55,0,0,0,1.66,1.68,3.18,3.18,0,0,0,1.34-.25l.15.63a3.92,3.92,0,0,1-1.61.3,2.25,2.25,0,0,1-2.38-2.44,2.35,2.35,0,0,1,2.27-2.61,2.05,2.05,0,0,1,2,2.28,3.32,3.32,0,0,1,0,.41Zm2.58-.63a1.25,1.25,0,0,0-1.22-1.43,1.46,1.46,0,0,0-1.35,1.43Z" transform="translate(-25.5 -520.88)"/><path class="cls-5" d="M178.88,595.74v5.85c0,.43,0,.92,0,1.25h-.79l0-.84h0a1.79,1.79,0,0,1-1.65,1,2.21,2.21,0,0,1-2.07-2.46,2.32,2.32,0,0,1,2.17-2.6,1.62,1.62,0,0,1,1.46.74h0v-2.89ZM178,600a1.55,1.55,0,0,0,0-.37,1.29,1.29,0,0,0-1.27-1c-.91,0-1.45.8-1.45,1.87s.48,1.79,1.43,1.79a1.32,1.32,0,0,0,1.29-1,1.53,1.53,0,0,0,0-.38Z" transform="translate(-25.5 -520.88)"/><path class="cls-5" d="M180.83,600.58a1.55,1.55,0,0,0,1.66,1.68,3.18,3.18,0,0,0,1.34-.25l.15.63a3.92,3.92,0,0,1-1.61.3A2.25,2.25,0,0,1,180,600.5a2.35,2.35,0,0,1,2.27-2.61,2.05,2.05,0,0,1,2,2.28,3.32,3.32,0,0,1,0,.41Zm2.58-.63a1.25,1.25,0,0,0-1.22-1.43,1.46,1.46,0,0,0-1.35,1.43Z" transform="translate(-25.5 -520.88)"/><path class="cls-5" d="M187.47,599.51c0-.57,0-1.06,0-1.51h.77l0,1h0a1.45,1.45,0,0,1,1.34-1.06,1,1,0,0,1,.25,0v.83a1.32,1.32,0,0,0-.3,0,1.23,1.23,0,0,0-1.18,1.13,2.48,2.48,0,0,0,0,.41v2.58h-.87Z" transform="translate(-25.5 -520.88)"/><path class="cls-5" d="M191.13,600.58a1.55,1.55,0,0,0,1.66,1.68,3.18,3.18,0,0,0,1.34-.25l.15.63a3.92,3.92,0,0,1-1.61.3,2.25,2.25,0,0,1-2.38-2.44,2.35,2.35,0,0,1,2.27-2.61,2.05,2.05,0,0,1,2,2.28,3.32,3.32,0,0,1,0,.41Zm2.58-.63a1.25,1.25,0,0,0-1.22-1.43,1.46,1.46,0,0,0-1.35,1.43Z" transform="translate(-25.5 -520.88)"/><path class="cls-5" d="M195.53,601.94a2.31,2.31,0,0,0,1.16.35c.64,0,.94-.32.94-.72s-.25-.65-.9-.89c-.87-.31-1.28-.79-1.28-1.37a1.49,1.49,0,0,1,1.67-1.42,2.42,2.42,0,0,1,1.19.3l-.22.64a1.88,1.88,0,0,0-1-.28c-.52,0-.81.3-.81.66s.29.58.92.82c.84.32,1.27.74,1.27,1.46s-.66,1.45-1.81,1.45a2.76,2.76,0,0,1-1.36-.33Z" transform="translate(-25.5 -520.88)"/><path class="cls-5" d="M200.1,600.58a1.55,1.55,0,0,0,1.66,1.68,3.18,3.18,0,0,0,1.34-.25l.15.63a3.92,3.92,0,0,1-1.61.3,2.25,2.25,0,0,1-2.38-2.44,2.35,2.35,0,0,1,2.27-2.61,2.05,2.05,0,0,1,2,2.28,3.32,3.32,0,0,1,0,.41Zm2.58-.63a1.25,1.25,0,0,0-1.22-1.43,1.46,1.46,0,0,0-1.35,1.43Z" transform="translate(-25.5 -520.88)"/><path class="cls-5" d="M204.62,599.51c0-.57,0-1.06,0-1.51h.77l0,1h0a1.45,1.45,0,0,1,1.34-1.06,1,1,0,0,1,.25,0v.83a1.32,1.32,0,0,0-.3,0,1.23,1.23,0,0,0-1.18,1.13,2.48,2.48,0,0,0,0,.41v2.58h-.87Z" transform="translate(-25.5 -520.88)"/><path class="cls-5" d="M208.48,598l1,2.72a12.45,12.45,0,0,1,.39,1.24h0c.11-.4.25-.8.41-1.24l.94-2.72h.92l-1.9,4.84h-.84L207.54,598Z" transform="translate(-25.5 -520.88)"/><path class="cls-5" d="M215.59,602.84l-.07-.61h0A1.8,1.8,0,0,1,214,603a1.38,1.38,0,0,1-1.48-1.39c0-1.17,1-1.81,2.91-1.8v-.1a1,1,0,0,0-1.1-1.12,2.41,2.41,0,0,0-1.26.36l-.2-.58a3,3,0,0,1,1.59-.43c1.48,0,1.84,1,1.84,2v1.81a6.81,6.81,0,0,0,.08,1.16Zm-.13-2.47c-1,0-2.05.15-2.05,1.09a.78.78,0,0,0,.83.84,1.2,1.2,0,0,0,1.17-.81.92.92,0,0,0,.05-.28Z" transform="translate(-25.5 -520.88)"/><path class="cls-5" d="M145.91,607.74v5.85c0,.43,0,.92,0,1.25h-.79l0-.84h0a1.79,1.79,0,0,1-1.65,1,2.21,2.21,0,0,1-2.07-2.46,2.32,2.32,0,0,1,2.17-2.6,1.62,1.62,0,0,1,1.46.74h0v-2.89ZM145,612a1.55,1.55,0,0,0,0-.37,1.29,1.29,0,0,0-1.27-1c-.91,0-1.45.8-1.45,1.87s.48,1.79,1.43,1.79a1.32,1.32,0,0,0,1.29-1,1.53,1.53,0,0,0,0-.38Z" transform="translate(-25.5 -520.88)"/><path class="cls-5" d="M147.86,612.58a1.55,1.55,0,0,0,1.66,1.68,3.18,3.18,0,0,0,1.34-.25l.15.63a3.92,3.92,0,0,1-1.61.3A2.25,2.25,0,0,1,147,612.5a2.35,2.35,0,0,1,2.27-2.61,2.05,2.05,0,0,1,2,2.28,3.32,3.32,0,0,1,0,.41Zm2.58-.63a1.25,1.25,0,0,0-1.22-1.43,1.46,1.46,0,0,0-1.35,1.43Z" transform="translate(-25.5 -520.88)"/><path class="cls-5" d="M157.18,614.84l-.07-.61h0a1.8,1.8,0,0,1-1.48.72,1.38,1.38,0,0,1-1.48-1.39c0-1.17,1-1.81,2.91-1.8v-.1a1,1,0,0,0-1.1-1.12,2.41,2.41,0,0,0-1.26.36l-.2-.58a3,3,0,0,1,1.59-.43c1.48,0,1.84,1,1.84,2v1.81a6.81,6.81,0,0,0,.08,1.16Zm-.13-2.47c-1,0-2.05.15-2.05,1.09a.78.78,0,0,0,.83.84,1.2,1.2,0,0,0,1.17-.81.92.92,0,0,0,.05-.28Zm.44-4.46-1.22,1.43h-.63l.88-1.43Z" transform="translate(-25.5 -520.88)"/><path class="cls-5" d="M163.49,610c0,.35,0,.74,0,1.33v2.81a2.78,2.78,0,0,1-.69,2.21,2.57,2.57,0,0,1-1.76.58,3.12,3.12,0,0,1-1.61-.4l.22-.67a2.73,2.73,0,0,0,1.42.38c.9,0,1.56-.47,1.56-1.69V614h0a1.73,1.73,0,0,1-1.54.81,2.16,2.16,0,0,1-2.06-2.36,2.32,2.32,0,0,1,2.18-2.57,1.61,1.61,0,0,1,1.51.84h0l0-.73Zm-.91,1.91a1.25,1.25,0,0,0-.05-.4,1.27,1.27,0,0,0-1.23-.93c-.84,0-1.44.71-1.44,1.83,0,1,.48,1.74,1.43,1.74a1.29,1.29,0,0,0,1.22-.9,1.53,1.53,0,0,0,.07-.47Z" transform="translate(-25.5 -520.88)"/><path class="cls-5" d="M169,613.52c0,.5,0,.94,0,1.32h-.78l-.05-.79h0a1.82,1.82,0,0,1-1.6.9c-.76,0-1.67-.42-1.67-2.12V610h.88v2.68c0,.92.28,1.54,1.08,1.54a1.27,1.27,0,0,0,1.16-.8,1.29,1.29,0,0,0,.08-.45v-3H169Z" transform="translate(-25.5 -520.88)"/><path class="cls-5" d="M173.1,614.84l-.07-.61h0a1.8,1.8,0,0,1-1.48.72,1.38,1.38,0,0,1-1.48-1.39c0-1.17,1-1.81,2.91-1.8v-.1a1,1,0,0,0-1.1-1.12,2.41,2.41,0,0,0-1.26.36l-.2-.58a3,3,0,0,1,1.59-.43c1.48,0,1.84,1,1.84,2v1.81a6.81,6.81,0,0,0,.08,1.16Zm-.13-2.47c-1,0-2.05.15-2.05,1.09a.78.78,0,0,0,.83.84,1.2,1.2,0,0,0,1.17-.81.92.92,0,0,0,.05-.28Z" transform="translate(-25.5 -520.88)"/><path class="cls-5" d="M148,619.74v5.85c0,.43,0,.92,0,1.25h-.79l0-.84h0a1.79,1.79,0,0,1-1.65,1,2.21,2.21,0,0,1-2.07-2.46,2.32,2.32,0,0,1,2.17-2.6,1.62,1.62,0,0,1,1.46.74h0v-2.89Zm-.88,4.23a1.55,1.55,0,0,0,0-.37,1.29,1.29,0,0,0-1.27-1c-.91,0-1.45.8-1.45,1.87s.48,1.79,1.43,1.79a1.32,1.32,0,0,0,1.29-1,1.53,1.53,0,0,0,0-.38Z" transform="translate(-25.5 -520.88)"/><path class="cls-5" d="M150,624.58a1.55,1.55,0,0,0,1.66,1.68A3.18,3.18,0,0,0,153,626l.15.63a3.92,3.92,0,0,1-1.61.3,2.25,2.25,0,0,1-2.38-2.44,2.35,2.35,0,0,1,2.27-2.61,2.05,2.05,0,0,1,2,2.28,3.32,3.32,0,0,1,0,.41Zm2.58-.63a1.25,1.25,0,0,0-1.22-1.43A1.46,1.46,0,0,0,150,624Z" transform="translate(-25.5 -520.88)"/><path class="cls-5" d="M154.38,625.94a2.31,2.31,0,0,0,1.16.35c.64,0,.94-.32.94-.72s-.25-.65-.9-.89c-.87-.31-1.28-.79-1.28-1.37a1.49,1.49,0,0,1,1.67-1.42,2.42,2.42,0,0,1,1.19.3l-.22.64a1.88,1.88,0,0,0-1-.28c-.52,0-.81.3-.81.66s.29.58.92.82c.84.32,1.27.74,1.27,1.46s-.66,1.45-1.81,1.45a2.76,2.76,0,0,1-1.36-.33Z" transform="translate(-25.5 -520.88)"/><path class="cls-5" d="M158.46,623.31c0-.5,0-.91,0-1.31h.77l0,.78h0a1.67,1.67,0,0,1,1.52-.89,1.43,1.43,0,0,1,1.37,1h0a2,2,0,0,1,.54-.63,1.65,1.65,0,0,1,1.07-.34c.64,0,1.59.42,1.59,2.1v2.85h-.86V624.1c0-.93-.34-1.49-1-1.49a1.14,1.14,0,0,0-1,.8,1.45,1.45,0,0,0-.07.44v3h-.86v-2.9c0-.77-.34-1.33-1-1.33a1.31,1.31,0,0,0-1.16,1.31v2.92h-.86Z" transform="translate(-25.5 -520.88)"/><path class="cls-5" d="M167.78,620.64a.55.55,0,0,1-1.09,0,.54.54,0,0,1,.55-.55A.52.52,0,0,1,167.78,620.64Zm-1,6.2V622h.88v4.84Z" transform="translate(-25.5 -520.88)"/><path class="cls-5" d="M169.14,623.31c0-.5,0-.91,0-1.31h.78l.05.8h0a1.78,1.78,0,0,1,1.6-.91c.67,0,1.71.4,1.71,2.06v2.89h-.88v-2.79c0-.78-.29-1.43-1.12-1.43a1.25,1.25,0,0,0-1.18.9,1.27,1.27,0,0,0-.06.41v2.91h-.88Z" transform="translate(-25.5 -520.88)"/><path class="cls-5" d="M175.18,624.58a1.55,1.55,0,0,0,1.66,1.68,3.18,3.18,0,0,0,1.34-.25l.15.63a3.92,3.92,0,0,1-1.61.3,2.25,2.25,0,0,1-2.38-2.44,2.35,2.35,0,0,1,2.27-2.61,2.05,2.05,0,0,1,2,2.28,3.32,3.32,0,0,1,0,.41Zm2.58-.63a1.25,1.25,0,0,0-1.22-1.43,1.46,1.46,0,0,0-1.35,1.43Z" transform="translate(-25.5 -520.88)"/><path class="cls-5" d="M179.7,623.51c0-.57,0-1.06,0-1.51h.77l0,1h0a1.45,1.45,0,0,1,1.34-1.06,1,1,0,0,1,.25,0v.83a1.32,1.32,0,0,0-.3,0,1.23,1.23,0,0,0-1.18,1.13,2.48,2.48,0,0,0,0,.41v2.58h-.87Z" transform="translate(-25.5 -520.88)"/><path class="cls-5" d="M185.6,626.84l-.07-.61h0A1.8,1.8,0,0,1,184,627a1.38,1.38,0,0,1-1.48-1.39c0-1.17,1-1.81,2.91-1.8v-.1a1,1,0,0,0-1.1-1.12,2.41,2.41,0,0,0-1.26.36l-.2-.58a3,3,0,0,1,1.59-.43c1.48,0,1.84,1,1.84,2v1.81a6.81,6.81,0,0,0,.08,1.16Zm-.13-2.47c-1,0-2.05.15-2.05,1.09a.78.78,0,0,0,.83.84,1.2,1.2,0,0,0,1.17-.81.92.92,0,0,0,.05-.28Z" transform="translate(-25.5 -520.88)"/><path class="cls-5" d="M187.74,619.74h.88v7.1h-.88Z" transform="translate(-25.5 -520.88)"/><path class="cls-5" d="M191.08,620.64a.55.55,0,0,1-1.09,0,.54.54,0,0,1,.55-.55A.52.52,0,0,1,191.08,620.64Zm-1,6.2V622H191v4.84Z" transform="translate(-25.5 -520.88)"/><path class="cls-5" d="M191.89,626.33l2.19-2.85.63-.75v0h-2.62V622h3.69v.55l-2.16,2.81c-.2.27-.4.51-.62.76v0h2.83v.7h-3.93Z" transform="translate(-25.5 -520.88)"/><path class="cls-5" d="M199.4,626.84l-.07-.61h0a1.8,1.8,0,0,1-1.48.72,1.38,1.38,0,0,1-1.48-1.39c0-1.17,1-1.81,2.91-1.8v-.1a1,1,0,0,0-1.1-1.12,2.41,2.41,0,0,0-1.26.36l-.2-.58a3,3,0,0,1,1.59-.43c1.48,0,1.84,1,1.84,2v1.81a6.81,6.81,0,0,0,.08,1.16Zm-.13-2.47c-1,0-2.05.15-2.05,1.09a.78.78,0,0,0,.83.84,1.2,1.2,0,0,0,1.17-.81.92.92,0,0,0,.05-.28Z" transform="translate(-25.5 -520.88)"/><path class="cls-5" d="M205.72,619.74v5.85c0,.43,0,.92,0,1.25H205l0-.84h0a1.79,1.79,0,0,1-1.65,1,2.21,2.21,0,0,1-2.07-2.46,2.32,2.32,0,0,1,2.17-2.6,1.62,1.62,0,0,1,1.46.74h0v-2.89Zm-.88,4.23a1.55,1.55,0,0,0,0-.37,1.29,1.29,0,0,0-1.27-1c-.91,0-1.45.8-1.45,1.87s.48,1.79,1.43,1.79a1.32,1.32,0,0,0,1.29-1,1.53,1.53,0,0,0,0-.38Z" transform="translate(-25.5 -520.88)"/><path class="cls-5" d="M209.86,626.84l-.07-.61h0a1.8,1.8,0,0,1-1.48.72,1.38,1.38,0,0,1-1.48-1.39c0-1.17,1-1.81,2.91-1.8v-.1a1,1,0,0,0-1.1-1.12,2.41,2.41,0,0,0-1.26.36l-.2-.58a3,3,0,0,1,1.59-.43c1.48,0,1.84,1,1.84,2v1.81a6.81,6.81,0,0,0,.08,1.16Zm-.13-2.47c-1,0-2,.15-2,1.09a.78.78,0,0,0,.83.84,1.2,1.2,0,0,0,1.17-.81.92.92,0,0,0,0-.28Z" transform="translate(-25.5 -520.88)"/><line class="cls-1" x1="252" y1="7.62" x2="260" y2="11.62"/><line class="cls-1" x1="252" y1="15.62" x2="260" y2="11.62"/><text class="cls-2" transform="translate(195.22 8.37)"><tspan class="cls-6">P</tspan><tspan x="5.06" y="0">a</tspan><tspan class="cls-7" x="9.88" y="0">r</tspan><tspan x="13.1" y="0">a o</tspan><tspan class="cls-8" x="25.53" y="0"> </tspan><tspan class="cls-9" x="27.24" y="0">TE-02</tspan></text><line class="cls-1" x1="16" y1="38.62" x2="43.5" y2="38.12"/><path class="cls-1" d="M45.76,559.42,45.5,582.5a10.23,10.23,0,0,0,10,7c8,0,10-5,10-5V559.06Z" transform="translate(-25.5 -520.88)"/><line class="cls-1" x1="242" y1="213.62" x2="269.5" y2="213.12"/><path class="cls-1" d="M271.76,734.42l-.26,23.08a10.23,10.23,0,0,0,10,7c8,0,10-5,10-5V734.06Z" transform="translate(-25.5 -520.88)"/><line class="cls-1" x1="301" y1="213.62" x2="328.5" y2="213.12"/><path class="cls-1" d="M330.76,734.42l-.26,23.08a10.23,10.23,0,0,0,10,7c8,0,10-5,10-5V734.06Z" transform="translate(-25.5 -520.88)"/><path class="cls-5" d="M48.64,564.26h3.63V565H49.51v2.24h2.55V568H49.51v3h-.87Z" transform="translate(-25.5 -520.88)"/><path class="cls-5" d="M54.79,565h-2v-.74h5V565H55.67v6h-.88Z" transform="translate(-25.5 -520.88)"/><path class="cls-5" d="M60,568v.65H57.51V568Z" transform="translate(-25.5 -520.88)"/><path class="cls-5" d="M50.24,577.32h0l-1.13.61-.17-.67,1.42-.76h.75V583h-.85Z" transform="translate(-25.5 -520.88)"/><path class="cls-5" d="M57.78,579.68c0,2.21-.82,3.43-2.26,3.43-1.27,0-2.13-1.19-2.15-3.34s.94-3.38,2.26-3.38S57.78,577.61,57.78,579.68Zm-3.53.1c0,1.69.52,2.65,1.32,2.65s1.33-1,1.33-2.71-.41-2.65-1.32-2.65S54.25,578,54.25,579.78Z" transform="translate(-25.5 -520.88)"/><path class="cls-5" d="M61.31,583v-1.77h-3v-.58l2.9-4.15h1v4h.91v.69h-.91V583Zm0-2.46v-2.17q0-.51,0-1h0c-.2.38-.36.66-.54,1l-1.59,2.21v0Z" transform="translate(-25.5 -520.88)"/><polyline class="cls-1" points="21.17 46.66 0.5 47.12 0.5 222.12"/><path class="cls-10" d="M52.32,743.5" transform="translate(-25.5 -520.88)"/><path class="cls-10" d="M46.71,743.5" transform="translate(-25.5 -520.88)"/><line class="cls-10" x1="21.21" y1="222.62" x2="18.95" y2="222.62"/><line class="cls-1" x1="13.34" y1="222.62" x2="1" y2="222.62"/><path class="cls-10" d="M44.45,743.5" transform="translate(-25.5 -520.88)"/><path class="cls-10" d="M38.84,743.5" transform="translate(-25.5 -520.88)"/><line class="cls-1" x1="40" y1="222.62" x2="26.82" y2="222.62"/><polyline class="cls-1" points="13.34 222.62 13.34 225.86 18.95 222.62"/><polyline class="cls-1" points="13.34 222.62 13.34 218.38 19.82 222.12 18.95 222.62"/><polyline class="cls-1" points="26.82 222.62 26.82 218.38 20.34 222.12 21.21 222.62"/><polyline class="cls-1" points="21.21 222.62 26.82 225.86 26.82 222.62"/><polyline class="cls-1" points="72.34 187.62 72.34 190.86 77.95 187.62"/><polyline class="cls-1" points="72.34 187.62 72.34 183.38 78.82 187.12 77.95 187.62"/><polyline class="cls-1" points="85.82 187.62 85.82 183.38 79.34 187.12 80.21 187.62"/><polyline class="cls-1" points="80.21 187.62 85.82 190.86 85.82 187.62"/><polyline class="cls-1" points="141.34 187.62 141.34 190.86 146.95 187.62"/><polyline class="cls-1" points="141.34 187.62 141.34 183.38 147.82 187.12 146.95 187.62"/><polyline class="cls-1" points="154.82 187.62 154.82 183.38 148.34 187.12 149.21 187.62"/><polyline class="cls-1" points="149.21 187.62 154.82 190.86 154.82 187.62"/><polyline class="cls-1" points="160.34 222.62 160.34 225.86 165.95 222.62"/><polyline class="cls-1" points="160.34 222.62 160.34 218.38 166.82 222.12 165.95 222.62"/><polyline class="cls-1" points="173.82 222.62 173.82 218.38 167.34 222.12 168.21 222.62"/><polyline class="cls-1" points="168.21 222.62 173.82 225.86 173.82 222.62"/><polyline class="cls-1" points="92.34 222.62 92.34 225.86 97.95 222.62"/><polyline class="cls-1" points="92.34 222.62 92.34 218.38 98.82 222.12 97.95 222.62"/><polyline class="cls-1" points="105.82 222.62 105.82 218.38 99.34 222.12 100.21 222.62"/><polyline class="cls-1" points="100.21 222.62 105.82 225.86 105.82 222.62"/><polyline class="cls-11" points="72.34 223.62 72.34 226.86 77.95 223.62"/><polyline class="cls-11" points="72.34 223.62 72.34 219.38 78.82 223.12 77.95 223.62"/><polyline class="cls-11" points="85.82 223.62 85.82 219.38 79.34 223.12 80.21 223.62"/><polyline class="cls-11" points="80.21 223.62 85.82 226.86 85.82 223.62"/><polyline class="cls-11" points="141.34 223.62 141.34 226.86 146.95 223.62"/><polyline class="cls-11" points="141.34 223.62 141.34 219.38 147.82 223.12 146.95 223.62"/><polyline class="cls-11" points="154.82 223.62 154.82 219.38 148.34 223.12 149.21 223.62"/><polyline class="cls-11" points="149.21 223.62 154.82 226.86 154.82 223.62"/><polyline class="cls-1" points="142.9 54.62 143 47.62 139.82 47.62"/><line class="cls-10" x1="134.21" y1="47.62" x2="131.95" y2="47.62"/><line class="cls-1" x1="126.34" y1="47.62" x2="40" y2="47.62"/><path class="cls-10" d="M165.32,568.5" transform="translate(-25.5 -520.88)"/><path class="cls-10" d="M159.71,568.5" transform="translate(-25.5 -520.88)"/><path class="cls-10" d="M157.45,568.5" transform="translate(-25.5 -520.88)"/><path class="cls-10" d="M151.84,568.5" transform="translate(-25.5 -520.88)"/><polyline class="cls-1" points="126.34 47.62 126.34 50.86 131.95 47.62"/><polyline class="cls-1" points="126.34 47.62 126.34 43.38 132.82 47.12 131.95 47.62"/><polyline class="cls-1" points="139.82 47.62 139.82 43.38 133.34 47.12 134.21 47.62"/><polyline class="cls-1" points="134.21 47.62 139.82 50.86 139.82 47.62"/><line class="cls-1" x1="133" y1="11.62" x2="131.95" y2="11.62"/><path class="cls-10" d="M159.71,532.5" transform="translate(-25.5 -520.88)"/><path class="cls-10" d="M165.32,532.5" transform="translate(-25.5 -520.88)"/><line class="cls-1" x1="260" y1="11.62" x2="139.82" y2="11.62"/><path class="cls-1" d="M157.45,532.5" transform="translate(-25.5 -520.88)"/><path class="cls-1" d="M151.84,532.5" transform="translate(-25.5 -520.88)"/><polyline class="cls-1" points="126.34 11.62 123 11.62 123 47.62"/><polyline class="cls-1" points="126.34 11.62 126.34 14.86 131.95 11.62"/><polyline class="cls-1" points="126.34 11.62 126.34 7.38 132.82 11.12 131.95 11.62"/><polyline class="cls-1" points="139.82 11.62 139.82 7.38 133 11.62"/><line class="cls-1" x1="133" y1="11.62" x2="134.21" y2="11.62"/><polyline class="cls-1" points="139.82 11.62 139.82 14.86 134.21 11.62"/><path class="cls-1" d="M65.5,757.5v-59s-1-12,14-13,15,13,15,13v61s-3,11-15,11S65.5,757.5,65.5,757.5Z" transform="translate(-25.5 -520.88)"/><line class="cls-1" x1="69" y1="187.62" x2="72" y2="187.62"/><line class="cls-1" x1="108" y1="222.62" x2="105" y2="222.62"/><line class="cls-1" x1="89" y1="187.62" x2="89" y2="222.62"/><line class="cls-1" x1="92.5" y1="222.62" x2="89.5" y2="222.62"/><line class="cls-1" x1="89.5" y1="187.62" x2="86.5" y2="187.62"/><path class="cls-1" d="M133.5,756.5v-59s4-12,15-12,15,11,15,11v62s-1,12-15,12S133.5,756.5,133.5,756.5Z" transform="translate(-25.5 -520.88)"/><path class="cls-1" d="M201.5,756.5v-59s4-12,15-12,15,11,15,11v62s-1,12-15,12S201.5,756.5,201.5,756.5Z" transform="translate(-25.5 -520.88)"/><text class="cls-12" transform="translate(42.62 192.04)">V<tspan class="cls-13" x="5.02" y="0">S</tspan><tspan x="9.5" y="0">-103</tspan></text><text class="cls-12" transform="translate(110.62 192.04)">V<tspan class="cls-13" x="5.02" y="0">S</tspan><tspan x="9.5" y="0">-102</tspan></text><path class="cls-5" d="M69.65,723.07h.69v4.81h2.31v.58h-3Z" transform="translate(-25.5 -520.88)"/><path class="cls-5" d="M73.68,726.65A1.25,1.25,0,0,0,75,728a2.6,2.6,0,0,0,1.07-.2l.12.5a3.17,3.17,0,0,1-1.29.24,1.79,1.79,0,0,1-1.9-1.95,1.88,1.88,0,0,1,1.81-2.09,1.64,1.64,0,0,1,1.6,1.83,2.33,2.33,0,0,1,0,.32Zm2.06-.5a1,1,0,0,0-1-1.14,1.16,1.16,0,0,0-1.08,1.14Z" transform="translate(-25.5 -520.88)"/><path class="cls-5" d="M78.08,723.5a.44.44,0,0,1-.87,0,.43.43,0,0,1,.44-.44A.42.42,0,0,1,78.08,723.5Zm-.78,5v-3.87H78v3.87Z" transform="translate(-25.5 -520.88)"/><path class="cls-5" d="M80,723.48v1.11h1v.54H80v2.08c0,.48.13.75.52.75a1.86,1.86,0,0,0,.41,0l0,.52a1.59,1.59,0,0,1-.62.1,1,1,0,0,1-.76-.3,1.41,1.41,0,0,1-.27-1v-2.11h-.6v-.54h.6v-.93Z" transform="translate(-25.5 -520.88)"/><path class="cls-5" d="M85.27,726.49a1.9,1.9,0,0,1-1.93,2.06,1.84,1.84,0,0,1-1.85-2,1.89,1.89,0,0,1,1.92-2.06A1.83,1.83,0,0,1,85.27,726.49Zm-3.07,0c0,.85.49,1.49,1.17,1.49s1.18-.63,1.18-1.5c0-.66-.33-1.49-1.16-1.49S82.2,725.8,82.2,726.53Z" transform="translate(-25.5 -520.88)"/><path class="cls-5" d="M69.65,732.74a7.36,7.36,0,0,1,1.33-.11,2.2,2.2,0,0,1,1.56.44,1.35,1.35,0,0,1,.43,1,1.41,1.41,0,0,1-1,1.38v0a1.35,1.35,0,0,1,.79,1.09,9.19,9.19,0,0,0,.42,1.48h-.72a6.7,6.7,0,0,1-.36-1.29c-.16-.74-.45-1-1.08-1h-.66v2.34h-.69Zm.69,2.46h.71c.75,0,1.22-.41,1.22-1s-.5-1-1.24-1a3.17,3.17,0,0,0-.69.06Z" transform="translate(-25.5 -520.88)"/><path class="cls-5" d="M74.35,736.25a1.25,1.25,0,0,0,1.33,1.35,2.57,2.57,0,0,0,1.07-.2l.12.5a3.17,3.17,0,0,1-1.29.24,1.79,1.79,0,0,1-1.9-1.95,1.88,1.88,0,0,1,1.81-2.09,1.63,1.63,0,0,1,1.6,1.82,2.38,2.38,0,0,1,0,.33Zm2.06-.5a1,1,0,0,0-1-1.14,1.17,1.17,0,0,0-1.08,1.14Z" transform="translate(-25.5 -520.88)"/><path class="cls-5" d="M77.87,737.34a1.83,1.83,0,0,0,.93.28c.51,0,.75-.26.75-.58s-.2-.52-.72-.71c-.69-.25-1-.63-1-1.09a1.19,1.19,0,0,1,1.33-1.14,1.89,1.89,0,0,1,1,.24l-.17.51a1.55,1.55,0,0,0-.79-.22c-.42,0-.65.24-.65.53s.23.46.73.65c.68.26,1,.59,1,1.17s-.53,1.16-1.45,1.16a2.18,2.18,0,0,1-1.08-.26Z" transform="translate(-25.5 -520.88)"/><path class="cls-5" d="M81.92,733.1a.44.44,0,0,1-.87,0,.43.43,0,0,1,.44-.44A.42.42,0,0,1,81.92,733.1Zm-.78,5v-3.87h.7v3.87Z" transform="translate(-25.5 -520.88)"/><path class="cls-5" d="M83,735.24c0-.4,0-.73,0-1h.62l0,.64h0a1.4,1.4,0,0,1,1.27-.73c.54,0,1.37.32,1.37,1.65v2.31h-.7v-2.23c0-.62-.23-1.14-.9-1.14a1,1,0,0,0-.94.72,1,1,0,0,0-.05.32v2.33H83Z" transform="translate(-25.5 -520.88)"/><path class="cls-5" d="M89.59,738.06l-.06-.49h0a1.43,1.43,0,0,1-1.18.58A1.1,1.1,0,0,1,87.14,737c0-.94.84-1.45,2.33-1.44v-.08a.8.8,0,0,0-.88-.9,1.92,1.92,0,0,0-1,.29l-.16-.46a2.4,2.4,0,0,1,1.27-.35c1.19,0,1.48.81,1.48,1.58v1.45a5.25,5.25,0,0,0,.06.93Zm-.1-2c-.77,0-1.64.13-1.64.88a.62.62,0,0,0,.66.67,1,1,0,0,0,.94-.65.85.85,0,0,0,0-.22Z" transform="translate(-25.5 -520.88)"/><path class="cls-5" d="M74.19,745.29c0-.75-.09-1.65-.08-2.32h0c-.19.63-.41,1.3-.68,2l-1,2.62h-.52l-.88-2.57c-.25-.76-.47-1.45-.62-2.09h0c0,.67-.06,1.57-.11,2.38l-.14,2.31H69.5l.38-5.39h.89l.92,2.61c.22.66.4,1.25.54,1.81h0c.14-.54.33-1.13.57-1.81l1-2.61h.89l.33,5.39h-.67Z" transform="translate(-25.5 -520.88)"/><path class="cls-5" d="M76.94,742.7a.44.44,0,0,1-.88,0,.44.44,0,0,1,.44-.44A.43.43,0,0,1,76.94,742.7Zm-.79,5v-3.87h.7v3.87Z" transform="translate(-25.5 -520.88)"/><path class="cls-5" d="M77.93,746.94a1.79,1.79,0,0,0,.92.28c.52,0,.76-.26.76-.58s-.2-.51-.72-.71c-.7-.24-1-.63-1-1.09a1.2,1.2,0,0,1,1.34-1.14,1.92,1.92,0,0,1,1,.24l-.18.51a1.55,1.55,0,0,0-.79-.22c-.41,0-.64.24-.64.53s.23.46.73.65c.67.26,1,.59,1,1.17s-.53,1.16-1.45,1.16a2.22,2.22,0,0,1-1.09-.26Z" transform="translate(-25.5 -520.88)"/><path class="cls-5" d="M82,742.68v1.11h1v.54H82v2.08c0,.48.13.75.53.75a1.75,1.75,0,0,0,.4,0l0,.52a1.69,1.69,0,0,1-.63.1,1,1,0,0,1-.76-.3,1.41,1.41,0,0,1-.27-1v-2.11h-.6v-.54h.6v-.93Z" transform="translate(-25.5 -520.88)"/><path class="cls-5" d="M86,747.66l0-.49h0a1.42,1.42,0,0,1-1.18.58,1.1,1.1,0,0,1-1.18-1.11c0-.94.83-1.45,2.32-1.44v-.08a.8.8,0,0,0-.88-.9,1.86,1.86,0,0,0-1,.29l-.16-.46a2.37,2.37,0,0,1,1.27-.35c1.18,0,1.47.81,1.47,1.59v1.44a5.25,5.25,0,0,0,.06.93Zm-.1-2c-.77,0-1.64.11-1.64.87a.62.62,0,0,0,.66.67,1,1,0,0,0,.94-.65.85.85,0,0,0,0-.22Z" transform="translate(-25.5 -520.88)"/><path class="cls-5" d="M135.65,724.07h.69v4.81h2.31v.58h-3Z" transform="translate(-25.5 -520.88)"/><path class="cls-5" d="M139.68,727.65A1.25,1.25,0,0,0,141,729a2.6,2.6,0,0,0,1.07-.2l.12.5a3.17,3.17,0,0,1-1.29.24,1.79,1.79,0,0,1-1.9-1.95,1.88,1.88,0,0,1,1.81-2.09,1.64,1.64,0,0,1,1.6,1.83,2.33,2.33,0,0,1,0,.32Zm2.06-.5a1,1,0,0,0-1-1.14,1.16,1.16,0,0,0-1.08,1.14Z" transform="translate(-25.5 -520.88)"/><path class="cls-5" d="M144.08,724.5a.44.44,0,0,1-.87,0,.43.43,0,0,1,.44-.44A.42.42,0,0,1,144.08,724.5Zm-.78,5v-3.87h.7v3.87Z" transform="translate(-25.5 -520.88)"/><path class="cls-5" d="M146,724.48v1.11h1v.54h-1v2.08c0,.48.13.75.52.75a1.86,1.86,0,0,0,.41,0l0,.52a1.59,1.59,0,0,1-.62.1,1,1,0,0,1-.76-.3,1.41,1.41,0,0,1-.27-1v-2.11h-.6v-.54h.6v-.93Z" transform="translate(-25.5 -520.88)"/><path class="cls-5" d="M151.27,727.49a1.9,1.9,0,0,1-1.93,2.06,1.84,1.84,0,0,1-1.85-2,1.89,1.89,0,0,1,1.92-2.06A1.83,1.83,0,0,1,151.27,727.49Zm-3.07,0c0,.85.49,1.49,1.17,1.49s1.18-.63,1.18-1.5c0-.66-.33-1.49-1.16-1.49S148.2,726.8,148.2,727.53Z" transform="translate(-25.5 -520.88)"/><path class="cls-5" d="M135.65,733.74a7.36,7.36,0,0,1,1.33-.11,2.2,2.2,0,0,1,1.56.44,1.35,1.35,0,0,1,.43,1,1.41,1.41,0,0,1-1,1.38v0a1.35,1.35,0,0,1,.79,1.09,9.19,9.19,0,0,0,.42,1.48h-.72a6.7,6.7,0,0,1-.36-1.29c-.16-.74-.45-1-1.08-1h-.66v2.34h-.69Zm.69,2.46h.71c.75,0,1.22-.41,1.22-1s-.5-1-1.24-1a3.17,3.17,0,0,0-.69.06Z" transform="translate(-25.5 -520.88)"/><path class="cls-5" d="M140.35,737.25a1.25,1.25,0,0,0,1.33,1.35,2.57,2.57,0,0,0,1.07-.2l.12.5a3.17,3.17,0,0,1-1.29.24,1.79,1.79,0,0,1-1.9-1.95,1.88,1.88,0,0,1,1.81-2.09,1.63,1.63,0,0,1,1.6,1.82,2.38,2.38,0,0,1,0,.33Zm2.06-.5a1,1,0,0,0-1-1.14,1.17,1.17,0,0,0-1.08,1.14Z" transform="translate(-25.5 -520.88)"/><path class="cls-5" d="M143.87,738.34a1.83,1.83,0,0,0,.93.28c.51,0,.75-.26.75-.58s-.2-.52-.72-.71c-.69-.25-1-.63-1-1.09a1.19,1.19,0,0,1,1.33-1.14,1.89,1.89,0,0,1,1,.24l-.17.51a1.55,1.55,0,0,0-.79-.22c-.42,0-.65.24-.65.53s.23.46.73.65c.68.26,1,.59,1,1.17s-.53,1.16-1.45,1.16a2.18,2.18,0,0,1-1.08-.26Z" transform="translate(-25.5 -520.88)"/><path class="cls-5" d="M147.92,734.1a.44.44,0,0,1-.87,0,.43.43,0,0,1,.44-.44A.42.42,0,0,1,147.92,734.1Zm-.78,5v-3.87h.7v3.87Z" transform="translate(-25.5 -520.88)"/><path class="cls-5" d="M149,736.24c0-.4,0-.73,0-1h.62l0,.64h0a1.4,1.4,0,0,1,1.27-.73c.54,0,1.37.32,1.37,1.65v2.31h-.7v-2.23c0-.62-.23-1.14-.9-1.14a1,1,0,0,0-.94.72,1,1,0,0,0,0,.32v2.33H149Z" transform="translate(-25.5 -520.88)"/><path class="cls-5" d="M155.59,739.06l-.06-.49h0a1.43,1.43,0,0,1-1.18.58,1.1,1.1,0,0,1-1.19-1.11c0-.94.84-1.45,2.33-1.44v-.08a.8.8,0,0,0-.88-.9,1.92,1.92,0,0,0-1,.29l-.16-.46a2.4,2.4,0,0,1,1.27-.35c1.19,0,1.48.81,1.48,1.58v1.45a5.25,5.25,0,0,0,.06.93Zm-.1-2c-.77,0-1.64.13-1.64.88a.62.62,0,0,0,.66.67,1,1,0,0,0,.94-.65.85.85,0,0,0,0-.22Z" transform="translate(-25.5 -520.88)"/><path class="cls-5" d="M136.52,747l-.56,1.7h-.72l1.83-5.39h.84l1.84,5.39H139l-.58-1.7Zm1.77-.54-.53-1.55c-.12-.35-.2-.67-.28-1h0c-.08.32-.17.64-.27,1l-.53,1.56Z" transform="translate(-25.5 -520.88)"/><path class="cls-5" d="M140.5,745.84c0-.4,0-.73,0-1.05h.63l0,.64h0a1.43,1.43,0,0,1,1.28-.73c.54,0,1.37.32,1.37,1.65v2.31h-.7v-2.23c0-.62-.24-1.14-.9-1.14a1,1,0,0,0-.94.72,1,1,0,0,0-.05.32v2.33h-.7Z" transform="translate(-25.5 -520.88)"/><path class="cls-5" d="M145.72,743.7a.44.44,0,0,1-.87,0,.43.43,0,0,1,.44-.44A.42.42,0,0,1,145.72,743.7Zm-.78,5v-3.87h.7v3.87Z" transform="translate(-25.5 -520.88)"/><path class="cls-5" d="M150.31,746.69a1.9,1.9,0,0,1-1.93,2.06,1.84,1.84,0,0,1-1.85-2,1.89,1.89,0,0,1,1.92-2.06A1.83,1.83,0,0,1,150.31,746.69Zm-3.07,0c0,.85.49,1.49,1.18,1.49s1.17-.63,1.17-1.5c0-.66-.33-1.49-1.16-1.49S147.24,746,147.24,746.73Zm1.41-3.61.77,1.14h-.54l-.46-.76h0l-.46.76h-.52l.75-1.14Z" transform="translate(-25.5 -520.88)"/><path class="cls-5" d="M151.2,745.84c0-.4,0-.73,0-1.05h.62l0,.64h0a1.42,1.42,0,0,1,1.28-.73c.53,0,1.36.32,1.36,1.65v2.31h-.7v-2.23c0-.62-.23-1.14-.89-1.14a1,1,0,0,0-1,.72,1,1,0,0,0,0,.32v2.33h-.7Z" transform="translate(-25.5 -520.88)"/><path class="cls-5" d="M156.42,743.7a.41.41,0,0,1-.44.43.42.42,0,0,1-.43-.43.44.44,0,0,1,.44-.44A.42.42,0,0,1,156.42,743.7Zm-.78,5v-3.87h.7v3.87Z" transform="translate(-25.5 -520.88)"/><path class="cls-5" d="M160.27,748.52a2.68,2.68,0,0,1-1.11.22,1.84,1.84,0,0,1-1.93-2,2,2,0,0,1,2.08-2.06,2.33,2.33,0,0,1,1,.2l-.16.54a1.74,1.74,0,0,0-.82-.18,1.46,1.46,0,0,0,0,2.91,2,2,0,0,0,.86-.19Z" transform="translate(-25.5 -520.88)"/><path class="cls-5" d="M163.24,748.66l-.06-.49h0a1.43,1.43,0,0,1-1.18.58,1.1,1.1,0,0,1-1.19-1.11c0-.94.83-1.45,2.33-1.44v-.08a.8.8,0,0,0-.88-.9,1.9,1.9,0,0,0-1,.29l-.16-.46a2.37,2.37,0,0,1,1.27-.35c1.19,0,1.47.81,1.47,1.59v1.44a5.18,5.18,0,0,0,.07.93Zm-.11-2c-.76,0-1.63.11-1.63.87a.62.62,0,0,0,.66.67,1,1,0,0,0,.93-.65.57.57,0,0,0,0-.22Z" transform="translate(-25.5 -520.88)"/><text class="cls-12" transform="translate(177.62 191.04)">V<tspan class="cls-13" x="5.02" y="0">S</tspan><tspan x="9.5" y="0">-101</tspan></text><path class="cls-5" d="M203.65,723.07h.69v4.81h2.31v.58h-3Z" transform="translate(-25.5 -520.88)"/><path class="cls-5" d="M207.68,726.65A1.25,1.25,0,0,0,209,728a2.6,2.6,0,0,0,1.07-.2l.12.5a3.17,3.17,0,0,1-1.29.24,1.79,1.79,0,0,1-1.9-1.95,1.88,1.88,0,0,1,1.81-2.09,1.64,1.64,0,0,1,1.6,1.83,2.33,2.33,0,0,1,0,.32Zm2.06-.5a1,1,0,0,0-1-1.14,1.16,1.16,0,0,0-1.08,1.14Z" transform="translate(-25.5 -520.88)"/><path class="cls-5" d="M212.08,723.5a.44.44,0,0,1-.87,0,.43.43,0,0,1,.44-.44A.42.42,0,0,1,212.08,723.5Zm-.78,5v-3.87h.7v3.87Z" transform="translate(-25.5 -520.88)"/><path class="cls-5" d="M214,723.48v1.11h1v.54h-1v2.08c0,.48.13.75.52.75a1.86,1.86,0,0,0,.41,0l0,.52a1.59,1.59,0,0,1-.62.1,1,1,0,0,1-.76-.3,1.41,1.41,0,0,1-.27-1v-2.11h-.6v-.54h.6v-.93Z" transform="translate(-25.5 -520.88)"/><path class="cls-5" d="M219.27,726.49a1.9,1.9,0,0,1-1.93,2.06,1.84,1.84,0,0,1-1.85-2,1.89,1.89,0,0,1,1.92-2.06A1.83,1.83,0,0,1,219.27,726.49Zm-3.07,0c0,.85.49,1.49,1.17,1.49s1.18-.63,1.18-1.5c0-.66-.33-1.49-1.16-1.49S216.2,725.8,216.2,726.53Z" transform="translate(-25.5 -520.88)"/><path class="cls-5" d="M203.65,732.74a7.36,7.36,0,0,1,1.33-.11,2.2,2.2,0,0,1,1.56.44,1.35,1.35,0,0,1,.43,1,1.41,1.41,0,0,1-1,1.38v0a1.35,1.35,0,0,1,.79,1.09,9.19,9.19,0,0,0,.42,1.48h-.72a6.7,6.7,0,0,1-.36-1.29c-.16-.74-.45-1-1.08-1h-.66v2.34h-.69Zm.69,2.46h.71c.75,0,1.22-.41,1.22-1s-.5-1-1.24-1a3.17,3.17,0,0,0-.69.06Z" transform="translate(-25.5 -520.88)"/><path class="cls-5" d="M208.35,736.25a1.25,1.25,0,0,0,1.33,1.35,2.57,2.57,0,0,0,1.07-.2l.12.5a3.17,3.17,0,0,1-1.29.24,1.79,1.79,0,0,1-1.9-1.95,1.88,1.88,0,0,1,1.81-2.09,1.63,1.63,0,0,1,1.6,1.82,2.38,2.38,0,0,1,0,.33Zm2.06-.5a1,1,0,0,0-1-1.14,1.17,1.17,0,0,0-1.08,1.14Z" transform="translate(-25.5 -520.88)"/><path class="cls-5" d="M211.87,737.34a1.83,1.83,0,0,0,.93.28c.51,0,.75-.26.75-.58s-.2-.52-.72-.71c-.69-.25-1-.63-1-1.09a1.19,1.19,0,0,1,1.33-1.14,1.89,1.89,0,0,1,1,.24l-.17.51a1.55,1.55,0,0,0-.79-.22c-.42,0-.65.24-.65.53s.23.46.73.65c.68.26,1,.59,1,1.17s-.53,1.16-1.45,1.16a2.18,2.18,0,0,1-1.08-.26Z" transform="translate(-25.5 -520.88)"/><path class="cls-5" d="M215.92,733.1a.44.44,0,0,1-.87,0,.43.43,0,0,1,.44-.44A.42.42,0,0,1,215.92,733.1Zm-.78,5v-3.87h.7v3.87Z" transform="translate(-25.5 -520.88)"/><path class="cls-5" d="M217,735.24c0-.4,0-.73,0-1h.62l0,.64h0a1.4,1.4,0,0,1,1.27-.73c.54,0,1.37.32,1.37,1.65v2.31h-.7v-2.23c0-.62-.23-1.14-.9-1.14a1,1,0,0,0-.94.72,1,1,0,0,0,0,.32v2.33H217Z" transform="translate(-25.5 -520.88)"/><path class="cls-5" d="M223.59,738.06l-.06-.49h0a1.43,1.43,0,0,1-1.18.58,1.1,1.1,0,0,1-1.19-1.11c0-.94.84-1.45,2.33-1.44v-.08a.8.8,0,0,0-.88-.9,1.92,1.92,0,0,0-1,.29l-.16-.46a2.4,2.4,0,0,1,1.27-.35c1.19,0,1.48.81,1.48,1.58v1.45a5.25,5.25,0,0,0,.06.93Zm-.1-2c-.77,0-1.64.13-1.64.88a.62.62,0,0,0,.66.67,1,1,0,0,0,.94-.65.85.85,0,0,0,0-.22Z" transform="translate(-25.5 -520.88)"/><path class="cls-5" d="M207.41,747.48a3.35,3.35,0,0,1-1.42.26,2.52,2.52,0,0,1-2.66-2.73,2.68,2.68,0,0,1,2.81-2.83,3,3,0,0,1,1.28.24l-.17.57a2.48,2.48,0,0,0-1.08-.22,2,2,0,0,0-2.11,2.22,2,2,0,0,0,2.07,2.17,2.72,2.72,0,0,0,1.14-.23Z" transform="translate(-25.5 -520.88)"/><path class="cls-5" d="M210.35,747.66l-.06-.49h0a1.43,1.43,0,0,1-1.18.58,1.1,1.1,0,0,1-1.19-1.11c0-.94.84-1.45,2.33-1.44v-.08a.8.8,0,0,0-.88-.9,1.92,1.92,0,0,0-1,.29l-.16-.46a2.41,2.41,0,0,1,1.28-.35c1.18,0,1.47.81,1.47,1.59v1.44a5.25,5.25,0,0,0,.06.93Zm-.1-2c-.77,0-1.64.11-1.64.87a.62.62,0,0,0,.66.67,1,1,0,0,0,.94-.65.85.85,0,0,0,0-.22Z" transform="translate(-25.5 -520.88)"/><path class="cls-5" d="M212.88,742.68v1.11h1v.54h-1v2.08c0,.48.14.75.53.75a1.75,1.75,0,0,0,.4,0l0,.52a1.65,1.65,0,0,1-.63.1,1,1,0,0,1-.76-.3,1.41,1.41,0,0,1-.27-1v-2.11h-.6v-.54h.6v-.93Z" transform="translate(-25.5 -520.88)"/><path class="cls-5" d="M215.46,742.7a.41.41,0,0,1-.44.43.42.42,0,0,1-.43-.43.44.44,0,0,1,.44-.44A.42.42,0,0,1,215.46,742.7Zm-.78,5v-3.87h.7v3.87Z" transform="translate(-25.5 -520.88)"/><path class="cls-5" d="M220.05,745.69a1.89,1.89,0,0,1-1.92,2.06,1.84,1.84,0,0,1-1.86-2,1.89,1.89,0,0,1,1.92-2.06A1.83,1.83,0,0,1,220.05,745.69Zm-3.07,0c0,.85.49,1.49,1.18,1.49s1.17-.63,1.17-1.5c0-.66-.32-1.49-1.16-1.49S217,745,217,745.73Zm1.42-3.61.77,1.14h-.55l-.46-.76h0l-.46.76h-.52l.75-1.14Z" transform="translate(-25.5 -520.88)"/><path class="cls-5" d="M220.94,744.84c0-.4,0-.73,0-1.05h.63l0,.64h0a1.42,1.42,0,0,1,1.28-.73c.54,0,1.37.32,1.37,1.65v2.31h-.71v-2.23c0-.62-.23-1.14-.89-1.14a1,1,0,0,0-.94.72.77.77,0,0,0,0,.32v2.33h-.71Z" transform="translate(-25.5 -520.88)"/><path class="cls-5" d="M226.17,742.7a.42.42,0,0,1-.45.43.41.41,0,0,1-.42-.43.43.43,0,0,1,.44-.44A.42.42,0,0,1,226.17,742.7Zm-.79,5v-3.87h.71v3.87Z" transform="translate(-25.5 -520.88)"/><path class="cls-5" d="M230,747.52a2.68,2.68,0,0,1-1.11.22,1.83,1.83,0,0,1-1.92-2,2,2,0,0,1,2.07-2.06,2.29,2.29,0,0,1,1,.2l-.16.54a1.71,1.71,0,0,0-.82-.18,1.34,1.34,0,0,0-1.36,1.46,1.32,1.32,0,0,0,1.34,1.45,2,2,0,0,0,.86-.19Z" transform="translate(-25.5 -520.88)"/><path class="cls-5" d="M233,747.66l0-.49h0a1.42,1.42,0,0,1-1.18.58,1.1,1.1,0,0,1-1.18-1.11c0-.94.83-1.45,2.32-1.44v-.08a.8.8,0,0,0-.88-.9,1.86,1.86,0,0,0-1,.29l-.16-.46a2.37,2.37,0,0,1,1.27-.35c1.18,0,1.47.81,1.47,1.59v1.44a5.25,5.25,0,0,0,.06.93Zm-.1-2c-.77,0-1.64.11-1.64.87a.62.62,0,0,0,.66.67,1,1,0,0,0,.94-.65.85.85,0,0,0,0-.22Z" transform="translate(-25.5 -520.88)"/><line class="cls-1" x1="138" y1="222.62" x2="142" y2="222.62"/><line class="cls-1" x1="155.5" y1="222.62" x2="159.5" y2="222.62"/><line class="cls-1" x1="173.5" y1="222.62" x2="177.5" y2="222.62"/><line class="cls-1" x1="137.5" y1="187.62" x2="141.5" y2="187.62"/><polyline class="cls-1" points="154.5 187.62 158.5 187.62 158.02 222.62"/><polyline class="cls-1" points="210.34 187.62 210.34 190.86 215.95 187.62"/><polyline class="cls-1" points="210.34 187.62 210.34 183.38 216.82 187.12 215.95 187.62"/><polyline class="cls-1" points="223.82 187.62 223.82 183.38 217.34 187.12 218.21 187.62"/><polyline class="cls-1" points="218.21 187.62 223.82 190.86 223.82 187.62"/><polyline class="cls-1" points="249.34 130.62 249.34 133.86 254.95 130.62"/><polyline class="cls-1" points="249.34 130.62 249.34 126.38 255.82 130.12 254.95 130.62"/><polyline class="cls-1" points="262.82 130.62 262.82 126.38 256.34 130.12 257.21 130.62"/><polyline class="cls-1" points="257.21 130.62 262.82 133.86 262.82 130.62"/><polyline class="cls-1" points="229.34 222.62 229.34 225.86 234.95 222.62"/><polyline class="cls-1" points="229.34 222.62 229.34 218.38 235.82 222.12 234.95 222.62"/><polyline class="cls-1" points="242.82 222.62 242.82 218.38 236.34 222.12 237.21 222.62"/><polyline class="cls-1" points="237.21 222.62 242.82 225.86 242.82 222.62"/><polyline class="cls-14" points="274.5 130.62 274.5 133.86 282.83 130.62"/><polyline class="cls-14" points="274.5 130.62 274.5 126.38 284.11 130.12 282.83 130.62"/><polyline class="cls-14" points="294.5 130.62 294.5 126.38 284.89 130.12 286.17 130.62"/><polyline class="cls-14" points="286.17 130.62 294.5 133.86 294.5 130.62"/><polyline class="cls-1" points="295.58 211.86 298.82 211.86 295.58 206.25"/><polyline class="cls-1" points="295.58 211.86 291.34 211.86 295.08 205.38 295.58 206.25"/><polyline class="cls-1" points="295.58 198.38 291.34 198.38 295.08 204.86 295.58 203.99"/><polyline class="cls-1" points="295.58 203.99 298.82 198.38 295.58 198.38"/><polyline class="cls-1" points="270.58 167.86 273.82 167.86 270.58 162.25"/><polyline class="cls-1" points="270.58 167.86 266.34 167.86 270.08 161.38 270.58 162.25"/><polyline class="cls-1" points="270.58 154.38 266.34 154.38 270.08 160.86 270.58 159.99"/><polyline class="cls-1" points="270.58 159.99 273.82 154.38 270.58 154.38"/><polyline class="cls-1" points="274.34 222.62 274.34 225.86 279.95 222.62"/><polyline class="cls-1" points="266 222.62 274.34 222.62 274.34 218.38 280.82 222.12 279.95 222.62"/><polyline class="cls-1" points="287.82 222.62 287.82 218.38 281.34 222.12 282.21 222.62"/><polyline class="cls-1" points="282.21 222.62 287.82 225.86 287.82 222.62 305 222.62"/><polyline class="cls-1" points="350.66 222.62 350.66 225.86 345.05 222.62"/><polyline class="cls-1" points="334 129.62 354 129.62 354.5 222.62 350.66 222.62 350.66 218.38 344.18 222.12 345.05 222.62"/><polyline class="cls-1" points="337.18 222.62 337.18 218.38 343.66 222.12 342.79 222.62"/><polyline class="cls-1" points="342.79 222.62 337.18 225.86 337.18 222.62 320 222.62"/><polyline class="cls-11" points="210.34 223.62 210.34 226.86 215.95 223.62"/><polyline class="cls-11" points="210.34 223.62 210.34 219.38 216.82 223.12 215.95 223.62"/><polyline class="cls-11" points="223.82 223.62 223.82 219.38 217.34 223.12 218.21 223.62"/><polyline class="cls-11" points="218.21 223.62 223.82 226.86 223.82 223.62"/><line class="cls-1" x1="207" y1="222.62" x2="211" y2="222.62"/><line class="cls-1" x1="224.5" y1="222.62" x2="228.5" y2="222.62"/><line class="cls-1" x1="242.5" y1="222.62" x2="246.5" y2="222.62"/><line class="cls-1" x1="206.5" y1="187.62" x2="210.5" y2="187.62"/><polyline class="cls-1" points="223.5 187.62 227.5 187.62 227.02 222.62"/><path class="cls-5" d="M276.37,742.77h2.9v.58h-2.21v1.8h2v.57h-2v2.44h-.69Z" transform="translate(-25.5 -520.88)"/><path class="cls-5" d="M281.29,743.36h-1.64v-.59h4v.59H282v4.8h-.7Z" transform="translate(-25.5 -520.88)"/><path class="cls-5" d="M285.44,745.74v.52h-2v-.52Z" transform="translate(-25.5 -520.88)"/><path class="cls-5" d="M277.65,753.22h0l-.9.49-.14-.54,1.14-.61h.6v5.2h-.68Z" transform="translate(-25.5 -520.88)"/><path class="cls-5" d="M283.68,755.11c0,1.76-.66,2.74-1.81,2.74s-1.7-1-1.72-2.67.75-2.71,1.81-2.71S283.68,753.45,283.68,755.11Zm-2.82.08c0,1.35.41,2.11,1.05,2.11s1.06-.84,1.06-2.16-.32-2.12-1.05-2.12S280.86,753.77,280.86,755.19Z" transform="translate(-25.5 -520.88)"/><path class="cls-5" d="M284.5,757a2.31,2.31,0,0,0,1.15.33c.9,0,1.18-.58,1.17-1,0-.73-.66-1-1.34-1h-.39v-.52h.39c.51,0,1.16-.27,1.16-.88,0-.42-.27-.79-.91-.79a1.89,1.89,0,0,0-1,.35l-.19-.52a2.49,2.49,0,0,1,1.36-.4c1,0,1.49.61,1.49,1.24a1.29,1.29,0,0,1-1,1.23h0a1.36,1.36,0,0,1,1.16,1.34c0,.83-.65,1.56-1.9,1.56a2.74,2.74,0,0,1-1.35-.35Z" transform="translate(-25.5 -520.88)"/><path class="cls-5" d="M336.37,742.77h2.9v.58h-2.21v1.8h2v.57h-2v2.44h-.69Z" transform="translate(-25.5 -520.88)"/><path class="cls-5" d="M341.29,743.36h-1.64v-.59h4v.59H342v4.8h-.7Z" transform="translate(-25.5 -520.88)"/><path class="cls-5" d="M345.44,745.74v.52h-2v-.52Z" transform="translate(-25.5 -520.88)"/><path class="cls-5" d="M337.65,753.22h0l-.9.49-.14-.54,1.14-.61h.6v5.2h-.68Z" transform="translate(-25.5 -520.88)"/><path class="cls-5" d="M343.68,755.11c0,1.76-.66,2.74-1.81,2.74s-1.7-1-1.72-2.67.75-2.71,1.81-2.71S343.68,753.45,343.68,755.11Zm-2.82.08c0,1.35.41,2.11,1.05,2.11s1.06-.84,1.06-2.16-.32-2.12-1.05-2.12S340.86,753.77,340.86,755.19Z" transform="translate(-25.5 -520.88)"/><path class="cls-5" d="M344.33,757.76v-.43l.55-.54c1.33-1.26,1.93-1.93,1.93-2.72a.92.92,0,0,0-1-1,1.76,1.76,0,0,0-1.1.44l-.22-.5a2.3,2.3,0,0,1,1.47-.53,1.46,1.46,0,0,1,1.59,1.52c0,1-.7,1.73-1.79,2.79l-.42.38v0h2.34v.58Z" transform="translate(-25.5 -520.88)"/><line class="cls-1" x1="294.7" y1="222.62" x2="294.7" y2="211.86"/><polyline class="cls-1" points="304 196.62 295 196.62 295 198.38"/><polyline class="cls-1" points="333.76 211.86 330.52 211.86 333.76 206.25"/><polyline class="cls-1" points="333.76 211.86 338 211.86 334.26 205.38 333.76 206.25"/><polyline class="cls-1" points="333.76 198.38 338 198.38 334.26 204.86 333.76 203.99"/><polyline class="cls-1" points="333.76 203.99 330.52 198.38 333.76 198.38"/><line class="cls-1" x1="334.64" y1="222.62" x2="334.64" y2="211.86"/><polyline class="cls-1" points="325.34 196.62 334.34 196.62 334.34 198.38"/><ellipse class="cls-15" cx="314.5" cy="196.12" rx="10.5" ry="9.5"/><text class="cls-16" transform="translate(296.86 183.04)">P<tspan class="cls-17" x="4.06" y="0">dSH-108</tspan></text><path class="cls-1" d="M330.5,667.5h29l-4-8s-1,2-10,4-10-4-10-4Z" transform="translate(-25.5 -520.88)"/><path class="cls-1" d="M360.5,650.5a12.31,12.31,0,0,1-5.16,9.81,16.74,16.74,0,0,1-20.25-.45,12.19,12.19,0,0,1-4.59-9.36c0-7.18,6.72-13,15-13S360.5,643.32,360.5,650.5Z" transform="translate(-25.5 -520.88)"/><text class="cls-18" transform="translate(310.58 133.18)"><tspan class="cls-19">B</tspan><tspan x="4.38" y="0">-101</tspan></text><line class="cls-14" x1="285" y1="112.62" x2="285" y2="129.62"/><line class="cls-14" x1="279" y1="112.62" x2="290" y2="112.62"/><line class="cls-14" x1="282" y1="108.62" x2="279" y2="112.62"/><line class="cls-14" x1="288" y1="108.62" x2="290" y2="112.62"/><line class="cls-14" x1="282" y1="108.62" x2="288" y2="108.62"/><rect class="cls-14" x="280" y="98.62" width="10" height="10"/><text class="cls-18" transform="translate(283.57 106.54)">S</text><line class="cls-1" x1="285.5" y1="98.12" x2="285.5" y2="95.12"/><polyline class="cls-14" points="299.37 66.49 296.13 66.49 299.37 74.82"/><polyline class="cls-14" points="299.37 66.49 303.61 66.49 299.87 76.11 299.37 74.82"/><polyline class="cls-14" points="299.37 86.49 303.61 86.49 299.87 76.88 299.37 78.16"/><polyline class="cls-14" points="299.37 78.16 296.13 86.49 299.37 86.49"/><line class="cls-14" x1="317.37" y1="76.99" x2="300.37" y2="76.99"/><line class="cls-14" x1="317.37" y1="70.99" x2="317.37" y2="81.99"/><line class="cls-14" x1="321.37" y1="73.99" x2="317.37" y2="70.99"/><line class="cls-14" x1="321.37" y1="79.99" x2="317.37" y2="81.99"/><line class="cls-14" x1="321.37" y1="73.99" x2="321.37" y2="79.99"/><rect class="cls-14" x="346.87" y="592.87" width="10" height="10" transform="translate(924.24 -274.88) rotate(90)"/><text class="cls-18" transform="translate(323.45 75.56) rotate(90)">S</text><line class="cls-1" x1="331.87" y1="77.49" x2="334.87" y2="77.49"/><line class="cls-1" x1="294" y1="130.62" x2="305" y2="130.62"/><line class="cls-1" x1="300" y1="85.62" x2="300" y2="130.62"/><line class="cls-20" x1="339" y1="77.62" x2="346" y2="77.62"/><line class="cls-20" x1="350" y1="77.62" x2="354" y2="77.62"/><line class="cls-20" x1="354" y1="80.62" x2="354" y2="86.62"/><line class="cls-20" x1="354" y1="91.62" x2="354" y2="94.62"/><line class="cls-20" x1="350" y1="95.62" x2="341" y2="95.62"/><line class="cls-20" x1="335" y1="95.62" x2="329" y2="95.62"/><line class="cls-20" x1="322" y1="95.62" x2="312" y2="95.62"/><line class="cls-20" x1="309.5" y1="95.62" x2="299.5" y2="95.62"/><line class="cls-20" x1="296.5" y1="95.62" x2="286.5" y2="95.62"/><line class="cls-1" x1="231" y1="112.62" x2="231" y2="130.62"/><line class="cls-1" x1="231" y1="130.62" x2="249" y2="130.62"/><line class="cls-1" x1="274" y1="130.62" x2="263" y2="130.62"/><line class="cls-1" x1="271" y1="130.62" x2="271" y2="154.62"/><line class="cls-1" x1="271" y1="167.62" x2="271" y2="186.62"/><line class="cls-1" x1="266" y1="178.62" x2="270" y2="186.62"/><line class="cls-1" x1="276" y1="178.62" x2="270" y2="186.62"/><path class="cls-5" d="M265.49,687a7.43,7.43,0,0,1,1.33-.11,2.2,2.2,0,0,1,1.51.45,1.44,1.44,0,0,1,.48,1.13,1.61,1.61,0,0,1-.42,1.15,2.25,2.25,0,0,1-1.65.59,2.43,2.43,0,0,1-.56,0v2.16h-.69Zm.69,2.59a2.35,2.35,0,0,0,.58.06c.84,0,1.35-.41,1.35-1.15s-.5-1.06-1.27-1.06a3.05,3.05,0,0,0-.66.06Z" transform="translate(-25.5 -520.88)"/><path class="cls-5" d="M271.65,692.28l0-.49h0a1.42,1.42,0,0,1-1.18.58,1.1,1.1,0,0,1-1.18-1.11c0-.94.83-1.45,2.32-1.44v-.08a.8.8,0,0,0-.88-.9,1.86,1.86,0,0,0-1,.29l-.16-.46a2.37,2.37,0,0,1,1.27-.35c1.18,0,1.47.81,1.47,1.59v1.44a6.41,6.41,0,0,0,.06.93Zm-.1-2c-.77,0-1.64.12-1.64.87a.62.62,0,0,0,.66.67,1,1,0,0,0,.94-.65.85.85,0,0,0,0-.22Z" transform="translate(-25.5 -520.88)"/><path class="cls-5" d="M273.37,689.62c0-.46,0-.85,0-1.21H274l0,.76h0a1.16,1.16,0,0,1,1.07-.85.64.64,0,0,1,.2,0V689a.9.9,0,0,0-.24,0,1,1,0,0,0-.94.9,1.66,1.66,0,0,0,0,.33v2.06h-.69Z" transform="translate(-25.5 -520.88)"/><path class="cls-5" d="M278.09,692.28l-.06-.49h0a1.44,1.44,0,0,1-1.19.58,1.1,1.1,0,0,1-1.18-1.11c0-.94.83-1.45,2.33-1.44v-.08a.8.8,0,0,0-.88-.9,1.9,1.9,0,0,0-1,.29l-.16-.46a2.37,2.37,0,0,1,1.27-.35c1.18,0,1.47.81,1.47,1.59v1.44a5.18,5.18,0,0,0,.07.93Zm-.11-2c-.77,0-1.64.12-1.64.87a.63.63,0,0,0,.67.67,1,1,0,0,0,.93-.65.57.57,0,0,0,0-.22Z" transform="translate(-25.5 -520.88)"/><path class="cls-5" d="M283.64,692.28l-.06-.49h0a1.43,1.43,0,0,1-1.18.58,1.1,1.1,0,0,1-1.19-1.11c0-.94.83-1.45,2.33-1.44v-.08a.8.8,0,0,0-.88-.9,1.9,1.9,0,0,0-1,.29l-.16-.46a2.4,2.4,0,0,1,1.27-.35c1.19,0,1.47.81,1.47,1.59v1.44a5.18,5.18,0,0,0,.07.93Zm-.11-2c-.76,0-1.63.12-1.63.87a.62.62,0,0,0,.66.67,1,1,0,0,0,.93-.65.57.57,0,0,0,0-.22Z" transform="translate(-25.5 -520.88)"/><path class="cls-5" d="M269.25,701.7a3.35,3.35,0,0,1-1.42.26,2.52,2.52,0,0,1-2.66-2.73A2.68,2.68,0,0,1,268,696.4a3,3,0,0,1,1.28.24l-.17.57A2.48,2.48,0,0,0,268,697a2,2,0,0,0-2.11,2.22,2,2,0,0,0,2.07,2.17,2.72,2.72,0,0,0,1.14-.23Z" transform="translate(-25.5 -520.88)"/><path class="cls-5" d="M270.41,700.07a1.24,1.24,0,0,0,1.32,1.35,2.62,2.62,0,0,0,1.08-.2l.12.5a3.21,3.21,0,0,1-1.29.24,1.79,1.79,0,0,1-1.9-2,1.87,1.87,0,0,1,1.81-2.09,1.64,1.64,0,0,1,1.6,1.83c0,.14,0,.25,0,.32Zm2.06-.5a1,1,0,0,0-1-1.14,1.15,1.15,0,0,0-1.07,1.14Zm.17-3.23-1,1.14h-.5l.7-1.14Z" transform="translate(-25.5 -520.88)"/><path class="cls-5" d="M274,696.2h.71v5.68H274Z" transform="translate(-25.5 -520.88)"/><path class="cls-5" d="M279.15,700.82c0,.4,0,.76,0,1.06h-.62l0-.63h0a1.45,1.45,0,0,1-1.28.72c-.61,0-1.33-.34-1.33-1.7V698h.7v2.14c0,.74.22,1.23.86,1.23a1,1,0,0,0,1-1V698h.7Z" transform="translate(-25.5 -520.88)"/><path class="cls-5" d="M280.32,696.2h.7v5.68h-.7Z" transform="translate(-25.5 -520.88)"/><path class="cls-5" d="M284.35,701.88l-.06-.49h0a1.43,1.43,0,0,1-1.18.58,1.1,1.1,0,0,1-1.19-1.11c0-.94.83-1.45,2.33-1.44v-.08a.8.8,0,0,0-.88-.9,1.92,1.92,0,0,0-1,.29l-.16-.46a2.4,2.4,0,0,1,1.27-.35c1.19,0,1.48.81,1.48,1.58V701a5.25,5.25,0,0,0,.06.93Zm-.1-2c-.77,0-1.64.12-1.64.87a.62.62,0,0,0,.66.67,1,1,0,0,0,.94-.65.85.85,0,0,0,0-.22Z" transform="translate(-25.5 -520.88)"/><path class="cls-5" d="M269.25,711.3a3.35,3.35,0,0,1-1.42.26,2.52,2.52,0,0,1-2.66-2.73A2.68,2.68,0,0,1,268,706a3,3,0,0,1,1.28.24l-.17.57a2.48,2.48,0,0,0-1.08-.22,2,2,0,0,0-2.11,2.22A2,2,0,0,0,268,711a2.72,2.72,0,0,0,1.14-.23Z" transform="translate(-25.5 -520.88)"/><path class="cls-5" d="M270.08,708.82c0-.46,0-.85,0-1.21h.61l0,.76h0a1.17,1.17,0,0,1,1.07-.85.6.6,0,0,1,.2,0v.66a.86.86,0,0,0-.24,0,1,1,0,0,0-.94.9,1.69,1.69,0,0,0,0,.33v2.06h-.7Z" transform="translate(-25.5 -520.88)"/><path class="cls-5" d="M274.16,705.94l-1,1.14h-.5l.7-1.14Zm-1.43,5.54v-3.87h.7v3.87Z" transform="translate(-25.5 -520.88)"/><path class="cls-5" d="M275.45,706.5v1.11h1v.54h-1v2.08c0,.48.13.75.52.75a1.86,1.86,0,0,0,.41,0l0,.52a1.59,1.59,0,0,1-.62.1,1,1,0,0,1-.76-.3,1.41,1.41,0,0,1-.27-1v-2.11h-.6v-.54h.6v-.93Z" transform="translate(-25.5 -520.88)"/><path class="cls-5" d="M278,706.52a.44.44,0,1,1-.87,0,.43.43,0,0,1,.44-.44A.42.42,0,0,1,278,706.52Zm-.78,5v-3.87h.7v3.87Z" transform="translate(-25.5 -520.88)"/><path class="cls-5" d="M281.88,711.34a2.72,2.72,0,0,1-1.11.22,1.84,1.84,0,0,1-1.93-2,2,2,0,0,1,2.08-2.06,2.27,2.27,0,0,1,1,.2l-.16.54a1.67,1.67,0,0,0-.81-.18,1.46,1.46,0,0,0,0,2.91,2,2,0,0,0,.87-.19Z" transform="translate(-25.5 -520.88)"/><path class="cls-5" d="M284.85,711.48l-.06-.49h0a1.45,1.45,0,0,1-1.19.58,1.1,1.1,0,0,1-1.18-1.11c0-.94.83-1.45,2.33-1.44v-.08a.8.8,0,0,0-.88-.9,1.9,1.9,0,0,0-1,.29l-.16-.46a2.37,2.37,0,0,1,1.27-.35c1.18,0,1.47.81,1.47,1.59v1.44a5.18,5.18,0,0,0,.07.93Zm-.11-2c-.77,0-1.64.12-1.64.87a.63.63,0,0,0,.67.67,1,1,0,0,0,.93-.65.57.57,0,0,0,0-.22Z" transform="translate(-25.5 -520.88)"/><line class="cls-1" x1="299.5" y1="66.12" x2="299.5" y2="46.12"/><line class="cls-1" x1="295" y1="39.62" x2="299" y2="46.62"/><line class="cls-1" x1="304" y1="39.62" x2="299" y2="47.62"/><text class="cls-18" transform="translate(275.74 33.82)">Da caixa <tspan class="cls-21" x="29.45" y="0">d</tspan><tspan class="cls-22" x="34.01" y="0">’</tspan><tspan x="35.52" y="0">água</tspan></text><line class="cls-1" x1="69.5" y1="223.12" x2="72.5" y2="223.12"/><line class="cls-1" x1="86.5" y1="222.62" x2="89.5" y2="222.62"/></svg>