<svg id="fluxo-neutrônico-combustivel" xmlns="http://www.w3.org/2000/svg" width="286.12" height="196.6" viewBox="0 0 286.12 196.6"><defs><style>.cls-1{fill:#bfbfbf;}.cls-1,.cls-2{stroke:#0071bc;stroke-width:1.34px;}.cls-1,.cls-2,.cls-4{stroke-miterlimit:10;}.cls-2{fill:#7d7d7d;}.cls-3{font-size:17.22px;font-family:MyriadPro-Regular, Myriad Pro;}.cls-4{fill:none;stroke:#1a1a1a;stroke-width:1.01px;}.cls-5{letter-spacing:-0.01em;}.cls-6{letter-spacing:-0.01em;}.cls-7{letter-spacing:0em;}.cls-8{letter-spacing:0.01em;}.cls-9{letter-spacing:-0.01em;}.cls-10{letter-spacing:-0.01em;}.cls-11{letter-spacing:-0.01em;}.cls-12{letter-spacing:0em;}.cls-13{letter-spacing:-0.02em;}.cls-14{letter-spacing:0.01em;}.cls-15{letter-spacing:-0.03em;}.cls-16{letter-spacing:-0.09em;}</style></defs><rect class="cls-1" x="75.44" y="4.7" width="133.98" height="130.61"/><rect class="cls-1" x="91.72" y="4.7" width="102.68" height="130.61"/><rect class="cls-2" x="101.74" y="4.7" width="83.9" height="130.61"/><text class="cls-3" transform="translate(128.31 65.36) scale(0.87 1)">UO₂</text><path class="cls-4" d="M158,570l75.13,58.85L249.41,669l10,12.92s26.29,21.53,42.57,17.22" transform="translate(-157.69 -569.6)"/><path class="cls-4" d="M443.5,570l-75.13,58.85L352.09,669l-10,12.92s-26.29,21.53-42.57,17.22" transform="translate(-157.69 -569.6)"/><line class="cls-4" x1="83.95" y1="130.65" x2="61.92" y2="169.02"/><line class="cls-4" x1="61.84" y1="153.49" x2="61.92" y2="169.02"/><line class="cls-4" x1="75.44" y1="163.75" x2="61.92" y2="169.02"/><line class="cls-4" x1="188.67" y1="129.65" x2="215.08" y2="164.19"/><line class="cls-4" x1="202.01" y1="160.15" x2="215.08" y2="164.19"/><line class="cls-4" x1="214.25" y1="147.85" x2="215.08" y2="164.19"/><line class="cls-4" x1="142.39" y1="132.58" x2="143.66" y2="178.48"/><line class="cls-4" x1="135.79" y1="165.84" x2="143.66" y2="178.48"/><line class="cls-4" x1="152.06" y1="165.25" x2="143.66" y2="178.48"/><text class="cls-3" transform="translate(26.58 184.48) scale(0.87 1)"><tspan class="cls-5">A</tspan><tspan class="cls-6" x="10.33" y="0">ç</tspan><tspan class="cls-7" x="17.95" y="0">o </tspan><tspan class="cls-8" x="31.05" y="0">I</tspan><tspan x="35.34" y="0">n</tspan><tspan class="cls-9" x="44.9" y="0">o</tspan><tspan x="54.11" y="0">x</tspan></text><text class="cls-3" transform="translate(102.31 192.29) scale(0.87 1)"><tspan class="cls-10">C</tspan><tspan x="9.8" y="0">ombustí</tspan><tspan class="cls-11" x="69.46" y="0">v</tspan><tspan class="cls-12" x="77.57" y="0">el</tspan></text><text class="cls-3" transform="translate(205.8 184.19) scale(0.87 1)"><tspan class="cls-13">“</tspan><tspan class="cls-14" x="5.82" y="0">G</tspan><tspan x="17.08" y="0">a</tspan><tspan class="cls-15" x="25.39" y="0">p</tspan><tspan class="cls-16" x="34.62" y="0">”</tspan><tspan x="39.23" y="0" xml:space="preserve"> de He</tspan></text></svg>