<svg id="Camada_1" data-name="Camada 1" xmlns="http://www.w3.org/2000/svg" viewBox="0 0 572.44 779.06"><defs><style>.cls-1,.cls-27,.cls-47{font-size:36px;}.cls-1,.cls-24,.cls-27,.cls-31,.cls-47{font-family:MyriadPro-Regular, Myriad Pro;}.cls-2{letter-spacing:0em;}.cls-3{fill:#3bfda9;}.cls-4{fill:#fe0f16;}.cls-5{fill:#15e31b;}.cls-6{fill:#32bf37;}.cls-7{fill:#73fd74;}.cls-8{fill:#b8fefe;}.cls-9{fill:#96ee85;}.cls-10{fill:#f01510;}.cls-11{fill:#25cf2e;}.cls-12{fill:#fe3f58;}.cls-13{fill:#559642;}.cls-14{fill:#fed4d4;}.cls-15{fill:#39b44a;}.cls-16{fill:#fe7bab;}.cls-17{fill:#fd7aaa;}.cls-18{fill:#0102fa;}.cls-19{fill:#895426;}.cls-20{fill:#c3887c;}.cls-21{fill:#deb7aa;}.cls-22{fill:#019246;}.cls-23{fill:#fefefe;}.cls-24{font-size:21px;}.cls-25{letter-spacing:0em;}.cls-26{letter-spacing:0.01em;}.cls-27{fill:#fff;}.cls-28{fill:#29a9df;}.cls-28,.cls-30{stroke:#000;stroke-miterlimit:10;}.cls-29,.cls-30{fill:#29aae0;}.cls-31{font-size:24px;}.cls-32{letter-spacing:0em;}.cls-33{letter-spacing:-0.01em;}.cls-34{letter-spacing:-0.01em;}.cls-35{letter-spacing:0em;}.cls-36{letter-spacing:-0.01em;}.cls-37{letter-spacing:0em;}.cls-38{letter-spacing:-0.01em;}.cls-39{letter-spacing:0em;}.cls-40{letter-spacing:-0.01em;}.cls-41,.cls-47{letter-spacing:-0.01em;}.cls-42{letter-spacing:0em;}.cls-43{letter-spacing:0.02em;}.cls-44{letter-spacing:-0.01em;}.cls-45{letter-spacing:0em;}.cls-46{letter-spacing:-0.01em;}</style></defs><text class="cls-1" transform="translate(149.88 115.34)"><tspan class="cls-2">A</tspan><tspan x="21.92" y="0">-1</tspan></text><path class="cls-3" d="M749.73,720.5l-1.75-.06c0-34,.14-68.05.12-102.08q-.08-120-.24-239.93V354q0-34,0-68c0-.58,0-1.16,0-1.75a2.28,2.28,0,0,1,1.32-.68c.2,2,.6,4,.6,6Q749.79,505,749.73,720.5Z" transform="translate(-299.8 -209.18)"/><path class="cls-4" d="M669.31,280.45c1.34-2.56,3.55-1.43,5.53-1.29a9.1,9.1,0,0,0,.22,1.72c0,21.82,0,43.64-.27,65.45-.06,5.07,1.77,6.44,6.58,6.38q24-.34,48,0c4.85.07,6.62-1.37,6.55-6.41-.28-21.81-.22-43.63-.28-65.45a8.79,8.79,0,0,0,.22-1.69h3.63c.09,1.62.17,3.25.26,4.87l0,69.75-.18,2c-3.42.23-6.83.61-10.25.66-17.52.23-35,.37-52.56.55l-5.19-1.12-.27-65.69C671.24,286.84,671.84,283.33,669.31,280.45Z" transform="translate(-299.8 -209.18)"/><path class="cls-4" d="M440.73,279.18h3.65a7.87,7.87,0,0,0,.21,1.67c-.06,21.82,0,43.64-.28,65.46-.07,5,1.7,6.48,6.55,6.41q24-.34,48,0c4.81.07,6.65-1.3,6.58-6.37-.28-21.82-.21-43.64-.27-65.47a8.9,8.9,0,0,0,.22-1.71c2.88-.91,4.28.72,5.25,3.07l-.05,0A2.58,2.58,0,0,0,509,285q.19,35.38.4,70.76c-20.28.16-40.57.12-60.84.62-6,.15-7.88-1.57-7.8-7.71.28-21.45,0-42.91-.1-64.37l-.12-2.13C440.61,281.17,440.67,280.18,440.73,279.18Z" transform="translate(-299.8 -209.18)"/><path class="cls-5" d="M739.52,355.82l.18-2c2.64-2.32,1.38-5.41,1.4-8.12.14-20.46.12-40.93.14-61.4l6.64-.08c0,.59,0,1.17,0,1.75l-1.78.21c-4,.22-3.26,3.31-3.27,5.74q-.08,28,0,56.09c0,2.47-.68,5.5,3.3,5.75.57.09,1.14.16,1.71.22v24.48l-1.66.13c-3.29-5.35-1.17-11.23-1.54-16.85C744.43,358.08,744.07,355.34,739.52,355.82Z" transform="translate(-299.8 -209.18)"/><path class="cls-6" d="M440.54,282.16l.12,2.13c-2.33,2.44-1.36,5.49-1.37,8.27-.09,17.65,0,35.3-.09,52.94,0,3,1.08,6.47-2,8.87l-.19,0q.33-36,.67-71.91Z" transform="translate(-299.8 -209.18)"/><path class="cls-7" d="M437.66,282.44q-.33,36-.67,71.91l-2-.39.72-71.45Z" transform="translate(-299.8 -209.18)"/><path class="cls-8" d="M435.74,282.51,435,354c-2.43-9.62-.8-19.4-1-29.1-.37-14.1-.27-28.21-.36-42.32Z" transform="translate(-299.8 -209.18)"/><path class="cls-9" d="M741.24,284.27c0,20.47,0,40.94-.14,61.4,0,2.71,1.24,5.8-1.4,8.12l0-69.75A2.68,2.68,0,0,1,741.24,284.27Z" transform="translate(-299.8 -209.18)"/><path class="cls-10" d="M582.24,279.14c1.5-.39,3-.68,3.74,1.22l-.18,75.46c-2.61,1.79-5.57,1-8.37,1-16.67.08-33.33,0-50,.11-2.92,0-6.45-1.45-8.58,2.13a3.49,3.49,0,0,1-2.91-2.72c.46-.69,1.3-1.37,1.31-2.06.12-22.2.13-44.4.23-66.59,0-3.58-1.79-5.2-5.08-5.63,2.48-2.31,5.2-3.91,8.78-2.91l.24,1.73c-.06,21.82,0,43.64-.28,65.46-.06,5.07,1.73,6.47,6.57,6.4q24-.36,48,0c4.83.08,6.63-1.33,6.57-6.38-.29-21.82-.22-43.64-.28-65.47Z" transform="translate(-299.8 -209.18)"/><path class="cls-10" d="M659.05,279.14c1.57-.41,3.07-.64,3.79,1.35l0,3.7v69.7l-.69,3.18c-7.84-.08-15.69,0-23.53-.26-14.73-.53-29.52,1.37-44.22-1q-.06-33.26-.1-66.51c0-3.13.35-6.28-1.82-8.95,1.37-2.51,3.54-1.37,5.49-1.22.08.58.17,1.16.25,1.74-.06,21.82,0,43.64-.28,65.46-.06,5.05,1.74,6.46,6.57,6.38q24-.35,48,0c4.84.07,6.63-1.33,6.57-6.4-.29-21.82-.22-43.64-.28-65.46Z" transform="translate(-299.8 -209.18)"/><path class="cls-11" d="M592.5,280.36c2.17,2.67,1.82,5.82,1.82,8.95q0,33.26.1,66.5H585.8l.18-75.46Z" transform="translate(-299.8 -209.18)"/><path class="cls-11" d="M512.4,282.05c3.29.43,5.1,2.05,5.08,5.63-.1,22.19-.11,44.39-.23,66.59,0,.69-.85,1.37-1.31,2.06l-5.61-.36q.12-36.86.26-73.7l.05,0Z" transform="translate(-299.8 -209.18)"/><path class="cls-5" d="M662.17,357.06l.69-3.17c.56,0,1.12-.11,1.67-.2,4.14-.26,3.19-3.45,3.2-5.86q.09-28.79,0-57.57c0-2.41.93-5.6-3.2-5.86-.56-.09-1.11-.16-1.67-.21l0-3.7,6.47,0c2.53,2.88,1.93,6.39,1.94,9.77l.27,65.69a3.58,3.58,0,0,0-.45,1.43l-8.22.36A.76.76,0,0,0,662.17,357.06Z" transform="translate(-299.8 -209.18)"/><path class="cls-12" d="M505.39,279.16a8.9,8.9,0,0,1-.22,1.71l-60.58,0a7.87,7.87,0,0,1-.21-1.67Z" transform="translate(-299.8 -209.18)"/><path class="cls-12" d="M582.24,279.14c-.08.58-.17,1.16-.25,1.73H521.42l-.24-1.73Z" transform="translate(-299.8 -209.18)"/><path class="cls-12" d="M675.06,280.88a9.1,9.1,0,0,1-.22-1.72h61a8.79,8.79,0,0,1-.22,1.69Z" transform="translate(-299.8 -209.18)"/><path class="cls-12" d="M598.24,280.88c-.08-.58-.17-1.16-.25-1.74h61.06l-.24,1.73Z" transform="translate(-299.8 -209.18)"/><path class="cls-13" d="M437.18,354.37c3.1-2.4,2-5.83,2-8.87.09-17.64,0-35.29.09-52.94,0-2.78-1-5.83,1.37-8.27.08,21.46.38,42.92.1,64.37-.08,6.14,1.76,7.86,7.8,7.71,20.27-.5,40.56-.46,60.84-.62h.5l.44.24-3.28,5.22c-20-.11-40-.17-59.93-.37-3.65,0-6.07.38-6,5,.09,3.93,1,5.76,5.34,5.69,19.67-.36,39.34-.48,59-.68l5.16,4.14c0,.63-.05,1.26-.07,1.89a5.38,5.38,0,0,1-1.19-.26c-21.2-.18-42.4-.26-63.6-.61-5.62-.09-4.91,3.48-4.91,6.95q0,31,0,61.93-.12,84.6-.27,169.21c-2.44-3.1-1.32-6.72-1.33-10.09q-.09-108-.1-215.92c0-3.35,1.18-7-1.59-10l-2.13-2C436.09,368.87,433.42,361.37,437.18,354.37Z" transform="translate(-299.8 -209.18)"/><path class="cls-13" d="M434.22,634.81q0-8.43,0-16.88c2.33-.36,5,.6,6.78-1.92l67.77-.09.27,1.83-2,3.65q-30.36-.17-60.72-.34c-2.82,0-5,.17-5.13,4s1.58,4.93,5.16,4.9c20.24-.23,40.48-.31,60.71-.44,1.32,1.63,2.63,3.27,3.94,4.9l-2,.65q-34.11-1.33-68.2,0Z" transform="translate(-299.8 -209.18)"/><path class="cls-6" d="M441,616c-1.73,2.52-4.45,1.56-6.78,1.92a2.4,2.4,0,0,1,1.3-2.93c2.53-2.68,1.73-6,1.74-9.15.06-17.16,0-34.32,0-51.48q.13-88.11.3-176.24c2.77,3,1.59,6.64,1.59,10q.1,108,.1,215.92c0,3.37-1.11,7,1.33,10.09Z" transform="translate(-299.8 -209.18)"/><path class="cls-7" d="M437.6,378.13q-.15,88.13-.3,176.24c0,17.16,0,34.32,0,51.48,0,3.12.79,6.47-1.74,9.15a1.34,1.34,0,0,1-.52-.84c.19-2,.54-4,.54-6q0-111.87,0-223.74a58.67,58.67,0,0,0-.59-6c.17-.74.35-1.49.52-2.24Z" transform="translate(-299.8 -209.18)"/><path class="cls-8" d="M435,378.37a58.67,58.67,0,0,1,.59,6q0,111.87,0,223.74c0,2-.35,4-.54,6-1.83-2.3-1.07-5-1.08-7.56q-.06-110.31,0-220.62C433.93,383.43,433.24,380.72,435,378.37Z" transform="translate(-299.8 -209.18)"/><path class="cls-6" d="M434.22,634.81l6.62.27c0,24.42-.13,48.84,0,73.26,0,3-1.83,7.45,3.77,8.09l.53,3.73-7.84.21c0-24.55.06-49.11,0-73.67,0-2.73,1.11-5.84-1.61-8.1l-.5-.38C434.84,637.08,434.53,636,434.22,634.81Z" transform="translate(-299.8 -209.18)"/><path class="cls-8" d="M435.54,720.35l-.71.18h-.73q-.11-38.26-.19-76.52c0-2-.3-4.09,1.24-5.78l.49.38Q435.6,679.48,435.54,720.35Z" transform="translate(-299.8 -209.18)"/><path class="cls-4" d="M583.59,718.57a3.72,3.72,0,0,1-.88-.11c-.26-1.77-1.47-2.34-3.05-2.32q-29.08.29-58.15.61c-5.78-.29-3.92-4.72-3.94-7.74-.12-24.61-.08-49.21-.09-73.82l4.22-1c21.4.83,42.84-1,64.22.94.05,1.16.11,2.32.16,3.48q-.14,34.65-.27,69.32C585.81,711.63,586,715.35,583.59,718.57Zm-62.34-43.46c0,10.19.16,20.38-.07,30.56-.11,4.57.86,6.88,6.15,6.79,16.29-.28,32.58-.22,48.87,0,4.51.05,6.08-1.44,6-6-.18-20.66-.22-41.32,0-62,.06-5.12-1.84-6.41-6.62-6.34q-24,.35-48,0c-4.92-.08-6.65,1.48-6.49,6.46C521.47,654.74,521.25,664.93,521.25,675.11Z" transform="translate(-299.8 -209.18)"/><path class="cls-4" d="M674.77,717.41l-.86-.17-.83.24c-3.46-2.31-1.71-5.83-1.74-8.72-.23-24-.24-48-.31-72-.12-.61-.23-1.21-.35-1.81,22.92-.7,45.84-.81,68.76.06.08,1.1.15,2.2.23,3.31q-.25,38.82-.5,77.64c-12.93,0-25.86-.17-38.78.18C691.85,716.42,683.19,714.64,674.77,717.41Zm61.05-41.76c0-10.18-.25-20.38.1-30.55.18-5.26-1.41-7.13-6.85-7-15.7.31-31.42.26-47.12,0-5-.08-7.27,1-7.18,6.68.3,20.36.24,40.73,0,61.1,0,4.84,1.35,6.65,6.39,6.57,16-.25,32-.31,48,0,5.6.12,6.9-2,6.73-7.14C735.59,695.45,735.82,685.54,735.82,675.65Z" transform="translate(-299.8 -209.18)"/><path class="cls-11" d="M739.67,638.36c-.08-1.1-.15-2.2-.23-3.29,8-.3,4.27-6.46,4.92-10.24.71-4,0-7.56-5.47-7.23.34-.58.69-1.16,1-1.75A3.09,3.09,0,0,0,743,614c4.46-.63,3.29-4.15,3.29-6.81q0-114.33-.09-228.67l1.66-.13q.14,120,.24,239.93c0,34-.08,68.06-.12,102.08l-.83.12-.82-.19V639.76l-3.41,0v80.58l-1.86,0c0-24.57.05-49.14,0-73.7C741,643.84,742,640.79,739.67,638.36Z" transform="translate(-299.8 -209.18)"/><path class="cls-11" d="M517.48,635.19c0,24.61,0,49.21.09,73.82,0,3-1.84,7.45,3.94,7.74l-.72,1.92c-3,2.76-6.6,2.06-10.14,1.7,0-24.27.05-48.55,0-72.82,0-3,1.12-6.4-1.42-9.1l-.15-3.36,2-.66c1.88,1.13,3.11-.72,4.67-1.06C516.29,634,516.89,634.58,517.48,635.19Z" transform="translate(-299.8 -209.18)"/><path class="cls-14" d="M445.11,720.16c-.18-1.24-.36-2.49-.55-3.73l64.13-.36c.11,1.4.23,2.8.35,4.19Z" transform="translate(-299.8 -209.18)"/><path class="cls-14" d="M674.77,717.41c8.42-2.77,17.08-1,25.62-1.22,12.92-.35,25.85-.15,38.78-.18l.33,4.22c-19.42.12-38.85.2-58.27.4C678.39,720.66,676.08,720.17,674.77,717.41Z" transform="translate(-299.8 -209.18)"/><path class="cls-14" d="M661.64,720.2q-29.8.19-59.6.37c-1.69,0-3.53.17-4.37-1.88.3-.67.59-1.35.89-2q31.49-1.42,63,0C661.57,717.84,661.6,719,661.64,720.2Z" transform="translate(-299.8 -209.18)"/><path class="cls-14" d="M520.79,718.67l.72-1.92q29.07-.32,58.15-.61c1.58,0,2.79.55,3.05,2.32-.79,2-2.55,2.11-4.31,2.11q-27,0-54,0C522.84,720.56,521.48,720.23,520.79,718.67Z" transform="translate(-299.8 -209.18)"/><path class="cls-5" d="M586.08,638.57c-.05-1.16-.11-2.32-.16-3.48h8.39c-.06,1.16-.11,2.32-.16,3.48-2.47,2.72-1.4,6-1.41,9.11-.1,24.23-.07,48.45-.08,72.68l-3.48,0c0-24.66.07-49.31-.06-74C589.11,643.61,590.89,639.68,586.08,638.57Z" transform="translate(-299.8 -209.18)"/><path class="cls-5" d="M671,636.81c.07,24,.08,48,.31,72,0,2.89-1.72,6.41,1.74,8.72-1.21,2-2.59,3.69-5.33,2.9l-.18-81.6A3.6,3.6,0,0,1,671,636.81Z" transform="translate(-299.8 -209.18)"/><path class="cls-15" d="M586.08,638.57c4.81,1.11,3,5,3,7.84.13,24.66.07,49.31.06,74-2.14.25-4.4.87-5.59-1.81,2.39-3.22,2.22-6.94,2.22-10.68Q585.9,673.22,586.08,638.57Z" transform="translate(-299.8 -209.18)"/><path class="cls-15" d="M667.57,638.78l.18,81.6h-3.4c0-24.65-.08-49.29,0-73.94C664.42,643.68,662.56,639.67,667.57,638.78Z" transform="translate(-299.8 -209.18)"/><path class="cls-15" d="M742.92,720.37V639.79l3.41,0v80.61Z" transform="translate(-299.8 -209.18)"/><path class="cls-11" d="M667.57,638.78c-5,.89-3.15,4.9-3.17,7.66-.13,24.65-.06,49.29,0,73.94l-2.71-.18c0-1.18-.07-2.36-.11-3.54,1.38-1.77,1-3.85,1-5.86q0-37.8-.11-75.62l3.62-.68,3-1,1.58,1.49c.12.6.23,1.2.35,1.81A3.6,3.6,0,0,0,667.57,638.78Z" transform="translate(-299.8 -209.18)"/><path class="cls-15" d="M592.66,720.36c0-24.23,0-48.45.08-72.68,0-3.06-1.06-6.39,1.41-9.11.09,23.47.15,46.94.33,70.42,0,3.11-1.61,7.44,4.08,7.68-.3.67-.59,1.35-.89,2C596.17,719.75,594.78,721.16,592.66,720.36Z" transform="translate(-299.8 -209.18)"/><path class="cls-9" d="M739.5,720.23l-.33-4.22q.26-38.82.5-77.64c2.35,2.42,1.36,5.47,1.37,8.25.07,24.56,0,49.13,0,73.7l-.79.12Z" transform="translate(-299.8 -209.18)"/><path class="cls-7" d="M435.54,720.35q0-40.87.1-81.75c2.72,2.26,1.6,5.37,1.61,8.1.08,24.56,0,49.12,0,73.67Z" transform="translate(-299.8 -209.18)"/><path class="cls-7" d="M509,720.26c-.12-1.39-.24-2.79-.35-4.19q.26-38.82.5-77.62c2.54,2.7,1.41,6,1.42,9.1.09,24.27.05,48.55,0,72.82l-.82.12Z" transform="translate(-299.8 -209.18)"/><path class="cls-11" d="M746.12,286.15l1.78-.21q0,34,0,68c-.57-.06-1.14-.13-1.71-.22Z" transform="translate(-299.8 -209.18)"/><path class="cls-16" d="M675.06,280.88l60.57,0c.06,21.82,0,43.64.28,65.45.07,5-1.7,6.48-6.55,6.41q-24-.36-48,0c-4.81.06-6.64-1.31-6.58-6.38C675.07,324.52,675,302.7,675.06,280.88Zm35.06,35.58c-5.09,0-5.56-3.42-6.36-6.91-1.58-6.84-7.07-6.69-12.35-6.14-6.41.67-1.29,5.35-2.42,8-.73,1.7.31,4.11-.26,6-1.78,5.79,2,4.86,5.48,5.26C700.6,323.35,703.43,315.69,710.12,316.46Zm10-1.42a57.72,57.72,0,0,0-.05-6.36c-.22-1.73.93-4.8-2.35-4.38-2.56.32-2.24,2.5-1.75,4.79a48.61,48.61,0,0,1,.63,9.44c0,1.57-1.41,3.62,1.54,3.84,2.44.18,2.78-1.15,2.28-3.3A18.76,18.76,0,0,1,720.1,315Z" transform="translate(-299.8 -209.18)"/><path class="cls-15" d="M746.2,378.56q.07,114.33.09,228.67c0,2.66,1.17,6.18-3.29,6.81q-.09-112.81-.25-225.63c0-3.31,1.43-7-1.62-9.89-.47,0-.94,0-1.4,0-1.72-4.2-5.44-2.53-8.33-2.58-18.27-.32-36.55-.43-54.82-.61l-.08-3.64q28.69-.07,57.37-.15c3.42,0,6.87.8,7-4.88s-2.78-5.83-7-5.82c-19.12.08-38.25,0-57.37-.09.07-1.23.14-2.45.2-3.68,17.52-.18,35-.32,52.56-.55,3.42-.05,6.83-.43,10.25-.66,4.55-.48,4.91,2.26,5.14,5.89C745,367.33,742.91,373.21,746.2,378.56Z" transform="translate(-299.8 -209.18)"/><path class="cls-13" d="M676.71,357c-.06,1.23-.13,2.45-.2,3.68a4.47,4.47,0,0,1-1.62.56,5.44,5.44,0,0,0-3.82-3.93,3.58,3.58,0,0,1,.45-1.43Z" transform="translate(-299.8 -209.18)"/><path class="cls-17" d="M444.59,280.84l60.58,0c.06,21.83,0,43.65.27,65.47.07,5.07-1.77,6.44-6.58,6.37q-24-.34-48,0c-4.85.07-6.62-1.37-6.55-6.41C444.59,324.48,444.53,302.66,444.59,280.84Zm39.94,23.83c-.6,5.54.63,11.16-.51,16.71-.25,1.22,1.69,1.25,2.77,1.14,1.3-.14,1.92-.67.91-2.12C484.31,315.56,487.74,309.81,484.53,304.67Z" transform="translate(-299.8 -209.18)"/><path class="cls-7" d="M510.59,282.27q-.13,36.84-.26,73.7h0l-.45-.24h-.5q-.21-35.38-.4-70.76A2.58,2.58,0,0,1,510.59,282.27Z" transform="translate(-299.8 -209.18)"/><path class="cls-15" d="M746.12,286.15l0,67.58c-4-.25-3.3-3.28-3.3-5.75q-.06-28.05,0-56.09C742.86,289.46,742.07,286.37,746.12,286.15Z" transform="translate(-299.8 -209.18)"/><path class="cls-16" d="M521.42,280.87H582c.06,21.83,0,43.65.28,65.47.06,5.05-1.74,6.46-6.57,6.38q-24-.35-48,0c-4.84.07-6.63-1.33-6.57-6.4C521.43,324.51,521.36,302.69,521.42,280.87Zm31.72,35.9c-2.74-2.29-7.52-1-5.56-7.18,1.53-4.77-3.3-6.12-8-6.44-5.77-.4-4.94,2.78-4.46,6.34.23,1.72-.36,3.62.14,5.2.81,2.57-2.92,6.41,1,7.48,3.66,1,8.22,1.77,11.53-1.61C549.27,319.12,550.31,317.35,553.14,316.77Zm9.93-2.33H563a37.58,37.58,0,0,0,0-5.2c-.26-1.91,1.15-5.41-2.67-4.78-2.55.43-1.73,2.87-1.29,5,.58,2.78.43,5.71.58,8.58.08,1.68-2,4.39,1.79,4.32s1.59-2.79,1.7-4.44C563.13,316.76,563.07,315.6,563.07,314.44Z" transform="translate(-299.8 -209.18)"/><path class="cls-15" d="M585.8,355.82h8.62c14.7,2.37,29.49.47,44.22,1,7.84.28,15.69.18,23.53.26a.74.74,0,0,1,.68.63l-2.14,3.41c-19.78-.09-39.56-.11-59.34-.3-4-.05-6.59.37-6.48,5.49.1,4.43,2,5.31,5.84,5.26,19.48-.28,39-.36,58.44-.51l.26.31c.46,1.42.92,2.83,1.39,4.25-3.75,0-7.51-.13-11.25,0-18.39.56-36.82-1.25-55.17,1l-8.53,0c-2.89-2-6.14-1-9.22-1-19.23-.28-38.47-.42-57.71-.61l2.36-3.7c20,.09,40.07.1,60.11.34,4.06.05,5.64-1.16,5.65-5.41s-1.7-5.41-5.71-5.36c-20,.24-40.06.28-60.1.38l-2.4-2.13c2.13-3.58,5.66-2.11,8.58-2.13,16.67-.15,33.33,0,50-.11C580.23,356.79,583.19,357.61,585.8,355.82Z" transform="translate(-299.8 -209.18)"/><path class="cls-16" d="M598.24,280.88h60.57c.06,21.82,0,43.64.28,65.46.06,5.07-1.73,6.47-6.57,6.4q-24-.36-48,0c-4.83.08-6.63-1.33-6.57-6.38C598.25,324.52,598.18,302.7,598.24,280.88Zm23.53,41a30.63,30.63,0,0,1-3.54-1.49c-4.82-3-3.82-7.09-2.19-11.37,2.07-5.41,4.48-2.07,6.94-.41,1,.68,2.28.83,2.62-.78s.42-3.29-2.21-3.6c-3.09-.37-6.58-2.21-8.67,1.2-2,3.24-5.38,6.41-3.19,11C613.38,320.21,615.66,323.38,621.77,321.86Zm18-17.09c-.25,5.49.66,11-.23,16.53-.21,1.23,1.73,1.2,2.84,1,.86-.14,1.6-.57.79-1.7C639.69,315.76,643.23,309.87,639.73,304.77Z" transform="translate(-299.8 -209.18)"/><path class="cls-11" d="M662.86,284.19c.56.05,1.11.12,1.67.21v69.29c-.55.09-1.11.16-1.67.2Z" transform="translate(-299.8 -209.18)"/><path class="cls-15" d="M664.53,353.69V284.4c4.13.26,3.19,3.45,3.2,5.86q.09,28.78,0,57.57C667.72,350.24,668.67,353.43,664.53,353.69Z" transform="translate(-299.8 -209.18)"/><path class="cls-4" d="M441,616l-.39-1.88q.13-84.6.27-169.21,0-31,0-61.93c0-3.47-.71-7,4.91-6.95,21.2.35,42.4.43,63.6.61q-.11,118.82-.22,237.63a5.14,5.14,0,0,0-.41,1.64Zm64.34-40.6c0-9.9-.22-19.8.09-29.68.15-5-1-7.33-6.67-7.21-16,.35-32,.28-48,0-5-.08-6.51,1.59-6.46,6.51q.33,30.56,0,61.12c0,4.63,1,6.83,6.23,6.74,16.28-.27,32.58-.22,48.87,0,4.54.06,6.11-1.52,6-6C505.18,596.37,505.34,585.89,505.35,575.41Zm-61-160.17c0,10.15.2,20.3-.08,30.45-.14,4.81,1.32,6.65,6.36,6.57,16.23-.25,32.47-.21,48.71,0,4.47.05,6.08-1.42,6-6q-.27-30,0-60c.05-4.8-1.31-6.65-6.35-6.57-16.24.25-32.48.21-48.71,0-4.48-.05-6.16,1.42-6,6C444.58,395.51,444.4,405.37,444.4,415.24Zm0,80.84c0,10.15.17,20.31-.07,30.46-.11,4.52,1.48,6.07,6,6q24.78-.28,49.58,0c4.17,0,5.52-1.55,5.49-5.61q-.19-30.9,0-61.78c0-3.72-1.38-5.14-5.09-5.12-16.82.1-33.64.13-50.45,0-4.18,0-5.58,1.56-5.5,5.62C444.53,475.77,444.41,485.93,444.4,496.08Z" transform="translate(-299.8 -209.18)"/><path class="cls-11" d="M508.78,615.92a5.14,5.14,0,0,1,.41-1.64c2.25-2.12,1.44-4.89,1.44-7.41q0-115,0-230c0-.63,0-1.26.07-1.89l-.15-.29,4.2.55c4,2.15,2.68,6,2.71,9.2.2,23.76.29,47.53.42,71.29q-.14,39.78-.25,79.55.09,40.44.17,80.86a10.06,10.06,0,0,0-.22,1.22c-2.81.69-5.54,3.29-8.5.35Z" transform="translate(-299.8 -209.18)"/><path class="cls-18" d="M507.06,361.2c-2.28,2.95-1.52,6.38-1.55,9.68-19.67.2-39.34.32-59,.68-4.35.07-5.25-1.76-5.34-5.69-.1-4.66,2.32-5.07,6-5C467.1,361,487.08,361.09,507.06,361.2Z" transform="translate(-299.8 -209.18)"/><path class="cls-7" d="M510.6,376.91q0,115,0,230c0,2.52.81,5.29-1.44,7.41q.1-118.81.22-237.63A5.38,5.38,0,0,0,510.6,376.91Z" transform="translate(-299.8 -209.18)"/><path class="cls-4" d="M509.19,638.45q-.26,38.81-.5,77.62l-64.13.36c-5.58-.64-3.74-5-3.75-8.09-.1-24.42,0-48.84,0-73.26q34.1-1.3,68.2,0Zm-3.84,37.34c0-10.16-.31-20.32.12-30.46.24-5.84-1.86-7.38-7.46-7.27-15.65.34-31.32.24-47,.05-4.58-.06-6.8.91-6.73,6.19q.39,30.88,0,61.79c-.05,5.06,1.78,6.43,6.58,6.36,15.95-.23,31.9-.3,47.84,0,5.56.11,6.89-2,6.72-7.11C505.12,695.52,505.35,685.65,505.35,675.79Z" transform="translate(-299.8 -209.18)"/><path class="cls-18" d="M507.08,629.54c-20.23.13-40.47.21-60.71.44-3.58,0-5.27-1-5.16-4.9s2.31-4,5.13-4q30.36.2,60.72.34C505,624.12,504.84,626.83,507.08,629.54Z" transform="translate(-299.8 -209.18)"/><path class="cls-16" d="M521.25,675.11c0-10.18.22-20.37-.09-30.55-.16-5,1.57-6.54,6.49-6.46q24,.36,48,0c4.78-.07,6.68,1.22,6.62,6.34-.24,20.66-.2,41.32,0,62,0,4.57-1.53,6.06-6,6-16.29-.19-32.58-.25-48.87,0-5.29.09-6.26-2.22-6.15-6.79C521.41,695.49,521.25,685.3,521.25,675.11Zm31.6,1.4c-2.76-2.61-8.51-1.5-5.5-8.56,1.79-4.2-4-4.86-7.85-5-3.3-.1-5.73.08-4.47,4.6.6,2.16-.27,4.72.3,6.89.67,2.56-2.93,6.37,1,7.44,3.64,1,8.16,1.74,11.49-1.57C549.23,678.91,550.23,677.11,552.85,676.51Zm5.19-11c-1.59,6.76,7.7,8.1,5.21,14.22C567.77,673.18,563.41,669.65,558,665.51Z" transform="translate(-299.8 -209.18)"/><path class="cls-15" d="M521.24,621.37a6.37,6.37,0,0,0-3.69-4,10.06,10.06,0,0,1,.22-1.22l67.9,0c2.68,2.35,5.94,1,8.93,1.39,19.75,0,39.5-.09,59.24.17,1.67,0,6.45-3,5.43,2.94q-28.65.16-57.3.36c-3.31,0-7.2-1.05-7,4.75.18,5.34,3.87,4.08,6.77,4.09,19.11,0,38.22,0,57.33-.06.72.91,1.51,1.3,2.47.31a.92.92,0,0,1,.77.84l-2,3.15c-3.19.05-6.38.06-9.57.15-18.81.5-37.65-1-56.44.79h-8.39c-21.38-1.92-42.82-.11-64.22-.93-.24-1.48-.49-3-.74-4.44l-.14-.26,1.92.23c19.38.09,38.76.15,58.14.28,3.39,0,6.29.13,6.14-4.79-.14-4.54-3-4.14-5.91-4.12Z" transform="translate(-299.8 -209.18)"/><path class="cls-19" d="M521,629.72c.25,1.48.5,3,.74,4.44l-4.22,1c-.59-.61-1.19-1.21-1.79-1.82Z" transform="translate(-299.8 -209.18)"/><path class="cls-16" d="M735.82,675.65c0,9.89-.23,19.8.09,29.68.17,5.11-1.13,7.26-6.73,7.14-16-.33-32-.27-48,0-5,.08-6.44-1.73-6.39-6.57.21-20.37.27-40.74,0-61.1-.09-5.67,2.17-6.76,7.18-6.68,15.7.24,31.42.29,47.12,0,5.44-.11,7,1.76,6.85,7C735.57,655.27,735.82,665.47,735.82,675.65Zm-26,.57c-3.47-.85-5.33-2.18-5.7-6.21-.71-7.73-7-7.22-12.54-6.9-6.64.39-1.34,5.3-2.68,7.8a4.69,4.69,0,0,0,0,3.4c.92,2.54-2.78,6.23.94,7.54,3.4,1.19,7.74,1.32,10.72-1.46A16,16,0,0,1,709.85,676.22Zm10.6,3.44c3.09-4.71,2.26-8.59-2.29-11.42-.92-.57-1.29-3.13-3-1.42-1.07,1.06-.94,2.36.41,3.64C718.14,672.91,721.26,675.25,720.45,679.66Z" transform="translate(-299.8 -209.18)"/><path class="cls-13" d="M670.68,635l-1.58-1.49c2.74-.13,5-.94,5.81-4q30.36.2,60.72.38c2.82,0,5-.16,5.14-4s-1.58-4.94-5.16-4.9c-20.24.21-40.48.29-60.72.42l-.48-2c1.86-2.59,4.65-1.93,7.17-1.93q28.65,0,57.31.09c5.43-.33,6.18,3.19,5.47,7.23-.65,3.78,3.11,9.94-4.92,10.24C716.52,634.19,693.6,634.3,670.68,635Z" transform="translate(-299.8 -209.18)"/><path class="cls-5" d="M741.13,378.52c3,2.87,1.62,6.58,1.62,9.89Q743,501.23,743,614a3.09,3.09,0,0,1-3.08,1.81l-.43-.27-.35.36a11.78,11.78,0,0,0,.56-1.43c2.41-2.42,1.42-5.5,1.42-8.29Q741.18,492.37,741.13,378.52Z" transform="translate(-299.8 -209.18)"/><path class="cls-19" d="M738.89,617.6q-28.65-.06-57.31-.09c-2.52,0-5.31-.66-7.17,1.93-4.43.88-9.39-1.57-13.38,2.14l-1.76-.88c1-6-3.76-2.91-5.43-2.93-19.74-.26-39.49-.17-59.24-.17l.12-1.78,67.71-.07,5.23-.13h3.68l67.8.33.35-.36.43.27C739.58,616.44,739.23,617,738.89,617.6Z" transform="translate(-299.8 -209.18)"/><path class="cls-4" d="M594.31,635.09c18.79-1.84,37.63-.29,56.44-.79,3.19-.09,6.38-.1,9.57-.15l2.14,1q.06,37.82.11,75.62c0,2,.34,4.09-1,5.86q-31.49-1.36-63,0c-5.69-.24-4-4.57-4.08-7.68-.18-23.48-.24-47-.33-70.42C594.2,637.41,594.25,636.25,594.31,635.09ZM659,675.48c0-10.18-.15-20.37.07-30.55.1-4.51-.73-6.94-6.1-6.84-16.28.28-32.58.21-48.87,0-4.43,0-6.13,1.32-6.09,6q.28,31,0,62c-.05,5,1.72,6.47,6.56,6.4q24-.36,48,0c4.85.07,6.7-1.37,6.54-6.42C658.75,695.86,659,685.67,659,675.48Z" transform="translate(-299.8 -209.18)"/><path class="cls-19" d="M662.31,631l3.77,3.5-3.62.68-2.14-1C661,633.1,661.65,632.05,662.31,631Z" transform="translate(-299.8 -209.18)"/><path class="cls-20" d="M710.12,316.46c-6.69-.77-9.52,6.89-15.91,6.15-3.49-.4-7.26.53-5.48-5.26.57-1.85-.47-4.26.26-6,1.13-2.63-4-7.31,2.42-8,5.28-.55,10.77-.7,12.35,6.14C704.56,313,705,316.43,710.12,316.46Zm-18.2-3.39c1.53,2.07-2,6.85,3.17,7.24,3.53.26,5.77-2.78,5.68-6.33-.09-3.93-2.15-8.08-6-8.25C690.54,305.54,692.92,310.18,691.92,313.07Z" transform="translate(-299.8 -209.18)"/><path class="cls-21" d="M720.1,315a18.76,18.76,0,0,0,.3,4c.5,2.15.16,3.48-2.28,3.3-3-.22-1.52-2.27-1.54-3.84a48.61,48.61,0,0,0-.63-9.44c-.49-2.29-.81-4.47,1.75-4.79,3.28-.42,2.13,2.65,2.35,4.38A57.72,57.72,0,0,1,720.1,315Z" transform="translate(-299.8 -209.18)"/><path class="cls-4" d="M739.14,615.94l-67.8-.32q0-101.19-.11-202.39c0-12.2-.25-24.39-.38-36.59l5.73-1.35c18.27.18,36.55.29,54.82.61,2.89.05,6.61-1.62,8.33,2.58-.1,4.35-.29,8.7-.29,13q.1,111.5.26,223A11.78,11.78,0,0,1,739.14,615.94Zm-3.32-200.32c0-9.6-.22-19.21.09-28.8.16-5-1-7.33-6.67-7.2-16,.35-32,.27-48,0-5-.08-6.5,1.6-6.45,6.51.23,19.79.2,39.58,0,59.36,0,4.64,1,6.83,6.21,6.74,16.29-.27,32.58-.22,48.87,0,4.55.06,6.11-1.52,6-6.05C735.64,436,735.81,425.81,735.82,415.62ZM674.89,575.71c0,10.19.19,20.38-.09,30.56-.13,4.76,1.2,6.72,6.32,6.64,16.28-.26,32.58-.23,48.86,0,4.67.06,5.95-1.73,5.91-6.15q-.25-31,0-62c0-4.38-1.16-6.25-5.87-6.19-16.29.21-32.58.24-48.87,0-5.07-.09-6.48,1.8-6.35,6.6C675.08,555.34,674.89,565.53,674.89,575.71Zm0-79.71c0,10.18.18,20.37-.08,30.55-.12,4.58,1.55,6.06,6,6,16.29-.18,32.59-.24,48.87,0,5.29.09,6.21-2.2,6.17-6.78-.17-19.79-.21-39.58,0-59.36.06-5-1.59-6.54-6.5-6.47-16,.24-32,.33-48,0-5.77-.13-6.76,2.29-6.61,7.25C675.09,476.79,674.88,486.39,674.89,496Z" transform="translate(-299.8 -209.18)"/><path class="cls-18" d="M674.91,371.12a15.58,15.58,0,0,0,0-9.85,4.47,4.47,0,0,0,1.62-.56c19.12.05,38.25.17,57.37.09,4.21,0,7.13.12,7,5.82s-3.58,4.87-7,4.88q-28.68.09-57.37.15A4.27,4.27,0,0,0,674.91,371.12Z" transform="translate(-299.8 -209.18)"/><path class="cls-9" d="M739.7,614.51q-.13-111.5-.26-223c0-4.35.19-8.7.29-13,.46,0,.93,0,1.4,0q0,113.85,0,227.7C741.12,609,742.11,612.09,739.7,614.51Z" transform="translate(-299.8 -209.18)"/><path class="cls-13" d="M674.91,371.12a4.27,4.27,0,0,1,1.59.53c0,1.21,0,2.43.08,3.64l-5.73,1.35-1.78-.15C669.49,373,674.5,374.59,674.91,371.12Z" transform="translate(-299.8 -209.18)"/><path class="cls-20" d="M484.53,304.67c3.21,5.14-.22,10.89,3.17,15.73,1,1.45.39,2-.91,2.12-1.08.11-3,.08-2.77-1.14C485.16,315.83,483.93,310.21,484.53,304.67Z" transform="translate(-299.8 -209.18)"/><path class="cls-20" d="M553.14,316.77c-2.83.58-3.87,2.35-5.29,3.79-3.31,3.38-7.87,2.61-11.53,1.61-3.93-1.07-.2-4.91-1-7.48-.5-1.58.09-3.48-.14-5.2-.48-3.56-1.31-6.74,4.46-6.34,4.65.32,9.48,1.67,8,6.44C545.62,315.73,550.4,314.48,553.14,316.77Z" transform="translate(-299.8 -209.18)"/><path class="cls-21" d="M563.07,314.44c0,1.16.06,2.32,0,3.47-.11,1.65,2.09,4.37-1.7,4.44s-1.71-2.64-1.79-4.32c-.15-2.87,0-5.8-.58-8.58-.44-2.12-1.26-4.56,1.29-5,3.82-.63,2.41,2.87,2.67,4.78a37.58,37.58,0,0,1,0,5.2Z" transform="translate(-299.8 -209.18)"/><path class="cls-4" d="M662.43,615.75l-67.71.07-.58-1.69q0-117.76.05-235.52l.21-2.07c18.35-2.2,36.78-.39,55.17-1,3.74-.11,7.5,0,11.25,0l1.62,1.12.39,1.77c-.08,3.48-.24,7-.24,10.45Q662.5,502.35,662.43,615.75ZM659,416.83c0-10.48-.11-21,.06-31.43.07-4-1.14-5.76-5.42-5.72-16.58.16-33.16.19-49.74,0-4.69-.06-5.91,1.78-5.87,6.17q.25,30.12,0,60.24c0,4.39,1.17,6.23,5.87,6.17,16.29-.21,32.58-.25,48.87,0,5.1.08,6.46-1.85,6.32-6.63C658.78,436,659,426.43,659,416.83Zm0,159.63c0-10.48-.22-21,.09-31.42.15-5-1.55-6.56-6.48-6.48q-24,.36-48,0c-4.75-.07-6.69,1.17-6.63,6.32.25,20.66.2,41.32,0,62,0,4.56,1.51,6.07,6,6,16.28-.19,32.58-.25,48.86,0,5.29.09,6.29-2.18,6.17-6.77C658.81,596.25,659,586.35,659,576.46Zm-60.91-81c0,10.18.19,20.37-.09,30.55-.13,4.79,1.25,6.69,6.34,6.61,16.29-.26,32.58-.23,48.87,0,4.71.06,5.9-1.8,5.86-6.18q-.25-30.12,0-60.23c0-4.41-1.21-6.22-5.89-6.16-16.29.2-32.58.24-48.87,0-5.12-.09-6.44,1.88-6.3,6.64C598.27,476.2,598.07,485.81,598.07,495.42Z" transform="translate(-299.8 -209.18)"/><path class="cls-10" d="M517.85,455.77c-.13-23.76-.22-47.53-.42-71.29,0-3.25,1.28-7.05-2.71-9.2l3.28-.54a1.17,1.17,0,0,0,.94.19c19.24.19,38.48.33,57.71.61,3.08,0,6.33-.93,9.22,1l.18,2q-.19,38.1-.41,76.21L582,453.29l0-1.79c.06-21.83,0-43.65.27-65.47.07-5-1.72-6.47-6.56-6.4q-24,.36-48,0c-4.84-.07-6.62,1.37-6.55,6.4.28,21.82.21,43.65.27,65.47l0,1.79Z" transform="translate(-299.8 -209.18)"/><path class="cls-5" d="M586.06,378.54c-.07-.66-.13-1.31-.19-2l8.53,0-.21,2.06c-2.52,2.38-1.45,5.48-1.46,8.25q-.08,109.49,0,219c0,2.8-.94,5.87,1.41,8.31l.58,1.69-.12,1.78c-3-.37-6.25,1-8.93-1.4.14-.67.28-1.35.41-2,4.38-.85,3.07-4.37,3.07-7q.09-110.86,0-221.72C589.14,382.87,590.54,379.28,586.06,378.54Z" transform="translate(-299.8 -209.18)"/><path class="cls-18" d="M521.3,371.23q0-5,0-10.05c20-.1,40.07-.14,60.1-.38,4-.05,5.72,1,5.71,5.36s-1.59,5.46-5.65,5.41C561.37,371.33,541.34,371.32,521.3,371.23Z" transform="translate(-299.8 -209.18)"/><path class="cls-18" d="M660.71,361.11c-2.23,3.05-1.65,6.53-1.54,9.94-19.48.15-39,.23-58.44.51-3.89.05-5.74-.83-5.84-5.26-.11-5.12,2.46-5.54,6.48-5.49C621.15,361,640.93,361,660.71,361.11Z" transform="translate(-299.8 -209.18)"/><path class="cls-19" d="M662.44,376.73l-1.62-1.12c-.47-1.42-.93-2.83-1.39-4.25,3.21,0,5.36,1.28,5.61,4.77Z" transform="translate(-299.8 -209.18)"/><path class="cls-21" d="M518,374.74l-3.28.54-4.2-.55C513,368,515.52,371,518,374.74Z" transform="translate(-299.8 -209.18)"/><path class="cls-21" d="M621.77,321.86c-6.11,1.52-8.39-1.65-10.24-5.48-2.19-4.56,1.21-7.73,3.19-11,2.09-3.41,5.58-1.57,8.67-1.2,2.63.31,2.57,1.84,2.21,3.6s-1.61,1.46-2.62.78c-2.46-1.66-4.87-5-6.94.41-1.63,4.28-2.63,8.39,2.19,11.37A30.63,30.63,0,0,0,621.77,321.86Z" transform="translate(-299.8 -209.18)"/><path class="cls-21" d="M639.73,304.77c3.5,5.1,0,11,3.4,15.85.81,1.13.07,1.56-.79,1.7-1.11.18-3.05.21-2.84-1C640.39,315.79,639.48,310.26,639.73,304.77Z" transform="translate(-299.8 -209.18)"/><path class="cls-5" d="M662.44,376.73l2.6-.6,4,.36,1.78.15c.13,12.2.37,24.39.38,36.59q.1,101.19.11,202.39h-3.68a11.25,11.25,0,0,0,0-1.64q.06-114.29.07-228.56c0-2.52,1.55-6.23-3.17-6.72a16.09,16.09,0,0,0-1.7-.2Z" transform="translate(-299.8 -209.18)"/><path class="cls-17" d="M505.35,575.41c0,10.48-.17,21,.07,31.43.11,4.53-1.46,6.11-6,6-16.29-.19-32.59-.24-48.87,0-5.23.09-6.27-2.11-6.23-6.74q.27-30.55,0-61.12c-.05-4.92,1.5-6.59,6.46-6.51,16,.25,32,.32,48,0,5.7-.12,6.82,2.18,6.67,7.21C505.13,555.61,505.35,565.51,505.35,575.41Zm-20.82-4.94c-10.87,6.47,5.3,7.68,1.8,13,4.91-4.61,1.57-9.43,1.68-14,0-1.16.59-3.39-1.75-2.57-.9.32-1.2,2.36-1.78,3.62Z" transform="translate(-299.8 -209.18)"/><path class="cls-17" d="M444.4,415.24c0-9.87.18-19.73-.07-29.59-.12-4.57,1.56-6,6-6,16.23.19,32.47.23,48.71,0,5-.08,6.4,1.77,6.35,6.57q-.3,30,0,60c.05,4.57-1.56,6-6,6-16.24-.19-32.48-.23-48.71,0-5,.08-6.5-1.76-6.36-6.57C444.6,435.54,444.4,425.39,444.4,415.24Z" transform="translate(-299.8 -209.18)"/><path class="cls-17" d="M444.4,496.08c0-10.15.13-20.31,0-30.46-.08-4.06,1.32-5.65,5.5-5.62,16.81.16,33.63.13,50.45,0,3.71,0,5.1,1.4,5.09,5.12q-.15,30.89,0,61.78c0,4.06-1.32,5.65-5.49,5.61q-24.8-.22-49.58,0c-4.52.05-6.11-1.5-6-6C444.57,516.39,444.4,506.23,444.4,496.08Z" transform="translate(-299.8 -209.18)"/><path class="cls-22" d="M517.85,455.77l3.6-2.48H582l3.68,1.46q0,40.35.08,80.69l-68.12-.12Q517.72,495.54,517.85,455.77Zm17.55,47.85c9.52.71,12.35.49,12.55-2.15.36-4.78.58-10.31-1.47-14.32s-7.46-2-11.27-1.73C537.55,491.77,537.2,497.68,535.4,503.62Z" transform="translate(-299.8 -209.18)"/><path class="cls-4" d="M517.6,535.32l68.12.12.36,78.74c-.13.67-.27,1.35-.41,2l-67.9,0Q517.68,575.76,517.6,535.32Zm3.65,40.37c0,10.48.11,21,0,31.43-.07,4,1.07,5.79,5.38,5.75,16.87-.16,33.74-.13,50.61,0,3.81,0,5-1.56,5-5.22-.09-21.24-.13-42.48,0-63.72,0-4.44-2-5.33-5.83-5.3-16.58.11-33.16.14-49.74,0-4.24,0-5.54,1.64-5.47,5.68C521.37,554.74,521.25,565.22,521.25,575.69Z" transform="translate(-299.8 -209.18)"/><path class="cls-17" d="M505.35,675.79c0,9.86-.23,19.73.09,29.58.17,5.12-1.16,7.22-6.72,7.11-15.94-.33-31.89-.26-47.84,0-4.8.07-6.63-1.3-6.58-6.36q.36-30.9,0-61.79c-.07-5.28,2.15-6.25,6.73-6.19,15.66.19,31.33.29,47-.05,5.6-.11,7.7,1.43,7.46,7.27C505,655.47,505.35,665.63,505.35,675.79Z" transform="translate(-299.8 -209.18)"/><path class="cls-18" d="M521.24,621.37l59.87-.31c2.92,0,5.77-.42,5.91,4.12.15,4.92-2.75,4.81-6.14,4.79-19.38-.13-38.76-.19-58.14-.28,0-1.93.82-4.07-1.47-5.37Z" transform="translate(-299.8 -209.18)"/><path class="cls-19" d="M521.27,624.32c2.29,1.3,1.5,3.44,1.47,5.37l-1.92-.23Z" transform="translate(-299.8 -209.18)"/><path class="cls-20" d="M552.85,676.51c-2.62.6-3.62,2.4-5,3.81-3.33,3.31-7.85,2.56-11.49,1.57-3.92-1.07-.32-4.88-1-7.44-.57-2.17.3-4.73-.3-6.89-1.26-4.52,1.17-4.7,4.47-4.6,3.83.13,9.64.79,7.85,5C544.34,675,550.09,673.9,552.85,676.51Z" transform="translate(-299.8 -209.18)"/><path class="cls-21" d="M558,665.51c5.37,4.14,9.73,7.67,5.21,14.22C565.74,673.61,556.45,672.27,558,665.51Z" transform="translate(-299.8 -209.18)"/><path class="cls-18" d="M661,621.58a5.73,5.73,0,0,0-1.72,6.21l-.24,2.06c-19.11,0-38.22.1-57.33.06-2.9,0-6.59,1.25-6.77-4.09-.2-5.8,3.69-4.73,7-4.75q28.65-.23,57.3-.36Z" transform="translate(-299.8 -209.18)"/><path class="cls-19" d="M659.07,629.85l.24-2.06c.74.8,1.49,1.6,2.23,2.38C660.58,631.15,659.79,630.76,659.07,629.85Z" transform="translate(-299.8 -209.18)"/><path class="cls-20" d="M709.85,676.22a16,16,0,0,0-9.27,4.17c-3,2.78-7.32,2.65-10.72,1.46-3.72-1.31,0-5-.94-7.54a4.69,4.69,0,0,1,0-3.4c1.34-2.5-4-7.41,2.68-7.8,5.54-.32,11.83-.83,12.54,6.9C704.52,674,706.38,675.37,709.85,676.22ZM692,672.16c1.18,2.61-2.12,7.81,3.51,7.8,3.8,0,5.51-3.63,5.39-7.54s-1.86-7.18-5.84-7.15C690.55,665.31,692.85,669.58,692,672.16Z" transform="translate(-299.8 -209.18)"/><path class="cls-21" d="M720.45,679.66c.81-4.41-2.31-6.75-4.91-9.2-1.35-1.28-1.48-2.58-.41-3.64,1.74-1.71,2.11.85,3,1.42C722.71,671.07,723.54,675,720.45,679.66Z" transform="translate(-299.8 -209.18)"/><path class="cls-18" d="M674.91,629.56c2.13-2.71,2.18-5.41,0-8.11,20.24-.13,40.48-.21,60.72-.42,3.58,0,5.26,1,5.16,4.9s-2.32,4-5.14,4Q705.27,629.73,674.91,629.56Z" transform="translate(-299.8 -209.18)"/><path class="cls-11" d="M662.83,378.5c.57,0,1.14.1,1.7.19q-.1,114.26-.16,228.51c0,2.61-1.28,6.2,3.26,6.78a11.36,11.36,0,0,1,0,1.65l-5.23.12q.08-113.4.16-226.8C662.59,385.47,662.75,382,662.83,378.5Z" transform="translate(-299.8 -209.18)"/><path class="cls-16" d="M659,675.48c0,10.19-.23,20.38.09,30.55.16,5.05-1.69,6.49-6.54,6.42q-24-.36-48,0c-4.84.07-6.61-1.37-6.56-6.4q.35-31,0-62c0-4.63,1.66-6,6.09-6,16.29.18,32.59.25,48.87,0,5.37-.1,6.2,2.33,6.1,6.84C658.83,655.11,659,665.3,659,675.48Zm-33.36-9.91c-3.53-1.29-7.09-4.43-11-.71-2.93,2.83-5.46,6.13-3.4,10.65,1.85,4.07,4.08,7.72,11.35,5.8-9.4-1.7-8.48-7.34-7-12.8C617.49,661.65,622.24,668,625.62,665.57Zm17.89-2.22c-6.77,1-8.3,3.48-3.8,8.29,3.67,3.93,5.57,7.84-2.47,10,8.13-.94,10.53-5.71,5.87-11.25C640.6,667.39,638.89,665.75,643.51,663.35Z" transform="translate(-299.8 -209.18)"/><path class="cls-17" d="M691.92,313.07c1-2.89-1.38-7.53,2.88-7.34,3.82.17,5.88,4.32,6,8.25.09,3.55-2.15,6.59-5.68,6.33C689.94,319.92,693.45,315.14,691.92,313.07Z" transform="translate(-299.8 -209.18)"/><path class="cls-16" d="M735.82,415.62c0,10.19-.18,20.38.07,30.56.11,4.53-1.45,6.11-6,6.05-16.29-.19-32.58-.24-48.87,0-5.23.09-6.26-2.1-6.21-6.74.18-19.78.21-39.57,0-59.36,0-4.91,1.48-6.59,6.45-6.51,16,.24,32,.32,48,0,5.7-.13,6.83,2.17,6.67,7.2C735.6,396.41,735.82,406,735.82,415.62Zm-25.89,4c-3.71-.75-5.06-2.71-6.11-6.27-2-6.59-8.18-5.77-13.14-5s-.7,5.15-1.74,7.72c-.5,1.24.25,3-.17,4.28-1.87,5.7,1.84,4.93,5.41,5.32C700.6,426.35,703.45,418.74,709.93,419.58Z" transform="translate(-299.8 -209.18)"/><path class="cls-16" d="M674.89,575.71c0-10.18.19-20.37-.09-30.55-.13-4.8,1.28-6.69,6.35-6.6,16.29.25,32.58.22,48.87,0,4.71-.06,5.9,1.81,5.87,6.19q-.25,31,0,62c0,4.42-1.24,6.21-5.91,6.15-16.28-.21-32.58-.24-48.86,0-5.12.08-6.45-1.88-6.32-6.64C675.08,596.09,674.89,585.9,674.89,575.71Zm29.53,1.68c6,.52,13.32-2.74,16,7.68,2.85-7.47,1.91-13.12.08-21.08-3.54,8.66-7.76,13.63-16,11.72.48-7.92-3.49-10.58-11.09-10.58-9.37,0-2.79,6.59-4.46,9.69a3.41,3.41,0,0,0,0,2.55c.94,2.25-2.61,5.6.94,6.72a14.53,14.53,0,0,0,10.19-.44C702.59,582.49,703,579.54,704.42,577.39Z" transform="translate(-299.8 -209.18)"/><path class="cls-16" d="M674.89,496c0-9.61.2-19.21-.09-28.81-.15-5,.84-7.38,6.61-7.25,16,.36,32,.27,48,0,4.91-.07,6.56,1.5,6.5,6.47-.23,19.78-.19,39.57,0,59.36,0,4.58-.88,6.87-6.17,6.78-16.28-.27-32.58-.21-48.87,0-4.49.06-6.16-1.42-6-6C675.07,516.37,674.89,506.18,674.89,496Zm35,2.11c-3.47-.84-5.36-2.18-5.72-6.2-.7-7.77-7-7.22-12.52-6.91-6.64.38-1.34,5.3-2.68,7.79a4.71,4.71,0,0,0,0,3.41c.92,2.54-2.78,6.23.94,7.54,3.4,1.19,7.74,1.32,10.72-1.46A16,16,0,0,1,709.85,498.11Z" transform="translate(-299.8 -209.18)"/><path class="cls-16" d="M659,416.83c0,9.6-.2,19.21.08,28.8.14,4.78-1.22,6.71-6.32,6.63-16.29-.27-32.58-.23-48.87,0-4.7.06-5.91-1.78-5.87-6.17q.25-30.12,0-60.24c0-4.39,1.18-6.23,5.87-6.17,16.58.21,33.16.18,49.74,0,4.28,0,5.49,1.73,5.42,5.72C658.86,395.87,659,406.35,659,416.83ZM625.61,411c-3.49-2.16-7.15-4.54-11-1-2.51,2.32-5,5.08-3.28,9,1.77,4.11,4.17,7.47,10.54,6-5.69-2.16-8.3-4.94-6.68-10.73C617.32,406.74,622.12,412.78,625.61,411Z" transform="translate(-299.8 -209.18)"/><path class="cls-16" d="M659,576.46c0,9.89-.17,19.79.07,29.68.12,4.59-.88,6.86-6.17,6.77-16.28-.27-32.58-.21-48.86,0-4.52.05-6.07-1.46-6-6,.18-20.66.23-41.32,0-62-.06-5.15,1.88-6.39,6.63-6.32q24,.33,48,0c4.93-.08,6.63,1.51,6.48,6.48C658.76,555.5,659,566,659,576.46Zm-16.24,6.6c4.33-6,2.06-11.14,2.15-16,0-1.09-.17-2.62-1.62-2.57a3.36,3.36,0,0,0-2.6,1.63c-1.54,5.57-5.93,7.69-12.37,9.19C634.93,576.44,642,573,642.74,583.06ZM625.56,566.2c-3.72-1.9-7.5-4.53-11.55-.33-3.41,3.54-4.48,7.47-1.08,11.49,2.15,2.54,3.59,7.81,9.53,3.14-6.15-2-9.37-5.16-7-11.57C617.9,562.27,622.2,568.37,625.56,566.2Z" transform="translate(-299.8 -209.18)"/><path class="cls-16" d="M598.07,495.42c0-9.61.2-19.22-.08-28.81-.14-4.76,1.18-6.73,6.3-6.64,16.29.26,32.58.22,48.87,0,4.68-.06,5.93,1.75,5.89,6.16q-.25,30.11,0,60.23c0,4.38-1.15,6.24-5.86,6.18-16.29-.21-32.58-.24-48.87,0-5.09.08-6.47-1.82-6.34-6.61C598.26,515.79,598.07,505.6,598.07,495.42Zm24.65,8.31c-9.41-2.76-9.09-8.64-6.71-14.06,2.72-6.2,6.3.2,9.68.53.55-6.73-5-5.14-7.62-4.91-5.76.48-7.31,5.95-7,10.32C611.35,500.64,614.5,504.67,622.72,503.73Zm13.5-.17c3.84,1,8.57.85,8.18-3.29-.45-4.78,2.25-10.18-1.69-14.48a4,4,0,0,0-2.41-.73c-1.12-.08-2.8-.23-2.89,1.11-.12,1.69,1.87.44,2.51,1.05C643,490.15,640.53,501.37,636.22,503.56Z" transform="translate(-299.8 -209.18)"/><path class="cls-15" d="M594.14,614.13c-2.35-2.44-1.41-5.51-1.41-8.31q-.08-109.49,0-219c0-2.77-1.06-5.87,1.46-8.25Q594.16,496.38,594.14,614.13Z" transform="translate(-299.8 -209.18)"/><path class="cls-16" d="M521.42,451.5c-.06-21.82,0-43.65-.27-65.47-.07-5,1.71-6.47,6.55-6.4q24,.36,48,0c4.84-.07,6.63,1.35,6.56,6.4-.28,21.82-.21,43.64-.27,65.47Zm31.41-31.81c-2-2.2-8.17-1.23-5.07-7.34.82-1.62-1.88-3.27-3.81-4-6.08-2.21-8.86.5-8.58,9.19.08,2.56-2.78,6.53.69,7.55,3.83,1.11,8.77,2.08,12.07-1.91A11.7,11.7,0,0,1,552.83,419.69Z" transform="translate(-299.8 -209.18)"/><path class="cls-15" d="M586.08,614.18l-.36-78.74q0-40.35-.08-80.69.21-38.12.41-76.21c4.49.74,3.09,4.33,3.1,6.92q.09,110.87,0,221.72C589.15,609.81,590.46,613.33,586.08,614.18Z" transform="translate(-299.8 -209.18)"/><path class="cls-12" d="M521.42,451.5H582l0,1.79H521.45Z" transform="translate(-299.8 -209.18)"/><path class="cls-15" d="M667.63,614c-4.54-.58-3.26-4.17-3.26-6.78q0-114.26.16-228.51c4.72.5,3.17,4.21,3.17,6.73Q667.75,499.71,667.63,614Z" transform="translate(-299.8 -209.18)"/><path class="cls-20" d="M484.48,570.51c.58-1.26.88-3.3,1.78-3.62,2.34-.82,1.77,1.41,1.75,2.57-.11,4.55,3.23,9.37-1.68,14,3.5-5.29-12.67-6.5-1.8-13,.48,1.52-1.7,3.09.08,4.56a.85.85,0,0,0,.79-.19C486.59,573.1,486.1,571.67,484.48,570.51Z" transform="translate(-299.8 -209.18)"/><path class="cls-20" d="M535.4,503.62c1.8-5.94,2.15-11.85-.19-18.2,3.81-.25,9.15-2.4,11.27,1.73s1.83,9.54,1.47,14.32C547.75,504.11,544.92,504.33,535.4,503.62Z" transform="translate(-299.8 -209.18)"/><path class="cls-16" d="M521.25,575.69c0-10.47.12-21-.06-31.42-.07-4,1.23-5.72,5.47-5.68,16.58.16,33.16.13,49.74,0,3.85,0,5.86.86,5.83,5.3-.16,21.24-.12,42.48,0,63.72,0,3.66-1.2,5.24-5,5.22-16.87-.11-33.74-.14-50.61,0-4.31,0-5.45-1.8-5.38-5.75C521.36,596.65,521.25,586.17,521.25,575.69ZM549,574c-.77-.84-2.36-2-2.19-2.47,2.54-7.46-2.06-7.79-7.44-8.1-8.12-.48-3.13,5.31-4.08,8.19a8.88,8.88,0,0,0-.07,4.29c.44,2.21-3.6,5.41.7,6.45,3.4.82,7.56,1.89,10.6-1.15,1.33-1.33,1.77-3.57,2.61-5.4,5.57.09,12.07-2.14,14.17,7.49,2.92-7.47,1.8-13.11.2-20.57C559.5,569.26,557.08,575.87,549,574Z" transform="translate(-299.8 -209.18)"/><path class="cls-17" d="M692,672.16c.82-2.58-1.48-6.85,3.06-6.89,4,0,5.73,3.25,5.84,7.15s-1.59,7.54-5.39,7.54C689.91,680,693.21,674.77,692,672.16Z" transform="translate(-299.8 -209.18)"/><path class="cls-21" d="M625.62,665.57c-3.38,2.4-8.13-3.92-10,2.94-1.48,5.46-2.4,11.1,7,12.8-7.27,1.92-9.5-1.73-11.35-5.8-2.06-4.52.47-7.82,3.4-10.65C618.53,661.14,622.09,664.28,625.62,665.57Z" transform="translate(-299.8 -209.18)"/><path class="cls-21" d="M643.51,663.35c-4.62,2.4-2.91,4-.4,7,4.66,5.54,2.26,10.31-5.87,11.25,8-2.14,6.14-6,2.47-10C635.21,666.83,636.74,664.34,643.51,663.35Z" transform="translate(-299.8 -209.18)"/><path class="cls-20" d="M709.93,419.58c-6.48-.84-9.33,6.77-15.75,6.07-3.57-.39-7.28.38-5.41-5.32.42-1.31-.33-3,.17-4.28,1-2.57-3.32-6.91,1.74-7.72s11.19-1.61,13.14,5C704.87,416.87,706.22,418.83,709.93,419.58ZM694.66,410c-4.21,2-2,5.94-2.41,9-.29,2.34.12,5.18,3.46,4.42a6.27,6.27,0,0,0,5.11-7C700.55,412.87,698.41,410.77,694.66,410Z" transform="translate(-299.8 -209.18)"/><path class="cls-20" d="M704.42,577.39c-1.39,2.15-1.83,5.1-4.39,6.26a14.53,14.53,0,0,1-10.19.44c-3.55-1.12,0-4.47-.94-6.72a3.41,3.41,0,0,1,0-2.55c1.67-3.1-4.91-9.69,4.46-9.69,7.6,0,11.57,2.66,11.09,10.58C704.43,576.27,704.42,576.83,704.42,577.39Zm-12.48-2.83c1.48,2.17-1.89,7.23,2.7,7.5,3.92.23,5.85-4.22,6.13-8.06.25-3.57-2-6.49-5.5-6.54C690.58,567.41,692.84,571.67,691.94,574.56Z" transform="translate(-299.8 -209.18)"/><path class="cls-21" d="M704.42,577.39c0-.56,0-1.12,0-1.68,8.28,1.91,12.5-3.06,16-11.72,1.83,8,2.77,13.61-.08,21.08C717.74,574.65,710.39,577.91,704.42,577.39Z" transform="translate(-299.8 -209.18)"/><path class="cls-20" d="M709.85,498.11a16,16,0,0,0-9.27,4.17c-3,2.78-7.32,2.65-10.72,1.46-3.72-1.31,0-5-.94-7.54a4.71,4.71,0,0,1,0-3.41c1.34-2.49-4-7.41,2.68-7.79,5.53-.31,11.82-.86,12.52,6.91C704.49,495.93,706.38,497.27,709.85,498.11ZM695,486.77c-4.56,1.7-2.52,5.73-2.67,8.69-.11,2.42-1.6,6.58,3,6.47,3.46-.07,5.63-2.92,5.48-6.44C700.62,491.74,699.47,488.21,695,486.77Z" transform="translate(-299.8 -209.18)"/><path class="cls-21" d="M625.61,411c-3.49,1.81-8.29-4.23-10.4,3.25-1.62,5.79,1,8.57,6.68,10.73-6.37,1.47-8.77-1.89-10.54-6-1.68-3.91.77-6.67,3.28-9C618.46,406.43,622.12,408.81,625.61,411Z" transform="translate(-299.8 -209.18)"/><path class="cls-21" d="M642.74,583.06c-.77-10.07-7.81-6.62-14.44-7.8,6.44-1.5,10.83-3.62,12.37-9.19a3.36,3.36,0,0,1,2.6-1.63c1.45-.05,1.63,1.48,1.62,2.57C644.8,571.92,647.07,577.07,642.74,583.06Z" transform="translate(-299.8 -209.18)"/><path class="cls-21" d="M625.56,566.2c-3.36,2.17-7.66-3.93-10.11,2.73-2.36,6.41.86,9.57,7,11.57-5.94,4.67-7.38-.6-9.53-3.14-3.4-4-2.33-8,1.08-11.49C618.06,561.67,621.84,564.3,625.56,566.2Z" transform="translate(-299.8 -209.18)"/><path class="cls-21" d="M622.72,503.73c-8.22.94-11.37-3.09-11.69-8.12-.27-4.37,1.28-9.84,7-10.32,2.67-.23,8.17-1.82,7.62,4.91-3.38-.33-7-6.73-9.68-.53C613.63,495.09,613.31,501,622.72,503.73Z" transform="translate(-299.8 -209.18)"/><path class="cls-21" d="M636.22,503.56c4.31-2.19,6.77-13.41,3.7-16.34-.64-.61-2.63.64-2.51-1.05.09-1.34,1.77-1.19,2.89-1.11a4,4,0,0,1,2.41.73c3.94,4.3,1.24,9.7,1.69,14.48C644.79,504.41,640.06,504.54,636.22,503.56Z" transform="translate(-299.8 -209.18)"/><path class="cls-20" d="M552.83,419.69a11.7,11.7,0,0,0-4.7,3.52c-3.3,4-8.24,3-12.07,1.91-3.47-1-.61-5-.69-7.55-.28-8.69,2.5-11.4,8.58-9.19,1.93.7,4.63,2.35,3.81,4C544.66,418.46,550.81,417.49,552.83,419.69Z" transform="translate(-299.8 -209.18)"/><path class="cls-17" d="M484.48,570.51c1.62,1.16,2.11,2.59.92,4.33a.85.85,0,0,1-.79.19c-1.78-1.47.4-3-.08-4.56Z" transform="translate(-299.8 -209.18)"/><path class="cls-20" d="M549.13,575.78c-.84,1.83-1.28,4.07-2.61,5.4-3,3-7.2,2-10.6,1.15-4.3-1-.26-4.24-.7-6.45a8.88,8.88,0,0,1,.07-4.29c1-2.88-4-8.67,4.08-8.19,5.38.31,10,.64,7.44,8.1-.17.52,1.42,1.63,2.19,2.47C547.81,574.66,548.06,575.25,549.13,575.78Z" transform="translate(-299.8 -209.18)"/><path class="cls-21" d="M549.13,575.78c-1.07-.53-1.32-1.12-.13-1.81,8.08,1.9,10.5-4.71,14.5-11.27,1.6,7.46,2.72,13.1-.2,20.57C561.2,573.64,554.7,575.87,549.13,575.78Z" transform="translate(-299.8 -209.18)"/><path class="cls-17" d="M694.66,410c3.75.78,5.89,2.88,6.16,6.42a6.27,6.27,0,0,1-5.11,7c-3.34.76-3.75-2.08-3.46-4.42C692.64,415.93,690.45,412,694.66,410Z" transform="translate(-299.8 -209.18)"/><path class="cls-17" d="M691.94,574.56c.9-2.89-1.36-7.15,3.33-7.1,3.53,0,5.75,3,5.5,6.54-.28,3.84-2.21,8.29-6.13,8.06C690.05,581.79,693.42,576.73,691.94,574.56Z" transform="translate(-299.8 -209.18)"/><path class="cls-17" d="M695,486.77c4.5,1.44,5.65,5,5.81,8.72.15,3.52-2,6.37-5.48,6.44-4.6.11-3.11-4.05-3-6.47C692.45,492.5,690.41,488.47,695,486.77Z" transform="translate(-299.8 -209.18)"/><ellipse class="cls-23" cx="213.2" cy="156.32" rx="11" ry="10.5"/><ellipse class="cls-23" cx="368.2" cy="156.32" rx="11" ry="10.5"/><ellipse class="cls-23" cx="368.2" cy="417.32" rx="11" ry="10.5"/><ellipse class="cls-23" cx="213.2" cy="417.32" rx="11" ry="10.5"/><text class="cls-24" transform="translate(207.6 162.94)">1</text><text class="cls-24" transform="translate(362.6 162.94)">2</text><text class="cls-24" transform="translate(362.6 422.94)">4</text><text class="cls-24" transform="translate(207.6 422.94)">3</text><rect class="cls-16" x="228.2" y="88.82" width="43" height="33"/><rect class="cls-16" x="311.2" y="88.82" width="34" height="34"/><rect class="cls-16" x="382.2" y="88.82" width="46" height="37"/><rect class="cls-16" x="235.2" y="191.82" width="29" height="29"/><rect class="cls-16" x="311.2" y="183.82" width="34" height="45"/><rect class="cls-16" x="388.2" y="191.82" width="30" height="30"/><rect class="cls-16" x="311.2" y="270.82" width="39" height="40"/><rect class="cls-16" x="385.2" y="270.82" width="33" height="40"/><rect class="cls-16" x="228.2" y="345.82" width="43" height="43"/><rect class="cls-16" x="161.2" y="354.82" width="38" height="38"/><rect class="cls-16" x="308.2" y="345.82" width="43" height="43"/><rect class="cls-16" x="385.2" y="350.82" width="46" height="41"/><rect class="cls-16" x="228.2" y="448.82" width="43" height="43"/><rect class="cls-16" x="308.2" y="445.82" width="43" height="43"/><rect class="cls-16" x="388.2" y="445.82" width="41" height="41"/><rect class="cls-22" x="228.2" y="265.82" width="45" height="45"/><text class="cls-1" transform="translate(149.88 115.34)"><tspan class="cls-2">A</tspan><tspan x="21.92" y="0">-1</tspan></text><text class="cls-1" transform="translate(149.88 217.34)"><tspan class="cls-2">A</tspan><tspan x="21.92" y="0">-2</tspan></text><text class="cls-1" transform="translate(149.88 297.34)"><tspan class="cls-2">A</tspan><tspan x="21.92" y="0">-3</tspan></text><text class="cls-1" transform="translate(149.88 376.34)"><tspan class="cls-2">A</tspan><tspan x="21.92" y="0">-4</tspan></text><text class="cls-1" transform="translate(228.88 115.34)"><tspan class="cls-25">B</tspan><tspan x="19.69" y="0">-1</tspan></text><text class="cls-1" transform="translate(304.88 115.34)">C-1</text><text class="cls-1" transform="translate(304.88 217.34)">C-2</text><text class="cls-1" transform="translate(304.88 297.34)">C-3</text><text class="cls-1" transform="translate(304.88 377.34)">C-4</text><text class="cls-1" transform="translate(379.88 115.34)"><tspan class="cls-26">D</tspan><tspan x="24.48" y="0">-1</tspan></text><text class="cls-1" transform="translate(379.88 219.34)"><tspan class="cls-26">D</tspan><tspan x="24.48" y="0">-2</tspan></text><text class="cls-1" transform="translate(379.88 297.34)"><tspan class="cls-26">D</tspan><tspan x="24.48" y="0">-3</tspan></text><text class="cls-1" transform="translate(379.88 376.34)"><tspan class="cls-26">D</tspan><tspan x="24.48" y="0">-4</tspan></text><text class="cls-1" transform="translate(379.88 475.34)"><tspan class="cls-26">D</tspan><tspan x="24.48" y="0">-5</tspan></text><text class="cls-1" transform="translate(302.88 474.34)">C-5</text><text class="cls-1" transform="translate(226.88 476.34)"><tspan class="cls-25">B</tspan><tspan x="19.69" y="0">-5</tspan></text><text class="cls-1" transform="translate(226.88 378.34)"><tspan class="cls-25">B</tspan><tspan x="19.69" y="0">-4</tspan></text><text class="cls-27" transform="translate(227.88 298.34)"><tspan class="cls-25">B</tspan><tspan x="19.69" y="0">-3</tspan></text><text class="cls-1" transform="translate(226.88 216.34)"><tspan class="cls-25">B</tspan><tspan x="19.69" y="0">-2</tspan></text><text class="cls-1" transform="translate(148.88 476.34)"><tspan class="cls-2">A</tspan><tspan x="21.92" y="0">-5</tspan></text><path class="cls-28" d="M435.11,715.21l-47.11,0q0-213.47-.2-426.94c0-7.79,2.13-10.14,9.8-9.66,10.43.65,20.94.29,31.41.1,4.43-.08,6.59,1.46,6.14,6-.11,1.16,0,2.33,0,3.49ZM419.52,504.76c0-8.05-5.16-11-11.52-10.93s-11.1,3.45-11.3,10.71c-.12,4.59,0,9.18,0,14.25,6.33-4.14,12.81-1.7,19-2.37,1.73-.19,3.61-.08,3.7-2.52s-1.49-2.86-3.41-2.87c-3.48,0-7,.22-10.43-.11-2.69-.26-7.06,1.95-7.05-3.56,0-4.15,1.86-7.41,6.08-8.44C410.66,497.41,416,498.68,419.52,504.76Zm1.48,75c-6.09,3.1-13.75-3.06-17.15,5.39-.94,2.34-1,6.38,3.87,6.7.43-2.71-4.72-4.3-1.31-6.66,2.76-1.91,2.91,2.57,5.12,3.23,2,.6,1.22,4.55,4.44,5C418.52,589.7,419.46,585.35,421,579.76ZM403.78,565.3c3.11-2.16,5.27-4.17,7.83-5.28s3.6-4.55,7.06-4.49,2.67-3,2-4.37c-1.28-2.68-2.69-.2-3.9.57-3.6,2.31-6.88,5.4-10.78,6.88C401.89,560.15,404,562.52,403.78,565.3Zm-5-118.66c7.73,11.3,11.45,11.61,18.76,1.53C410.93,449.12,404.62,450.9,398.75,446.64Zm20.64,159.81c-6.54,7.52-14,4.35-21.94,3.67C408.33,618.57,415.81,617.47,419.39,606.45Zm-20-218.18c7.08,3.87,13.32,2,19.55-.67C412.73,389.75,406.25,382.18,399.42,388.27Zm20.68,49.18c-8.3-9.87-14.06-10-21.68-1.64C405.49,434,411.89,432.83,420.1,437.45Zm-1.69,37.05H399.47C405.27,478.37,411.06,479.79,418.41,474.5Zm-19.19-7.81c5.12-1.94,10.67,0,17.3-1.76C409.31,460.68,404.1,462.22,399.22,466.69Z" transform="translate(-299.8 -209.18)"/><rect class="cls-29" x="92.2" y="169.82" width="32" height="248"/><path class="cls-30" d="M871.51,714.55l-123.86,0q0-213.89-.24-427.77c0-7.12,2.25-8.75,9-8.69q53.24.43,106.47,0c6.76-.06,8.92,1.68,8.91,8.73Q871.41,500.67,871.51,714.55ZM787.79,430.17c-3.14.67-2.35,3.28-1.59,4.7,1.4,2.6,2.43-.79,3.91-.77,5.44.09,10.88-.08,16.32-.16,1.08.66,3,2.77,3.16,1.62.77-6.4,2.33-13.11-2-19-.4,5.09,5.15,11.06-3,14.55l-14.36.05Zm-.33,17.33c-5.28,3.65-3.41,7.11.29,10.51,6,6.05,12.68,3.92,19.38,1.72,3.86-2.1,2.39-5,2.45-9.53-2.77,2.83-2.68,4.48-2.51,6.14-5.16,2.73-10.58,1.63-16,1.08-1.65-2.31-4.55-4.34-1.74-7.66,2.89-1.12,5.74-2.45,9-1.71,1.59,1.55,3.22,1.55,4.9.13,1.39-1.05,2-2-.15-2.94C797.38,442.66,792.41,444.92,787.46,447.5ZM807.19,532c-2.17,3.72-6.06,5.64-9.55,7.17-5,2.19-5.93,4.91-4.18,9.73,5.23-3.68,8.19-9.72,14.25-11.24,4.35-1.09,1.8-4.12,2.61-6.17,1-5.93-1.79-11.69.32-19.28-5.39,5.9-12.1.76-16.24,5.59-1.24,1.44-4,2.48-2.56,4.83,1.55,2.54,3.41-1.35,4-.76,3.48,3.41,6.82-2.56,10.8.33C802.44,525.8,804,529,807.19,532Zm1.9-49.57c-3.41-4.86-7.89-7.92-14-6.42-4.9,1.22-9.26,3.64-9,9.88-2.9,5.23-3.08,10.44.06,15.65,4.46-5.16,10.48-2.5,15.83-3.22,2.64-.35,6.77,1.79,6.69-3.64C811.58,490.68,811,486.57,809.09,482.42ZM805.83,578c-2.76-6.69,5.33-9.61,3.3-16.29-5.17,3-12.25-2.25-15.8,4.38-1.67,3.12-.58,7.14,2.91,9.37,4.41-3.23-5.49-6.71,0-8.2,3.25-.88,6,4.13,6.7,8.34C803,576.17,804.13,576.61,805.83,578Zm-17.64,13.53c2.53,5.41,7.07,7.29,12.65,6,3.86-.87,7.3-2.77,8.25-9.41C801.94,594.93,795.39,594,788.19,591.48Zm1.19-211c5.13,3.3,13.6,3,18.72-.66C793.27,377.93,793.27,377.93,789.38,380.48Z" transform="translate(-299.8 -209.18)"/><rect class="cls-29" x="476.2" y="149.82" width="43" height="260"/><path class="cls-22" d="M463.09,912.27c0-8.14.18-16.28-.08-24.41-.13-4.07,1-5.62,5.33-5.54q20,.34,40.08,0c4.18-.06,5.49,1.28,5.44,5.47q-.32,24.84,0,49.69c0,4.09-1.08,5.57-5.35,5.49q-20-.36-40.08,0c-4.18.07-5.55-1.24-5.42-5.43C463.28,929.13,463.09,920.69,463.09,912.27Z" transform="translate(-299.8 -209.18)"/><path class="cls-18" d="M482,987H413c-3.48,0-7.3.71-7.07-4.9.19-4.7,2.16-6.4,7-6.39q69.38.24,138.76,0c5.19,0,6.45,2.47,6.6,6.78.17,5-3.28,4.52-6.53,4.52Q516.85,987,482,987Z" transform="translate(-299.8 -209.18)"/><path class="cls-4" d="M514.08,837.78c0,8.13-.23,16.26.09,24.38.18,4.73-1,6.71-6.21,6.57-13-.34-26.12-.33-39.17,0-5.15.13-6.3-1.81-6.24-6.56.24-16.54.21-33.09,0-49.64-.05-4.36,1-6.17,5.78-6.07q20,.43,40,0c4.76-.1,5.91,1.7,5.77,6.06C513.89,820.93,514.08,829.36,514.08,837.78Zm-2.45,0c0-7.25-.26-14.51.09-21.74.24-5.07-1.74-6.49-6.56-6.37-11.3.28-22.61.23-33.92,0-4.33-.08-6.23,1.11-6.16,5.84q.36,22.17,0,44.36c-.08,4.69,1.7,5.95,6.09,5.87,11.59-.22,23.19-.27,34.78,0,4.85.12,5.88-2,5.74-6.24C511.46,852.26,511.63,845,511.63,837.75Z" transform="translate(-299.8 -209.18)"/><path class="cls-17" d="M511.63,837.75c0,7.25-.17,14.51.06,21.75.14,4.25-.89,6.36-5.74,6.24-11.59-.28-23.19-.23-34.78,0-4.39.08-6.17-1.18-6.09-5.87q.36-22.17,0-44.36c-.07-4.73,1.83-5.92,6.16-5.84,11.31.21,22.62.26,33.92,0,4.82-.12,6.8,1.3,6.56,6.37C511.37,823.24,511.63,830.5,511.63,837.75Z" transform="translate(-299.8 -209.18)"/><path class="cls-30" d="M586.21,209.82H860.12c11.11,0,11.12,0,11.12,11.48,0,16.29-.43,32.6.19,48.86.3,7.88-2.25,9.66-9.82,9.65q-246.43-.33-492.87-.17c-19.78,0-39.56-.34-59.32.18-7.54.19-9.27-2.46-9.09-9.48.45-17.15.5-34.33,0-51.47-.23-7.4,2.22-9.21,9.36-9.19Q448,210,586.21,209.82ZM455.94,257.25c1,1.27,2.43,1.86,3.6,1,2.29-1.76-.13-1.74-1.07-2.45-1.83-1.4-.11-4.5-2.54-5.73a1,1,0,0,1-.37-1.2q0-4,0-8c-.52-1.9,2.27-3.46.63-5.53C448.34,241.21,448.26,249.36,455.94,257.25Zm181.31-14.09c-6.14.45-4.57,5-4,8.35,1,5.9,5,8,10.77,7.07l2.76-.08h7.83c-.6-1.19-.86-1.59-1-2-1.63-4.38-2.26-8.88.48-12.93.62-.91,3.57-1.25,4.75-.6,4.55,2.52,1.29,7.3,2.62,10.84.5.94.89,4.5,2,.71s-.45-8.16.78-11.73c.63-1.85,3.95-2.71.68-5.06-3-2.18-3.34,1.81-5.18,2.34-4.2.57-9-1.92-12.44,2.56-3.06-2.43-6.06-5.3-9.94-1.26Zm-52.87,15.36,4.1-1.56c5.77-3.1,7.81-11.19,4.89-18.63-1.27-3.21-3-5.89-6.73-5.73s-5.89,2.83-6.67,6C578.19,245.85,577.87,253,584.38,258.52ZM481,258.28c6.61-1.74,1.83-6.66,2.52-9.95,1.37-6.44-1.61-9.92-8.62-8.84-2.67-1.2-.44-5.28-3.61-6.23-2.74,1.59-1.65,3.29-.94,5.7,1.31,4.51,4.51,9.29-.89,13.85-2.49,2.1-.36,4.34,2.23,4.8A80.15,80.15,0,0,0,481,258.28Zm60.58.82c8-1.2,16.81,2.65,21.64-6.32,2.67-5,3.62-10.84-.35-15.65C557,230,549,232.7,542.82,232.72,544,241.64,545.41,249.82,541.62,259.1Zm-18.74-4.92c-4.79.09.59-5.63-3.68-5.13a4.16,4.16,0,0,0-3.89,4.9c.53,3.87,3.93,3.13,6.17,3.37,3,.34,6.19-.35,10.48-.7-4.36-4.1-2.23-8.61-2.94-12.73-.26-1.52-.86-3.09-2.45-3.15s-2.26,1.5-2.55,3C523.33,247.27,525,251.19,522.88,254.18Zm102.92,2.08c.88-8.91-13-23.81-20.41-22.75C613.28,240.25,620.31,247.49,625.8,256.26Zm-113.41,0c-5.34-5.5-3.25-16.78-14.39-16C503.86,244.51,502.43,255.13,512.39,256.23Zm-20.64-17.52c-3.21,6.9.61,13.14-2.62,18.63-1,1.7,1.78,1.37,2.89,1.41s3.76.11,2.73-1.78C491.84,251.62,495.19,245.56,491.75,238.71Zm-26.54-4.94a2.32,2.32,0,0,0-.22.74c0,.08.39.15.61.23a2.15,2.15,0,0,0,.22-.74C465.82,233.92,465.43,233.85,465.21,233.77Z" transform="translate(-299.8 -209.18)"/><rect class="cls-29" x="138.2" y="18.82" width="239" height="37"/><path class="cls-30" d="M304.21,783.89V712.53h567.3v71.36Zm319.87-45.5c-7.22,8.1-6.55,19,1.42,22.92,1.9,0,3.93.26,5.17-1.76,5.49-4.2,5.61-9.79,3.51-15.54C632.55,739.54,630.83,734.13,624.08,738.39Zm-69,23.06c5.33-.33,10.75,1.32,16.34-.92-2.83-3.68-1.46-8-2.06-12.1-.34-2.28-1.59-5.54-4.16-2.26-3.75,4.77-9.38,8.48-10,15.33-4.22-2.35-6.48-5.55-7.56-10.64-.74-3.47-3.08-9.11-9.59-6.31,2.33,4,7.77,6.38,4.22,12.18-1.82,3,.21,1.53,1.38.92a2.53,2.53,0,0,1,4,1.91C548.69,766.47,552,763.22,555.11,761.45Zm-48.46-.39c-.53-.86-1.09-.89-1.66,0-7.9-2.92-10.64-7.66-8.25-15,1.85-5.69,5.25-9,11.67-5.74,2,2.33,2.88,1.45,3.24-1.07-5.81-3.61-11.6-3.76-16.43,1.34-4.59,4.85-5.21,10.79-2.08,16.76C496.17,763.07,501.52,764.45,506.65,761.06Zm21.65,1.65c3.13.55,6.25,1,9-.51-7.16-4.13-.49-12.83-5.46-18.37-3.36,6.17,2.51,13.4-3.88,18-.65-1.6-2-3.3-1.82-4.79,1.66-12.06-5.31-13.52-15.58-12.26,4.37,3.74,5.14,7.14.91,11.3-2.44,2.41-1.56,5.83,2.38,6.28C518.63,762.94,523.48,762.64,528.3,762.71Zm54.91,0c17.21,1.24,22.93-2,23-12.92s-5.69-14-23-12.66C586.13,745.57,586.07,753.93,583.21,762.76Zm68.12-24.33c-4.37,6.18-4.37,6.43,2.33,11.14,4.68,3.28,9.14,6.48,3.61,14,8.52-5.91,8.59-10.77,1.56-15.16C655.12,746.14,649.84,745.08,651.33,738.43ZM689.51,736c-2.69,8.33.29,17.08-2.63,25.36-.85,2.41,1.58,1.67,2.65,1.73,1.25.07,3.75.2,3-1.66C689.44,753.16,693.05,744.29,689.51,736Zm-14.74,26.48c-2.89-2.39-2.23-5.61-2.77-8.58-.62-3.44,2.9-9.53-3.21-9.55-2.71,0,.86,5.47.36,8.75C668.57,756.87,667.31,762.19,674.77,762.49Zm6.7-8.73a5.93,5.93,0,0,0,0-1.74c-.85-2.7,2-8.06-2.4-7.75-5,.36,1,4.75-.7,7.28a4.65,4.65,0,0,0,0,3.41c.75,2.43-2.53,7.19,1.85,7,4-.2.24-4.85,1.29-7.32A2.24,2.24,0,0,0,681.47,753.76Z" transform="translate(-299.8 -209.18)"/><rect class="cls-29" x="160.2" y="523.82" width="262" height="33"/><text class="cls-31" transform="translate(283.68 636.06)">Eleme<tspan class="cls-32" x="61.54" y="0">n</tspan><tspan class="cls-33" x="74.76" y="0">t</tspan><tspan x="82.56" y="0">o </tspan><tspan class="cls-34" x="100.82" y="0">c</tspan><tspan class="cls-35" x="111.43" y="0">ombust</tspan><tspan class="cls-36" x="194.57" y="0">v</tspan><tspan x="205.87" y="0">el</tspan></text><text class="cls-31" transform="translate(283.68 698.06)">Blo<tspan class="cls-33" x="31.85" y="0">c</tspan><tspan x="42.46" y="0">o de alumnio</tspan></text><text class="cls-31" transform="translate(283.68 773.06)">Ba<tspan class="cls-37" x="24.58" y="0">r</tspan><tspan class="cls-38" x="32.52" y="0">r</tspan><tspan class="cls-35" x="40.25" y="0">a de </tspan><tspan class="cls-34" x="87.55" y="0">c</tspan><tspan x="98.16" y="0">o</tspan><tspan class="cls-39" x="111.33" y="0">n</tspan><tspan x="124.56" y="0">t</tspan><tspan class="cls-40" x="132.5" y="0">r</tspan><tspan x="140.11" y="0">ole</tspan></text><text class="cls-1" transform="translate(174.32 46.58)"><tspan class="cls-41">C</tspan><tspan class="cls-42" x="20.63" y="0">aixa D0 No</tspan><tspan class="cls-43" x="192.78" y="0">r</tspan><tspan class="cls-44" x="205.41" y="0">t</tspan><tspan x="217.11" y="0">e</tspan></text><text class="cls-1" transform="translate(124.32 403.58) rotate(-90)"><tspan class="cls-41">C</tspan><tspan class="cls-42" x="20.63" y="0">aixa D0 </tspan><tspan class="cls-45" x="149.33" y="0">O</tspan><tspan x="174.27" y="0">es</tspan><tspan class="cls-44" x="206.56" y="0">t</tspan><tspan x="218.26" y="0">e</tspan></text><text class="cls-1" transform="translate(517.32 392.58) rotate(-90)"><tspan class="cls-41">C</tspan><tspan class="cls-42" x="20.63" y="0">aixa D0 </tspan><tspan class="cls-46" x="149.33" y="0">L</tspan><tspan x="165.81" y="0">es</tspan><tspan class="cls-44" x="198.1" y="0">t</tspan><tspan x="209.8" y="0">e</tspan></text><text class="cls-47" transform="translate(192.32 551.58)">C<tspan class="cls-42" x="20.63" y="0">aixa D0 Sul</tspan></text></svg>