<svg id="Camada_1" data-name="Camada 1" xmlns="http://www.w3.org/2000/svg" width="375.1" height="266.44" viewBox="0 0 375.1 266.44"><defs><style>.cls-1{fill:none;}.cls-1,.cls-2{stroke:#000;stroke-miterlimit:10;stroke-width:0.73px;}.cls-10,.cls-3,.cls-4,.cls-7{fill:blue;}.cls-4,.cls-7{font-size:8.77px;}.cls-10,.cls-16,.cls-4,.cls-7{font-family:MyriadPro-Regular, Myriad Pro;}.cls-4{letter-spacing:-0.03em;}.cls-5{letter-spacing:0.01em;}.cls-6{letter-spacing:0em;}.cls-8{letter-spacing:-0.06em;}.cls-9{letter-spacing:-0.01em;}.cls-10,.cls-16{font-size:7.31px;}.cls-11{letter-spacing:0em;}.cls-12{letter-spacing:-0.01em;}.cls-13{letter-spacing:-0.01em;}.cls-14{letter-spacing:0em;}.cls-15{letter-spacing:0.01em;}</style></defs><path class="cls-1" d="M413.4,537.07c.86,0,1.37-.16,1.69,0a24.7,24.7,0,0,0,11.23,2.8C423.43,541,419.25,540.09,413.4,537.07ZM751,430.32H678.28v10.73L676.56,443l-1.09,1.1c-1,1.73-2.86,1.62-4.41,2.18a.81.81,0,0,1-.27,0h-3.3c-1.37-.84-2.77-1.66-4.13-2.54-1.54-1-1.38-2.89-2.05-4.38.05,0,.3-.18.3-.31,0-2.8,0-5.6,0-8.52H654.7v2.62a9.11,9.11,0,0,1-5.51-2.19h-1.35l3.25,5.44h-3.42c-.06,2.07.26,4.07-.28,5.79-.59,1.9-.09,3.7-.42,5.48a15.86,15.86,0,0,0,2.75.87c1.58.35,3.45.36,4.4,2.11.88-.21,1.29.45,1.79,1h10c.75-.21,1-1.67,2.51-1.23l-1.35.7c.33.38.43.58.53.58q9.55,0,19.12,0h2.38c-2.36.74-4.75.49-7.13.53s-4.91,0-7.37,0h-7.52l.74.87c-1.07.68-1.3-.51-1.85-.8h-9c.64,1.5,1.32,2.92,1.84,4.39a6.44,6.44,0,0,1-2,6.49v1c3.87.19,7.76,0,11.63.07.29,0,.57-.36.59-.38a21.31,21.31,0,0,0,2.79.38c5.09,0,10.19,0,15.29,0H689l0,.34a7.5,7.5,0,0,1-1.23.2H675c-.91,0-1.83-.07-2.73,0s-1.9-.21-2.91.24c-.63.28-1.57-.2-2.38-.25-1-.05-2,0-3,0H655.5a10.7,10.7,0,0,1-8.41,3.28c0,.85-.07,1.72-.09,2.59s0,1.8,0,2.89h4a43.32,43.32,0,0,1-3.4,5.93h6.45v-3.06a2.44,2.44,0,0,1,2.79.95l1.47-1h8.27V484c-3.21-.19-6.43.34-9.75-.37l-3.27.5a10.49,10.49,0,0,1,0-1.81,8.13,8.13,0,0,1,.68-1.51h-6.73c.71,1.14,1.38,2.19,2,3.27a3.48,3.48,0,0,1,.21,1l1.69,1.5-3.77.2v5.35h14.9c1.07-.58,1.47-2,2.88-2.17l-1.64,1.64a3.5,3.5,0,0,0,.34.48.39.39,0,0,0,.22.11h13l.82.82v5c.22.2.48.65.76.66,2.56.11,4.38,1.52,6,3.3l.19.19c.49,2,1.63,4.06-.39,5.91-.15,1.52-1.22,2.21-2.47,2.76-.13.05-.18.28-.31.5l1.14,1.66c1.38.34,1.39.32,2.26,2a16.43,16.43,0,0,1-3.49.14c-1.17,0-2.35,0-3.61,0v5.66l-.91.9h-4c-1.46,0-2.93-.08-4.38,0s-2.71-.57-3.6.43a17.56,17.56,0,0,0-2.51-.44c-5,0-10,0-15.17,0v6L649.3,529l-.22.38-1.43-.45c-.31,1.47.07,3.09-.23,4.91a22.63,22.63,0,0,1-3.23.44c-9.57,0-19.14,0-28.44,0l-1.85,1.19-.24-.27.5-.82H539.27c-.36.81.3,1.91-.93,2.51l-6.65-2.66c-2.53-.12-5,1.74-8,2.75-1.39-.25-.87-1.57-1-2.62h-6.86l-.37-1.06c-.12,0-.28,0-.37.13-3,3-6.69,4.61-10.72,5.85-3.59,1.1-7.16,1-10.78,1h-4.72v8.12l1.33-.52.16.27-1.91,1.26-.58-.39c.75-2.85.14-5.69.42-8.74H427v-.54h2.65c22.61,0,45.23,0,67.84.05a23.68,23.68,0,0,0,4.68-.7,25.23,25.23,0,0,0,4.36-1.3,22.43,22.43,0,0,0,7.91-4.73,7.55,7.55,0,0,1,1.77-1l1.09-1.1a1.57,1.57,0,0,1,.56-1.41,21.83,21.83,0,0,0,4.76-8.66,19.12,19.12,0,0,0,.59-9.52c-.62-3.1-1.29-6.33-3.45-8.94a2.46,2.46,0,0,1-.82-2.1c-1.91-2.69-4.52-4.62-7.11-6.57-1.21.09-2.09-.74-3.06-1.2a23.68,23.68,0,0,0-10.4-2.64q-36.68,0-73.33,0a25.67,25.67,0,0,0-8.83,1.87,26.19,26.19,0,0,0-11.4,8.68,12.23,12.23,0,0,0-3,6.11c-1.52,1.26-1.16,3.23-1.52,4.82a17.24,17.24,0,0,0,0,6.79,22.9,22.9,0,0,0,2.47,7.44,4.43,4.43,0,0,1,.26.78c-1.38,0-1.48-1.23-1.63-1.87a24,24,0,0,0-1-2.35c-.22-.74-.39-1.48-.58-2.22a1.84,1.84,0,0,1-.17-.48c0-3.09-.38-6.25.08-9.28.58-3.77,3.13-9.29,6.11-11.94,1.66-1.49,3-3.32,5-4.45,1.84-1.05,3.76-1.92,5.67-2.83s4-.87,6-1.85v-8.41H407.54c-.62.53-1.35,1.14-2.08,1.74l-.35-.3,1.69-2.06-1.2-1.41c1-.64,1.21.39,1.89.82h15.27l.87.88v8.32l6.51.83V471.46h-37.4l-.85-.86v-1.51q0-40.47,0-80.94c0-.66-.66-1.64.51-2.07.24-.18.47-.52.71-.52,1.9-.05,3.8,0,5.79,0V310.1h4.41V291h5v18.94h3.49a3.13,3.13,0,0,1,.28.29.53.53,0,0,1,.08.24v69h14.11v-5.34h-6.67c-.29-.29-.49-.48-.77-.77V291.49h.92v81.33h79.92V361.46c-1.91,0-3.89,0-5.86,0a7.62,7.62,0,0,1-1.72-.47v-5.6c-2.09.35-4.15-.49-6,.58l-1.52-.54c-1,.14-1.14,1.55-2.27,1l.47-.94c-1.53,0-3,0-4.4,0s-2.69-.39-3.74.5l-1.62-.57c-.92.24-1.15,1.42-2.24,1.06l.45-.9h-7.69l.63.74c-1.16.82-1.33-.85-2.44-.85l-1.28.47c-2.61-1-5.45-.25-8.53-.5l.76.88c-1.17.83-1.34-.86-2.46-.84l-1.27.47c-2.61-1-5.45-.27-8.56-.5l1.64,1.73c-.73-.19-1.17-.19-1.43-.41a8.21,8.21,0,0,1-1.06-1.12c-1.36-.55-2.3.36-3.46-.1-.94-.38-2.16-.08-3.25-.08h-4l2.29,2.29c-1.95-.2-2.37-1.65-3.51-2.27h-1.47c-1,.64-1.52,1.94-3.08,1.92l1.85-1.85-1.72-.14V354c-.06.09,0,0,.05,0h76.46V291.49h1v62.29c3.5,0,6.91,0,10.42,0v-2.49c1.56-.18,4.5.94,6.64,2.48h1.07c.06-1.74,0-3.5,0-5.44h-3.65c-.4-1.17-.17-1.9.91-2.22l-1-.84v-7.23h8.58v7.29l-1,.78c1.08.33,1.31,1.06.93,2.15H520.1v5.61a49.08,49.08,0,0,0,4.68-1.95,4.43,4.43,0,0,1,1.78-.34l.89-1.1c.13,1.36.2,2.21.29,3.17h46.31c.62-.33,1-1.49,2.48-1.56l-1.42,1.68H578c21.62,0,43.25,0,64.87-.05,1.9,0,3.66.63,5.52.6s3.65,0,5.62,0v-2.76h-3.11c1.84-.62,20.09-.69,22.95-.08h-3.73v2.77h15.73v56.3h10.46v-2.72c0-16.23,0-32.46,0-48.69a10.42,10.42,0,0,1,3.8-8.1l1.1-1.1c1.85-2.88,4.94-3.77,7.88-4.93a21,21,0,0,1,9.9-1,15.92,15.92,0,0,1,5.87,1.57c.18.09.29.35.43.53.9,1.05,2.29,1.27,3.38,2a14.71,14.71,0,0,1,5.93,6.76c.09,0,.24,0,.27,0a7.24,7.24,0,0,1,.89,3.2c.17,1.08.94,2,0,3.14-.27.32,0,1.06,0,1.61q0,21.31,0,42.64a4.77,4.77,0,0,0,.44,2.29c.34.66-.21,1.78-.38,2.81h6l-1.35-1.52c1.51-.06,1.82,1.14,2.66,1.57l.53-.49c2.13,1,4.39.36,6.71.58V355h-5.72c-.37.44.29.47.34.74-.92.09-.92.09-1.87-.79-.94.71-1.57,1.85-3.06,1.92l2-2h-6.32v-.33l7.54-.5,2.47-2.08c.53.82-.14.92-.35,1.19a11.33,11.33,0,0,1-1.31,1.17H751Z" transform="translate(-376.22 -290.63)"/><path class="cls-1" d="M518.89,500.42c-1.91-2.69-4.52-4.62-7.11-6.57-.26-.35-.45-.88-.79-1-2-.82-4-1.76-6.11-2.44s-4.58-.71-6.78-1.46c-.93-.31-1.63.55-2.51.55h-6.74v-8.72h49.4l1-.94V427.08h3l-.25-.34.83-.31a15.42,15.42,0,0,0-1-1.7c-.93-1.2-1.3-2.81-2.73-3.64a3.17,3.17,0,0,1,.38-1.16,4,4,0,0,0,1.26-2.67,1.53,1.53,0,0,0,1.14-1.28c.12-.48.66-.86,1-1.23-1-1.43-2.5-.38-3.65-.93v-24l1.41-.45,2.29-2.16.2-1.13h14.62v59.2h-4.14l4,6.67a39.86,39.86,0,0,0-3.86,6.91h3.93v73.71H539.09v-2c-.65,0-1.34-.58-1.58.43a3.62,3.62,0,0,0-1.36,0c-1.51.65-3,1.4-4.55,2.14v-5.49h3.5c.88-1.08-.39-2,.13-3.18.44-1,.09-2.32.09-3.5v-3.57H526.5c.36,2.83-.53,5.62.44,7.91l-.46,2.47h4.36V533c-2.82-.48-5.1-2.59-8.19-2.53v2.18c-2,0-3.89,0-5.79,0-.24,0-.47-.34-.7-.52l1.09-1.1c1.38-.6,2-1.91,2.77-3.06a20.91,20.91,0,0,0,3.72-9.33c.43-4.46.32-9-1.57-13.21C521.35,503.61,520.61,501.69,518.89,500.42Z" transform="translate(-376.22 -290.63)"/><path class="cls-1" d="M539.74,418.4c1-.06.49.75-.21,1.53a1.6,1.6,0,0,1-.92,1.57c-.8.91-.9,2.34-3.28,4.24a17.17,17.17,0,0,1,1.07-1.65c.55-.92,1-1.91,1.47-2.91h-6.2l-.71.71c-.12.84.29,1.86-.72,2.35l-2.47-.85-.31.88H519v-7.43h8.56l.35,1c1.67-.94,1.67-.94,3-.94v2.19l.72.83H538a37.12,37.12,0,0,1-3.38-6h4.08v-25.1h1.94c.53-.95,1.79-1.3,1.83-2.63H481.19v65.42h6.57V445.3h28.3v13.49h-27.9a7.74,7.74,0,0,1-.45-1.68c-.06-1.61,0-3.22,0-4.84h-6.46c-.36,7.59-.23,35,.16,37.11h6.87v-8.95l.87-.87h49.39V427.11c-1.25,0-2.41,0-3.19-1.37.9-.67.72,0,.51.82,1.24,0,2.23.05,3.22,0a7.58,7.58,0,0,0,2.87-.19c-.8-1.28-1.55-2.41-2.22-3.6a9.1,9.1,0,0,1-.56-1.67c1.43.83,1.8,2.44,2.73,3.64a15.42,15.42,0,0,1,1,1.7l-.83.31.25.34h-3v52.74l-1,.94h-49.4v8.72h6.74c.88,0,1.58-.86,2.51-.55,2.2.75,4.54.75,6.78,1.46S509,492,511,492.83c.34.14.53.67.79,1-1.21.09-2.09-.74-3.06-1.2a23.68,23.68,0,0,0-10.4-2.64q-36.68,0-73.33,0a25.67,25.67,0,0,0-8.83,1.87,26.19,26.19,0,0,0-11.4,8.68,12.23,12.23,0,0,0-3,6.11c-1.52,1.26-1.16,3.23-1.52,4.82a17.24,17.24,0,0,0,0,6.79,22.9,22.9,0,0,0,2.47,7.44,4.43,4.43,0,0,1,.26.78c-1.38,0-1.48-1.23-1.63-1.87a24,24,0,0,0-1-2.35c-.22-.74-.39-1.48-.58-2.22a1.84,1.84,0,0,1-.17-.48c0-3.09-.38-6.25.08-9.28.58-3.77,3.13-9.29,6.11-11.94,1.66-1.49,3-3.32,5-4.45,1.84-1.05,3.76-1.92,5.67-2.83s4-.87,6-1.85v-8.41H407.54l-2.08,1.74-.35-.3,1.69-2.06-1.2-1.41c1-.64,1.21.39,1.89.82h15.27l.87.88v8.32l6.51.83V471.46h-37.4l-.85-.86v-1.51q0-40.47,0-80.94c0-.66-.66-1.64.56-2.07q.06,42.07,0,84.24h37.83l1.06.88v18.21h6.89V452.35h-7.08v6.4H403.38c0-4.45,0-8.82,0-13.18a.41.41,0,0,1,.09-.23c.06-.07.13-.12.08-.08h27.77v6.35h7V374.16H427.41v5.14l-.78.77H412.12v19.07H399.76l-.74-.73c-.09-4.05.09-8.2-.1-12.33h-6.44c.19-.18.42-.52.66-.52,1.9-.05,3.8,0,5.79,0V310.1h4.41V291h5v18.94h3.49a3.13,3.13,0,0,1,.28.29.53.53,0,0,1,.08.24v69h14.11v-5.34h-6.67l-.77-.77V291.49h.92v81.33h79.92V361.46c-1.91,0-3.89,0-5.86,0a7.62,7.62,0,0,1-1.72-.47v-5.6c-2.09.35-4.15-.49-6,.58l-1.52-.54c-1,.14-1.14,1.55-2.27,1l.47-.94c-1.53,0-3,0-4.4,0s-2.69-.39-3.74.5l-1.62-.57c-.92.24-1.15,1.42-2.24,1.06l.45-.9h-7.69l.63.74c-1.16.82-1.33-.85-2.44-.85l-1.28.47c-2.61-1-5.45-.25-8.53-.5l.76.88c-1.17.83-1.34-.86-2.46-.84l-1.27.47c-2.61-1-5.45-.27-8.56-.5l1.64,1.73c-.73-.19-1.17-.19-1.43-.41a8.21,8.21,0,0,1-1.06-1.12c-1.36-.55-2.3.36-3.46-.1-.94-.38-2.16-.08-3.25-.08h-4l2.29,2.29c-1.95-.2-2.37-1.65-3.51-2.27h-1.47c-1,.64-1.52,1.94-3.08,1.92l1.85-1.85-1.72-.14V354c-.06.09,0,0,.05,0h76.46V291.49h1v62.29c3.5,0,6.91,0,10.42,0v-2.49c1.56-.18,4.5.94,6.68,2.61-1.84-.55-3.56-1.18-5.42-1.85v4.86l5.86-2.33a4.29,4.29,0,0,1-.44-.68,2.1,2.1,0,0,1,1-.13c.06-1.74,0-3.5,0-5.44h-3.65c-.4-1.17-.17-1.9.91-2.22l-.37,1.64h7.37l-.43-1.64c1.08.33,1.31,1.06.93,2.15H520.1v5.61a49.08,49.08,0,0,0,4.68-1.95,4.43,4.43,0,0,1,1.78-.34,5.9,5.9,0,0,1-2.89,1.63c-1.16.35-2.28.74.4,3,2.81,1.37,2.2,1.53,1.75,1.34-1.56-.65-3-1.49-4.59-2.13-.75-.31-1.38-.92-2.49-.26-1.57.92-3.51,1.21-5.14,2.06a4.39,4.39,0,0,1-2.29.29l-.18-2H500.82c0,1.68,0,3.26,0,4.84h41.26c.07,0,.15-.09.2-.16a.91.91,0,0,0,.11-.22c-.44-2.09-2.66-1.61-3.93-2.74V355.5H527.71c0,.67-.06,1.28-3.64.76-3-1.28-2.4-1.38-1.78-1.05a48.83,48.83,0,0,0,4.73,2c0-1.88,0-3.63,0-5.38,0-.06-.29-.12-.44-.19l.89-1.1.29,3.17h46.31c.62-.33,1-1.49,2.48-1.56l-1.42,1.68H578c21.62,0,43.25,0,64.87-.05,1.9,0,3.66.63,5.52.6s3.65,0,5.62,0v-2.76h-3.11c1.84-.62,20.09-.69,22.95-.08h-3.73v2.77h15.73v56.3h10.46v-2.72c0-16.23,0-32.46,0-48.69a10.42,10.42,0,0,1,3.8-8.1c0,.27.12.67,0,.79a9.87,9.87,0,0,0-2.28,4c-.62,1.53-1.43,3.22-.87,4.73a7.66,7.66,0,0,1,.41,2.82q0,20.6,0,41.19c0,1.3.36,2.66-.51,3.88a1.46,1.46,0,0,0,0,1.07c.85,2.69,1.51,5.47,3.78,7.44a12.88,12.88,0,0,1,2.11,2.13c.62.88,2,.75,2.31,2a4.76,4.76,0,0,1-1-.2c-1.55-.62-2.44-2-3.65-3.07-2-1.75-3-4.12-3.85-6.67H684.71V354.9H670.4a.43.43,0,0,0-.23.1,1.09,1.09,0,0,0-.18.19v8.46c-.75,0-.54-.59-.54-1,0-3.63,0-7.26,0-11.06H654.66c0,4.41,0,8.6,0,12.78a4.25,4.25,0,0,0,.56,2c1.32,2.74,6.2,4.88,9,3.4a22.78,22.78,0,0,1,3.61-1.19c-.26.35-.44.84-.78,1a10.07,10.07,0,0,1-7.15,1c-2.21-.53-4.41-1.64-5.34-4.12-.49-1.31-1.51-2.55-.41-4V355h-6.51v25.21l1.24.7-1.24.45v23.4h3.48l-3.54,5.85h7.2v-3c1-.51,1.81.22,2.7.09a28.26,28.26,0,0,1,2.92-.23c1.09,0,2.18,0,3.28,0h3v6.82l-.72.83h-8l-.63-1-2.7,1.18V411.2c-2.47.19-4.79-.2-7.22.27.65,1.36,1.89,2.17,2.16,4.4-.41-.08-.64-.95-1.34-1.61a9.57,9.57,0,0,1-1.46-2.41l-3,4.81a14.3,14.3,0,0,0,5.76-.79c.88-.32,1,.75,1.37,1.86l-3.25.18v5.3l3.45.21c-1.1,1.89-2,3.53-3.23,5.59l6.77-2.62v3.36h7c.06,0,.12-.13.08-.08v-2.49l-3.17-.19c3.23-.61,21.14-.53,22.94.1h-3.27c.05,1.06.09,1.91.12,2.67h72V411.34h-5.84c.36.83,1.21,1.19,1.64,2.14-1.39-.09-1.75-1.21-2.56-1.63-2.5-1-5.11-.45-7.54-.62a54.14,54.14,0,0,1-3.14,5.65c-.77,1.09-1.54,2.49-3.23,2.57.57-1.43,2-2.14,2.83-3.44,1-1.52,1.64-3.18,2.65-4.65,0-14,.05-28,0-42,0-4.83.52-9.7-.52-14.49.09,0,.24,0,.27,0a7.24,7.24,0,0,1,.89,3.2c.17,1.08.94,2,0,3.14-.27.32,0,1.06,0,1.61q0,21.31,0,42.64a4.77,4.77,0,0,0,.44,2.29c.34.66-.21,1.78-.38,2.81h6l-1.35-1.52c1.51-.06,1.82,1.14,2.66,1.57.14-.14.34-.31.53-.49,2.13,1,4.39.36,6.71.58V355h-5.72c-.37.44.29.47.34.74-.92.09-.92.09-1.87-.8-.94.72-1.57,1.86-3.06,1.93l2-2h-6.32v-.33l7.54-.5,2.47-2.08c.53.82-.14.92-.35,1.19a11.33,11.33,0,0,1-1.31,1.17H751v76H678.28v10.73L676.56,443c-.15-1.21,1.11-1.92,1-3.07a12.83,12.83,0,0,1-.47-2.78c0-3.33,0-6.66,0-9.95h-14.7V441c1,2.41,3,3.52,5.5,4.22a6.64,6.64,0,0,0,3.43.12c1.45-.29,2.66-1.2,4.13-1.28-1,1.73-2.86,1.62-4.41,2.18a.81.81,0,0,1-.27,0h-3.3c-1.37-.84-2.77-1.66-4.13-2.54-1.54-1-1.38-2.89-2.05-4.38.05,0,.3-.18.3-.31,0-2.8,0-5.6,0-8.52H654.7v2.62a10.56,10.56,0,0,1-6.18-2.61c1.48.52,3.49,1.13,5.5,2v-5.07c-2.15.78-4.15,1.39-5.5,3.07.33.42,0,.42-.68.42l3.25,5.44h-3.42c-.06,2.07.26,4.07-.28,5.79-.59,1.9-.09,3.7-.42,5.48a15.86,15.86,0,0,0,2.75.87c1.58.35,3.45.36,4.4,2.11-.19,0-.41.07-.55,0A14.75,14.75,0,0,0,645.5,449a10.43,10.43,0,0,0-7.25,3c-.69.68-1.46,1.29-2.2,1.94-.1-1.57,1.35-2.05,2.16-2.92a9,9,0,0,1,5.5-2.5,10.62,10.62,0,0,0,2.67-.81V443c-4.88,0-9.69,0-14.51,0a4.49,4.49,0,0,0-1.41.52c-1.49-.67-6.7-.83-14-.43v15.53L617.8,460l-1.36-.53v20.15c3.46,0,6.82,0,10.19,0a9.23,9.23,0,0,0,2-.5c1.35.65,4.91.78,10.07.34l.18-2.56a5.57,5.57,0,0,1,3.73,1.64c-1.23.26-2.13-.66-3.15-1v5.56c.61-1,1.37-.72,2-.76a2.46,2.46,0,0,1-2.8.95v-2.5H629l.46.93c-1.08.33-1.33-.8-2.19-1.07h-11.1c-1.14-.53-.9-1.42-.9-2.21,0-6.19,0-12.39,0-18.58,0-.15-.15-.3-.22-.43-.68.18-.85,1.49-2.06.76l2.3-1.83v-15.7l.88-.88h13.54l-2.23-2.23c2,.27,2.43,1.71,3.28,2.2h15.1v-5.42h-3.64c1.15-1.22,1.35-2.61,3.65-4.34,0-.45,0,.64-1,1.21-.62.38-.67,1.7-1,2.64,1.08,0,2.07,0,3.06,0a7.77,7.77,0,0,0,2.83-.19c-1-1.65-1.92-3.18-3.92-3.65-.73.22-.42-.68-.14-1.53h-6.3c-.06,1.12-.11,2.17-.16,3.21-1-.07-1.83.22-2.44-.56,0,0-.17,0-.26,0-1.48.67-6.37.81-9.71.3v-7.37h8.93l.47.87c1.15-.31,1.87-1.38,3.14-.69v3.48h6.55a24.11,24.11,0,0,0-1.49-3.93c-.3-.84.44-.05.68.87.29,1.1,1.54,1.46,1.47,2.89l3.34-5.63c-2.24,0-4.18,0-5.49,1.87-.53.85-1.15-.72-2-2.48h3.37v-5.6h-3.38l3.13-5.61-6.78,2.6v-3.51h-23v-5.77a38.08,38.08,0,0,1-4.87-.8c-.81-.23-1.92-.43-2.18-1.58a5.82,5.82,0,0,1,1,.2c2.11.75,4.16,1.66,6.51,1.46,4-.35,7.59-1.47,9.89-5.1.13-.19.43-.26.65-.39a4.27,4.27,0,0,1-2.19,3.31c-2.48,1.66-5,3.06-8.21,2.68,0,1.1,0,2,0,2.89s.06,1.75.09,2.51H638.7c.07-.94.14-1.8.22-2.9l6.78,2.47-3.19-5.54h3.27v-23.4l-1.35.52-.13-.27,1.51-1.29V361c-9.25-.35-27.16-.22-29.37.18v4.56c4.65,1,9.09,2.1,11.06,7.21,2.13,0,4.3,0,6.47,0,.4,0,1-.22,1,.54h-7.18v2.71l-.37,0-.2-2.68H616.4v3c-.81.43-1.09,1.59-2.25,1.32l1.6-2,.15-3h10.9a11.45,11.45,0,0,0-6.71-5.49,19,19,0,0,0-5.27-.4c-4.06-.11-6.8,1.44-9.14,4.84-.18.27-.55.4-.84.59.46-3.15,3.1-4.26,5.45-5.4,1.65-.8,3.62-.94,5.54-1.4v-5.28h30v-4.88H578.21a17.76,17.76,0,0,0-2.19,0,4,4,0,0,0-1.1.4,11.06,11.06,0,0,0-2-.41q-16.7,0-33.39,0c-.12,0-.25.2-.36.29v1.1c1.79.6,3.84.9,3.92,3.5h41.65l.86.73c.36,6.6.21,13.06.23,19.5s0,12.86-.13,19.29,0,13.13,0,19.69v38.83l2.2,1.79-.29.38-1.78-1.09v38.76c3.32,0,6.51,0,9.7,0a6.71,6.71,0,0,1,1.7.51v5.51l4,3-.74,3.75,1.09,1.48c-1.12.38-1.36-1.05-2-1.09a7.26,7.26,0,0,1-5.8,0c-.67.35-1,1.39-2,1.09L592.8,511a2.18,2.18,0,0,0-.06-.49c-.69-1.65-.69-2.21.06-3.5v2.6l2.41,1.75c4,.05,4.63-.39,5.25-3.42-2.18-2.92-4.1-3.47-7.66-.93a1.38,1.38,0,0,1,1-1.63c.71-.25,1.45-.42,2.26-.65,0-1.67.06-3.26-.06-4.74H574.24v4.63c2.32.85,4,2.13,3.76,5a4.86,4.86,0,0,1-1.08.6v-3l-2.37-1.72a4.62,4.62,0,0,0-4.73,1.88v2.19l2,1.89c1.64-.09,3.56.45,5.06-1.22v1.22a10.5,10.5,0,0,1-6.17.28l-1.49.27.57-1.1-1.23-2.49a5.49,5.49,0,0,1,4-3.76v-5.69c3.9-1.43,8-.12,11.93-.79.37-10.7.23-36.33-.19-38.54l-1.27.38-.19-.34,1.62-1.33V380a17.05,17.05,0,0,1-1.48,1.84,2.68,2.68,0,0,1-1,.37l-.16-.32,2.64-2.25V361.54H543.11c-.5,2.08-2.38,2.45-3.84,3.26v17.38c3.1.75,3.36,1.15,3.91,3.35h13.6c.4,0,1-.21,1,.54H543.14l-.2,1.13-2.29,2.16-1.41.45v24c1.15.55,2.6-.5,3.65.93-.3.37-.84.75-1,1.23-.17.7-.49,1.09-2.19,2.42.06.43,0-.66,1-1.24.62-.37.68-1.69,1-2.63-1.08,0-2.07-.06-3.06,0s-1.93-.27-3,.28C536.72,416.45,537.68,418,539.74,418.4ZM442.8,454.46c-1.1.91-2.19,1.83-3.42,2.83v-1.14l2.37-2.06-.14-1.72H439a13.72,13.72,0,0,0,.55,4.83c.07.15.13.44.19.44,3.4,0,6.79,0,10.22,0,0-3.59,0-7,0-10.46a.4.4,0,0,0-.1-.22c-.05-.07-.13-.1-.06-.05l-3.12,3.12c-.08,1.61.37,3.42-.83,5H445c.71-1.29,1.46-2.57,1-4.15L444.81,449H443.5l-1.36,2.14Zm35.58-6c-.27-1.34,1.23-1.59,1.59-2.65H469.73v11.41l1.54-1.11-.35,1.59h9.56V446.81Zm-9.39,41V374H450.88a.44.44,0,0,0-.23.09c-.07.05-.13.12-.1.1V489.43Zm12.18-103.9h61c.06,0,.14-.11.19-.18a2.15,2.15,0,0,0,.12-.35c-.73-1.61-2.32-2.05-3.75-2.37v-19h2l-.36-.46,1.58-1.58c-8.53-.37-38.81-.22-41.08.22v11.47l-.88.88H481.17ZM439.06,374.1v71h10.76v-71Zm41.43,71V374H470a.41.41,0,0,0-.23.09c-.07.05-.13.13-.1.1v70.87Zm-69-46.5V310.72h-3.29v75.91c-1.67,0-3.26.06-4.93-.07V310.73h-3.11v87.88ZM407.67,386V292H404v94Zm72.82,103.39V458.84H470.06a.53.53,0,0,0-.24.08c-.08.05-.13.13-.11.11v30.39Zm-30.66,0v-30.6c-3.68.07-7.28-.08-10.78.1v30.5ZM496.5,458.2H508c0-4.09,0-8.08,0-12.07a.44.44,0,0,0-.09-.24c-.05-.07-.13-.12-.09-.09H496.5Zm-73.5.05V445.69c-3.87.09-7.64-.1-11.32.11v12.45ZM411,445.8h-7.07v12.07a.54.54,0,0,0,.09.24c.05.07.13.12.09.09H411Zm97.54,12.4h7.07c0-4.23,0-8.36,0-12.4h-7ZM627.34,433h7.8a12.88,12.88,0,0,1-.69-2.81,15.61,15.61,0,0,1,.56-3h-7.67ZM658.67,408c-.58,1.05.32,2,.32,2.93s-.88,1.9-.28,3.09a19.31,19.31,0,0,0,2.63,0,6,6,0,0,0,2.33-.49c.71.81,1.56.54,2.49.37,0-1,0-2,0-3s0-1.92-.08-2.86ZM519.49,423.28c1,0,1.69,0,2.41,0s1.24,0,1.67-.53c.26,1,1.1-.35,1.62.4.22.31,1.26,0,2,0-.26-1.18-.37-2.13-.67-3-.36-1.05,1.32-1.85.37-2.84h-7.42Zm-95.81,28.36h7.07c0-1.08,0-2.07,0-3.06s-.05-1.92-.07-2.78h-7Zm72.17.73h-7.07c0,1.08,0,2.07,0,3.06s0,1.92.07,2.77h7Zm-7-.73h7.07c0-1.07,0-2.06,0-3.05s0-1.93-.08-2.79h-7Zm-65.15,6.56h7.07c0-1.07,0-2.06,0-3.05s-.05-1.93-.07-2.79h-7Zm15.38-12.44v5.91h2.65c-.18-1.93.94-3,2.42-3.68l1.65.85,3.09-3.08Zm54.13-90.32c0,1.65-.06,3.29,0,4.83h6.54c-.05-1.68,0-3.26-.05-4.83Zm145.5,77.68v-5.94a3.22,3.22,0,0,0-3.13,1.25v2.84C636.44,432.13,637.21,433.12,638.69,433.12Zm.75-19.56c2.07-.88,4.13-1.33,6-2.63l-6-2.33Zm4.29-8.24c1,1.65,1.93,3.27,3,5.1l3.07-5.1ZM530.3,422.58v-4.73l-1.4-.06L527,420.5c.81,1.12,1.08,2.42,2.49,2.82Zm127.58-13-2.67-1.74c0,1.33-.06,2.33,0,3.32s-.31,1.93.3,2.95l2.35-1.34Z" transform="translate(-376.22 -290.63)"/><path class="cls-1" d="M734.59,354.9c1,4.79.49,9.66.52,14.49.08,14,0,28,0,42-1,1.47-1.68,3.13-2.65,4.65-.82,1.3-2.26,2-2.83,3.44-.33.06-.75,0-1,.2a17.89,17.89,0,0,1-10.73,3.63c-1.54,0-3.08,0-4.62,0a11.07,11.07,0,0,1-5.43-1.32,4.36,4.36,0,0,0-1.77-.33c-.41-.08-1,.27-1.09-.55-.26-1.24-1.69-1.11-2.31-2a12.88,12.88,0,0,0-2.11-2.13c-2.27-2-2.93-4.75-3.78-7.44a1.46,1.46,0,0,1,0-1.07c.87-1.22.51-2.58.51-3.88q0-20.59,0-41.19a7.66,7.66,0,0,0-.41-2.82c-.56-1.51.25-3.2.87-4.73a9.87,9.87,0,0,1,2.28-4c.14-.12,0-.52,0-.79l1.1-1.1c.33-.06.79,0,1-.21,3.54-3.58,8.15-4.56,12.86-5.21a4.45,4.45,0,0,1,3.37.39c.9.61,2.16-.19,3.33.55.94.59,2.34.46,3.53.65.9,1.05,2.29,1.27,3.38,2A14.71,14.71,0,0,1,734.59,354.9Z" transform="translate(-376.22 -290.63)"/><path class="cls-2" d="M516.16,532.15c.23.18.46.51.7.52,1.9,0,3.8,0,5.79,0v-2.18c3.09-.06,5.37,2,8.19,2.53v-5.18h-4.36l.46-2.47c-1-2.29-.08-5.08-.44-7.91h8.82v3.57c0,1.18.35,2.52-.09,3.5-.52,1.15.75,2.1-.13,3.18h-3.5v5.49c1.56-.74,3-1.49,4.55-2.14A9.55,9.55,0,0,1,538,531c-1.62.86-3.5,1.7-5.77,2.71,2.28,1,4.08,2,6.29,2.35A17,17,0,0,0,538,531c-.28-.92.41-.38,1.06-.34v2H557.7V458.86h-3.93a39.86,39.86,0,0,1,3.86-6.91l-4-6.67h4.14v-59.2c1.06.33.52,1.21.52,1.8,0,11.28,0,22.56,0,33.84,0,6,0,12,0,18,0,.89.47,1.87.21,2.65a8.15,8.15,0,0,0-.12,2.87h3.9c-1,2-1.68,4-3.86,5.62.44-.31.53-1.36,1-2.15s1.54-1.6,1.58-3.08c-2.09.21-4.09-.21-6.19.31a24.13,24.13,0,0,0,3.58,4.92c.41.09.41.43.41.79h6.5v-2.88l.8-.81,2.37.92,1-.95h8c1,2.5.28,5.06.45,7.61-2.76,0-5.31,0-7.86,0a11.24,11.24,0,0,1-2-.46c-.92.71-2,.48-3.34.43.25-1.19.45-2.16.67-3.24H562l-3.38.06c1.23,1.83,2.32,3.37,3.31,5a4.35,4.35,0,0,1,.23,1.56h-3.76v73.82h25.24c.26,0,.52,0,.83-.06v-4.82A18.39,18.39,0,0,1,583,529.6a3.19,3.19,0,0,1-1,.36l-.15-.33,2.78-2.35c0-.67,0-1.66,0-2.65s-.06-1.93-.08-2.88h-10.6a2,2,0,0,0-.39-.38c-.3-.14-.63-.23-1-.37v-5.88h-6.81c.89-1.38,1.48-2.55,3-2.67l-1.63,2.07h13.14l-.56-1c1.06,0,1.57.44,1.68,1.7h-7.07v5.28H596v-5.34c-1.26,0-2.43,0-3.6,0a15.36,15.36,0,0,1-3.65-.18c.66-1.09,1.07-2.08,2.42-2l-1,1.53h13.1L602.11,513c1.34-.08,1.76.91,2.41,2a17.07,17.07,0,0,1-3.64.19,22.78,22.78,0,0,0-3.7.12v5.63l-.87.86H585.68a24.56,24.56,0,0,1,0,3.85c-.19,1.08.51,2,.13,3.14s-.09,2.49-.09,3.8h27.9c-.38-.83-1.27-1.16-1.62-2.18,1.6.29,2.07,1.69,2.91,2.17h31V529l-1.5.29-.23-.41,1.74-1.41v-5.76H637.1c-1.46,0-2.92-.08-4.37,0s-2.7-.52-3.93.38c-1.31-.74-2.73-.33-4.09-.39s-2.92,0-4.38,0h-4.57a7,7,0,0,1-.49-1.68c-.07-1.61,0-3.22,0-4.88-1.4,0-2.57,0-3.75,0A12,12,0,0,1,608,515c.29-1,.75-1.58,1.74-1.44l-.56,1h13.14l-1.63-2.07c1.55.12,2.14,1.3,3,2.67h-7.3v5.48h11.18a15.54,15.54,0,0,1,1.43-1.4c.21-.16.58-.11,1.11-.2l-1.24,1.53h35.68a7.85,7.85,0,0,1-1.24-1.52c1.5,0,1.74,1.26,2.34,1.53H677v-5.42h-7l-.32-.56c1.2-.5,1.33-2.18,3.06-2.11l-1.63,2.09h13.13l-1.1-1.54c1.38.34,1.39.32,2.26,2a16.43,16.43,0,0,1-3.49.14c-1.17,0-2.35,0-3.61,0v5.66l-.91.9h-4c-1.46,0-2.93-.08-4.38,0s-2.71-.57-3.6.43a17.56,17.56,0,0,0-2.51-.44c-5,0-10,0-15.17,0v6L649.3,529l-.22.38-1.43-.45c-.31,1.47.07,3.09-.23,4.91a22.63,22.63,0,0,1-3.23.44c-9.57,0-19.14,0-28.44,0l-1.85,1.19-.24-.27.5-.82H539.27c-.36.81.3,1.91-.93,2.51l-6.65-2.66c-2.53-.12-5,1.74-8,2.75-1.39-.25-.87-1.57-1-2.62h-6.86l-.37-1.06c-.12,0-.28,0-.37.13-3,3-6.69,4.61-10.72,5.85-3.59,1.1-7.16,1-10.78,1h-4.72v8.12l1.33-.52.16.27-1.91,1.26-.58-.39c.75-2.85.14-5.69.42-8.74H427v-.54h2.65c22.61,0,45.23,0,67.84.05a23.68,23.68,0,0,0,4.68-.7,25.23,25.23,0,0,0,4.36-1.3,22.43,22.43,0,0,0,7.91-4.73A7.55,7.55,0,0,1,516.16,532.15Zm11-8.21c1,0,2.23.37,2.67-.08.85-.85,1.79.41,2.42-.43a2.13,2.13,0,0,0,2.44.33V518h-7.53Zm42.54-74.87a13.75,13.75,0,0,1,.59,2.89c0,1-.93,1.89-.26,3.05.48,0,1,0,1.55,0a4.14,4.14,0,0,0,1.5-.31c.46-.25,1.07.68,1.36-.22a1.36,1.36,0,0,0,1.41.55c.52,0,1,0,1.54,0v-5.94Zm-3.6-.23c-.42,2.18.27,4.2-.54,6.17,2.25,0,3.36-1.31,4.07-3l-1.15-2.43Zm-39,78.44c2.59-.24,5.13.21,8.06-.33l-2.32-2.44C530.46,524.47,528.06,524.1,527.14,527.28ZM555,457.65h6c-1-1.7-2-3.29-3-5Zm-31.14,78.54,6.2-2.56-6.2-2.44Z" transform="translate(-376.22 -290.63)"/><path class="cls-1" d="M675.47,444.07c-1.47.08-2.68,1-4.13,1.28a6.64,6.64,0,0,1-3.43-.12c-2.47-.7-4.46-1.81-5.5-4.22V427.17h14.7c0,3.29,0,6.62,0,9.95a12.83,12.83,0,0,0,.47,2.78c.07,1.15-1.19,1.86-1,3.07Z" transform="translate(-376.22 -290.63)"/><path class="cls-1" d="M656.87,477.49c.41-.35.84-.65,1.45-1.08h8.27V484c-3.21-.19-6.43.34-9.75-.37l-3.27.5a10.49,10.49,0,0,1,0-1.81,8.13,8.13,0,0,1,.68-1.51h-6.73c.71,1.14,1.38,2.19,2,3.27a5.13,5.13,0,0,1,.25,1.52c-.13-.77-1.12-1.29-1.5-2.2a17.45,17.45,0,0,0-1.59-2.56l-3,5.29a23.8,23.8,0,0,0,6.11-.53c.37-.15.79.22,1.65,1l-3.77.2v5.35h14.9c1.07-.58,1.47-2,2.88-2.17l-1.64,1.64a3.5,3.5,0,0,0,.34.48.39.39,0,0,0,.22.11h13l.82.82v5c.22.2.48.65.76.66,2.56.11,4.38,1.52,6,3.3l.19.19c.49,2,1.63,4.06-.39,5.91a5,5,0,0,1,0-1.09c.68-2.68.48-3.77-1.43-5.49a28.89,28.89,0,0,0-3.15-2.18c-1.76,0-3.49-.12-5.2.05a10.22,10.22,0,0,0-2.55,1,.61.61,0,0,1-.27,0c.42-1.14,1.46-1.36,2.44-1.64.82-.23,1.64-.41,2.42-.61v-4.71c-6.52-.46-12.66-.29-14,.26a14.28,14.28,0,0,0-2.26-.4q-14.09,0-28.17,0a14.33,14.33,0,0,0-2.4.46c-1.31-.61-7.28-.79-13.84-.32V498c.74,1.22,2,.62,3.07.8l1.8,1.61a4.67,4.67,0,0,1-1-.2,13.2,13.2,0,0,0-3.95-1c-1.71-.14-3.26.55-4.91.6a2.72,2.72,0,0,1,2.4-1.12,5.3,5.3,0,0,0,1.44-.58v-5a1.8,1.8,0,0,1,2-.93c1.27,0,2.55,0,3.83,0h3.83a19.81,19.81,0,0,0,4.08-.06,14.79,14.79,0,0,1,3.4.08c3.82,0,7.65,0,11.48,0,.69,0,1.38-.07,1.95-.1v-5.3l-3.44-.21a39.83,39.83,0,0,0,3.21-5.62c-1.66.59-2.67,1.65-4.05,1.38a8,8,0,0,1,4.24-1.91,19.76,19.76,0,0,1-1.81-.88,16.43,16.43,0,0,1-1.33-1l2.85.51c-.4-1.51-1.86-2.31-1.79-4.27.11.73,1.11,1.25,1.49,2.16a18,18,0,0,0,1.59,2.57l3.21-5.21a27.8,27.8,0,0,0-6.29.48c-.68.23-1.24-.11-.94-1.19h3.71c0-1.08,0-2,0-2.87s-.06-1.72-.09-2.56c-1.5,0-2.81.11-4-.54s-2.79-.77-3.53-2.21a5.74,5.74,0,0,1,1.19.4,15.62,15.62,0,0,0,5.27,1.76c2.58.45,5-.43,7.3-1.43a12.23,12.23,0,0,0,1.55-.93l-.13-.39H642.4c1-1,1.71-1.77,2.51-2.48.22-.19.66-.14,1-.21l-1.63,2.1h11.15l1.43-1v1c3.87.19,7.76,0,11.63.07.29,0,.57-.36.59-.38a21.31,21.31,0,0,0,2.79.38c5.09,0,10.19,0,15.29,0H689l0,.34a7.5,7.5,0,0,1-1.23.2H675c-.91,0-1.83-.07-2.73,0s-1.9-.21-2.91.24c-.63.28-1.57-.2-2.38-.25-1-.05-2,0-3,0H655.5a10.7,10.7,0,0,1-8.41,3.28c0,.85-.07,1.72-.09,2.59s0,1.8,0,2.89h4a43.32,43.32,0,0,1-3.4,5.93h6.45v-3.06a2.43,2.43,0,0,1,2.81,1c-.72.05-1.42.05-2.21.05v2.24c0,.64.05,1.28,0,1.91s-.22,1.17-.35,1.81c2.09-.5,3.75-1.27,4.21-3.53C658,479.15,657.39,478.3,656.87,477.49Zm9.21-.57c-2.47-.05-5,0-7.78,0,.3,1.31.58,2.3.73,3.31s-1.13,2-.31,3.2h7.36Z" transform="translate(-376.22 -290.63)"/><path class="cls-1" d="M654.12,450.63c.88-.21,1.29.45,1.79,1h10c.75-.21,1-1.67,2.51-1.23l-1.35.7c.33.38.43.58.53.58q9.55,0,19.12,0h2.38c-2.36.74-4.75.49-7.13.53s-4.91,0-7.37,0h-7.52l.74.87c-1.07.68-1.3-.51-1.85-.8h-9c.64,1.5,1.32,2.92,1.84,4.39a6.44,6.44,0,0,1-2,6.49c.13-.4.14-.9.4-1.18,1.08-1.18.24-2.89,1.18-4.08-.83-2-1-4.38-2.9-5.58H644.24l1.12,1.54c-1.23-.35-1.23-.35-2.67-2.28h12Z" transform="translate(-376.22 -290.63)"/><path class="cls-1" d="M518.89,500.42c1.72,1.27,2.46,3.19,3.28,5,1.89,4.23,2,8.75,1.57,13.21A20.91,20.91,0,0,1,520,528c-.76,1.15-1.39,2.46-2.77,3.06a1.57,1.57,0,0,1,.56-1.41,21.83,21.83,0,0,0,4.76-8.66,19.12,19.12,0,0,0,.59-9.52c-.62-3.1-1.29-6.33-3.45-8.94A2.46,2.46,0,0,1,518.89,500.42Z" transform="translate(-376.22 -290.63)"/><path class="cls-1" d="M516.16,346.14l-1-.84v-7.23h8.58v7.29l-1,.78a7.64,7.64,0,0,1-1.63-.56,2.84,2.84,0,0,0-3.31,0A8,8,0,0,1,516.16,346.14Zm7.07-7h-7.49v6.05a22,22,0,0,1,3.7-.62,23.72,23.72,0,0,1,3.79.58Z" transform="translate(-376.22 -290.63)"/><path class="cls-1" d="M725.28,346.14c-1.19-.19-2.59-.06-3.53-.65-1.17-.74-2.43.06-3.33-.55a4.45,4.45,0,0,0-3.37-.39c-4.71.65-9.32,1.63-12.86,5.21-.2.2-.66.15-1,.21,1.85-2.88,4.94-3.77,7.88-4.93a21,21,0,0,1,9.9-1,15.92,15.92,0,0,1,5.87,1.57C725,345.7,725.14,346,725.28,346.14Z" transform="translate(-376.22 -290.63)"/><path class="cls-1" d="M684.77,508.08c-.15,1.52-1.22,2.21-2.47,2.76-.13.05-.18.28-.31.5l1.14,1.66c-1.22.18-1.53-.79-1.84-1.45-1.62.32-3.19,1.4-4.6.8s-2.65-.19-4,.1l.45-.8-1.55-1.93c.34.06.79,0,1,.2a5.33,5.33,0,0,0,4,1.44h3.25a25,25,0,0,0,2.67-1.39A28.12,28.12,0,0,0,684.77,508.08Z" transform="translate(-376.22 -290.63)"/><path class="cls-2" d="M413.4,537.07c.86,0,1.37-.16,1.69,0a24.7,24.7,0,0,0,11.23,2.8C423.43,541,419.25,540.09,413.4,537.07Z" transform="translate(-376.22 -290.63)"/><path class="cls-1" d="M641.52,482.36c1.38.27,2.39-.79,4.05-1.38a39.83,39.83,0,0,1-3.21,5.62l3.44.21v5.3c-.57,0-1.26.09-1.95.1-3.83,0-7.66,0-11.48,0a14.79,14.79,0,0,0-3.4-.08,19.81,19.81,0,0,1-4.08.06h-3.83c-1.28,0-2.56,0-3.83,0a1.8,1.8,0,0,0-2,.93v5a5.3,5.3,0,0,1-1.44.58,2.72,2.72,0,0,0-2.4,1.12,3.64,3.64,0,0,0-1.18.39c-.75.64-1.43,1.37-2.07,2-.1,1.74-1.43,3.39,0,5,0,2.19,2,2.8,3.37,4-.41.59-.8,1.14-1.18,1.7l-.55.55c-1-.14-1.45.41-1.74,1.44a12,12,0,0,0,3.47.19c1.18,0,2.35,0,3.75,0,0,1.66,0,3.27,0,4.88a7,7,0,0,0,.49,1.68h4.57c1.46,0,2.92,0,4.38,0s2.78-.35,4.09.39c1.23-.9,2.62-.28,3.93-.38s2.91,0,4.37,0h8.74v5.76l-1.74,1.41.23.41,1.5-.29v3.54h-31c-.84-.48-1.31-1.88-2.91-2.17.35,1,1.24,1.35,1.62,2.18h-27.9c0-1.31-.29-2.67.09-3.8s-.32-2.06-.13-3.14a24.56,24.56,0,0,0,0-3.85h10.63l.87-.86v-5.63a22.78,22.78,0,0,1,3.7-.12,17.07,17.07,0,0,0,3.64-.19c-.65-1.09-1.07-2.08-2.41-2l-.55-.55L600.47,511l.74-3.75-4-3v-5.51a6.71,6.71,0,0,0-1.7-.51c-3.19-.05-6.38,0-9.7,0V459.47l1.78,1.09.29-.38-2.2-1.79V419.56c0-6.56-.07-13.12,0-19.69s.14-12.87.13-19.29.13-12.9-.23-19.5l-.86-.73H543.09c-.08-2.6-2.13-2.9-3.92-3.5v-1.1c.11-.09.24-.29.36-.29q16.69,0,33.39,0a11.06,11.06,0,0,1,2,.41,4,4,0,0,1,1.1-.4,17.76,17.76,0,0,1,2.19,0h67.61v4.88h-30v5.28c-1.92.46-3.89.6-5.54,1.4-2.35,1.14-5,2.25-5.45,5.4-1.18.67-1.09,1.81-1.09,2.93,0,6.81,0,13.62,0,20.42,0,3.26,1.77,5.55,4.38,7.28.12.08.35,0,.54,0,.26,1.15,1.37,1.35,2.18,1.58a38.08,38.08,0,0,0,4.87.8v5.77h23v3.51l6.78-2.6-3.13,5.61h3.38v5.6H642.4c.88,1.76,1.5,3.33,3,4.35l.56,2.06h-6.55v-3.48c-1.27-.69-2,.38-3.14.69l-.47-.87h-8.93v7.37c3.34.51,8.23.37,9.71-.3.09,0,.23,0,.26,0,.61.78,1.47.49,2.44.56,0-1,.1-2.09.16-3.21h6.3c-.28.85-.59,1.75-.89,2.65-1.27.61-1.47,2-2.62,3.22h3.64v5.42h-15.1c-.85-.49-1.28-1.93-3.28-2.2l2.23,2.23H616.14l-.88.88v15.7l-2.3,1.83c1.21.73,1.38-.58,2.06-.76.07.13.22.28.22.43,0,6.19,0,12.39,0,18.58,0,.79-.24,1.68.9,2.21h11.1c.86.27,1.11,1.4,2.19,1.07l-.46-.93h9.74v2.5A2.46,2.46,0,0,0,641.52,482.36Z" transform="translate(-376.22 -290.63)"/><path class="cls-1" d="M534.24,427.11h4.28v52.45H489.13l-.87.87v8.95h-6.87c-.39-2.15-.52-29.52-.16-37.11h6.46c0,1.62,0,3.23,0,4.84a7.74,7.74,0,0,0,.45,1.68h27.9V445.3h-28.3v6.31h-6.57V386.19h61.26c0,1.33-1.3,1.68-1.83,2.63h-1.94v25.1H534.6a37.12,37.12,0,0,0,3.38,6h-6.35l-.72-.83v-2.19c-1.37,0-1.37,0-3,.94l-.35-1H519v7.43h8.5l.31-.88,2.47.85c1-.49.6-1.51.72-2.35l.71-.71h6.2c-.5,1-.92,2-1.47,2.91S535.18,425.81,534.24,427.11Z" transform="translate(-376.22 -290.63)"/><path class="cls-1" d="M558.86,450.63c1.77-1.33,2.43-3.33,3.45-5.37h-3.9a8.15,8.15,0,0,1,.12-2.87c.26-.78-.2-1.76-.21-2.65,0-6,0-12,0-18,0-11.28,0-22.56,0-33.84,0-.59.54-1.47-.52-1.8,0-.75-.58-.54-1-.54h-13.6c-.55-2.2-.81-2.6-3.91-3.35V364.8c1.46-.81,3.34-1.18,3.84-3.26h41.34v18.14l-2.64,2.25.16.32a2.68,2.68,0,0,0,1-.37,17.05,17.05,0,0,0,1.48-1.84v78.21l-1.62,1.33.19.34,1.27-.38c.42,2.21.56,27.84.19,38.54-3.93.67-8-.64-11.93.79v5.69a5.49,5.49,0,0,0-4,3.76l1.23,2.49-.57,1.1-.55.54c-1.55.12-2.14,1.29-3,2.67h6.81V521c.4.14.73.23,1,.37a2,2,0,0,1,.39.38h10.6c0,1,.06,1.92.08,2.88s0,2,0,2.65l-2.78,2.35.15.33a3.19,3.19,0,0,0,1-.36,18.39,18.39,0,0,0,1.48-1.79v4.82c-.31,0-.57.06-.83.06H558.41V458.87h3.76a4.35,4.35,0,0,0-.23-1.56c-1-1.6-2.08-3.14-3.31-5l3.38-.06h3.39c-.22,1.08-.42,2.05-.67,3.24,1.31.05,2.42.28,3.34-.43a11.24,11.24,0,0,0,2,.46c2.55,0,5.1,0,7.86,0-.17-2.55.57-5.11-.45-7.61h-8l-1,.95-2.37-.92-.8.81v2.88h-6.5Z" transform="translate(-376.22 -290.63)"/><path class="cls-1" d="M392.52,386.08h6.4c.19,4.13,0,8.28.1,12.33l.74.73h12.36V380.07h14.51l.78-.77v-5.14h10.94v77.45h-7v-6.35H403.56c.05,0,0,0-.08.08a.41.41,0,0,0-.09.23c0,4.36,0,8.73,0,13.18h27.84v-6.4h7.08v37.06h-6.89V471.2l-1.06-.88H392.52Z" transform="translate(-376.22 -290.63)"/><path class="cls-1" d="M705,421.09c0,.82.68.47,1.09.55.07.15.09.4.2.45a25.73,25.73,0,0,0,9.16,2.28,21.24,21.24,0,0,0,9.38-1.74c1.72-.64,3.87-1.14,4.8-3.18,1.69-.08,2.46-1.48,3.23-2.57a54.14,54.14,0,0,0,3.14-5.65c2.43.17,5-.41,7.54.62.81.42,1.17,1.54,2.56,1.63-.43-1-1.28-1.31-1.64-2.14h5.84v18.42h-72c0-.76-.07-1.61-.12-2.67h3.27c-1.8-.63-19.71-.71-22.94-.1l3.17.19v2.49c0-.05,0,.08-.08.08h-7v-3.36L647.87,429c1.19-2.06,2.13-3.7,3.23-5.59l-3.45-.21v-5.3l3.25-.18c-.34-1.11-.49-2.18-1.71-2.66.07-1.43-1.17-2.24-1.82-3.6,2.43-.47,4.75-.08,7.22-.27v4.05l2.7-1.18.63,1h8l.72-.83v-6.82h-3c-1.1,0-2.19,0-3.28,0a28.26,28.26,0,0,0-2.92.23c-.89.13-1.71-.6-2.7-.09v3h-7.2l3.54-5.85h-3.48v-23.4l1.24-.45-1.24-.7V355h6.51v7.55c-1.1,1.47-.08,2.71.41,4,.93,2.48,3.13,3.59,5.34,4.12a10.07,10.07,0,0,0,7.15-1c.34-.19.52-.68.78-1,1.86-.82,2-2.68,2.58-4.09l-.39-.83v-8.46a1.09,1.09,0,0,1,.18-.19.43.43,0,0,1,.23-.1h14.31v56.25h11.81c.83,2.55,1.8,4.92,3.85,6.67,1.21,1,2.1,2.45,3.65,3.07A4.76,4.76,0,0,0,705,421.09Z" transform="translate(-376.22 -290.63)"/><path class="cls-1" d="M469,489.43H450.55V374.24s0-.05.1-.1a.44.44,0,0,1,.23-.09H469Z" transform="translate(-376.22 -290.63)"/><path class="cls-1" d="M481.17,385.53V374.11h18.77l.88-.88V361.76c2.27-.44,32.55-.59,41.08-.22l-1.58,1.58.36.46h-2v19c1.43.32,3,.76,3.75,2.37a2.15,2.15,0,0,1-.12.35c-.05.07-.13.18-.19.18Z" transform="translate(-376.22 -290.63)"/><path class="cls-1" d="M643.71,475.25c-.1,1.48,1.36,2.28,1.76,3.79l-2.85-.51a5.57,5.57,0,0,0-3.73-1.64l-.18,2.56c-5.16.44-8.72.31-10.07-.34a9.23,9.23,0,0,1-2,.5c-3.37.05-6.73,0-10.19,0V459.48l1.36.53-1.38-1.39V443.09c7.34-.4,12.55-.24,14,.43a4.49,4.49,0,0,1,1.41-.52c4.82,0,9.63,0,14.51,0v4.72a10.62,10.62,0,0,1-2.67.81,9,9,0,0,0-5.5,2.5c-.81.87-2.26,1.35-2.16,2.92-1.55.56-1.31,2.07-1.62,3.22-.62,2.38.69,4.38,1.7,6.31.46.87,1.21,2.09,2.66,1.95.74,1.44,2.29,1.55,3.53,2.21s2.54.51,4,.54c0,.84.07,1.7.09,2.56s0,1.79,0,2.87h-3.71C642.44,474.66,643,475,643.71,475.25Z" transform="translate(-376.22 -290.63)"/><path class="cls-1" d="M635,373.5c0-.76-.58-.54-1-.54-2.17,0-4.34,0-6.47,0-2-5.11-6.41-6.23-11.06-7.21v-4.56c2.21-.4,20.12-.53,29.37-.18v19.19l-1.51,1.29.13.27,1.35-.52v23.4h-3.27l3.19,5.54-6.78-2.47c-.08,1.1-.15,2-.22,2.9H616.43c0-.76-.07-1.63-.09-2.51s0-1.79,0-2.89c3.21.38,5.73-1,8.21-2.68a4.27,4.27,0,0,0,2.19-3.31,3.13,3.13,0,0,1,2.24-.55h6.57v-9.24l2.12-.11,2.2-3-.77-2.43a4.94,4.94,0,0,0-3.6-1.79c0-2.57,0-5.11,0-7.64C635.49,374.08,635.71,373.5,635,373.5Z" transform="translate(-376.22 -290.63)"/><path class="cls-1" d="M439.06,374.1h10.76v71H439.06Z" transform="translate(-376.22 -290.63)"/><path class="cls-1" d="M480.49,445.11H469.71V374.24s0-.05.1-.1a.41.41,0,0,1,.23-.09h10.45Z" transform="translate(-376.22 -290.63)"/><path class="cls-1" d="M411.51,398.61H400.18V310.73h3.11v75.83c1.67.13,3.26,0,4.93.07V310.72h3.29Z" transform="translate(-376.22 -290.63)"/><path class="cls-1" d="M604.84,372.4c.29-.19.66-.32.84-.59,2.34-3.4,5.08-4.95,9.14-4.84a19,19,0,0,1,5.27.4,11.45,11.45,0,0,1,6.71,5.49H615.9l-.15,3-1.6,2-1.61,1.59v.7l7.09,5.81-7.11,6.09v.76l2.73,2c1,1.12.28,2.56.7,3.83h9.82c.39,0,1-.21,1,.54-.22.13-.52.2-.65.39-2.3,3.63-5.87,4.75-9.89,5.1-2.35.2-4.4-.71-6.51-1.46a5.82,5.82,0,0,0-1-.2c-.9-1-1.82-2-2.69-3a7.42,7.42,0,0,1-1.67-4.44c.89-.68.5-1.66.51-2.5,0-4.16,0-8.33,0-12.49,0-1.47.33-3-.45-4.43a2.23,2.23,0,0,1,.25-2.28C604.9,373.57,604.78,372.92,604.84,372.4Z" transform="translate(-376.22 -290.63)"/><path class="cls-1" d="M615.25,394.83l-2.73-2v-.76l7.11-6.09-7.09-5.81v-.7l1.61-1.59c1.16.27,1.44-.89,2.25-1.32v-3h10.8l.2,2.68.37,0V373.5H635v8.75H633l-2.41,2.42c-.06,3.54.74,4.45,4.2,4.85V398h-7.06V376.79h-.47V398H616.4l-.14-3.2Z" transform="translate(-376.22 -290.63)"/><path class="cls-1" d="M591.16,513c-1.35-.08-1.76.91-2.42,2a15.36,15.36,0,0,0,3.65.18c1.17,0,2.34,0,3.6,0v5.34H574.27v-5.28h7.07c-.11-1.26-.62-1.75-1.68-1.7l-1.42-1.15-1.32-1v-1.1l1.08-.72c.24-2.82-1.44-4.1-3.76-5V500H596c.12,1.48,0,3.07.06,4.74-.81.23-1.55.4-2.26.65a1.38,1.38,0,0,0-1,1.63c-.75,1.29-.75,1.85-.06,3.5a2.18,2.18,0,0,1,.06.49l-1.09,1.48Z" transform="translate(-376.22 -290.63)"/><path class="cls-1" d="M407.67,386H404V292h3.65Z" transform="translate(-376.22 -290.63)"/><path class="cls-1" d="M480.49,489.42H469.71V459s0-.06.11-.11a.53.53,0,0,1,.24-.08h10.43Z" transform="translate(-376.22 -290.63)"/><path class="cls-1" d="M449.83,489.42H439.05v-30.5c3.5-.18,7.1,0,10.78-.1Z" transform="translate(-376.22 -290.63)"/><path class="cls-1" d="M670,363.65l.39.83c-.59,1.41-.72,3.27-2.58,4.09a22.78,22.78,0,0,0-3.61,1.19c-2.79,1.48-7.67-.66-9-3.4a4.25,4.25,0,0,1-.56-2c.05-4.18,0-8.37,0-12.78h14.78c0,3.8,0,7.43,0,11.06C669.45,363.06,669.24,363.64,670,363.65Z" transform="translate(-376.22 -290.63)"/><path class="cls-1" d="M654.12,450.63l.58,1h-12c1.44,1.93,1.44,1.93,2.67,2.28a35.46,35.46,0,0,0,3.85,3.28c.44.35.82.75,1.34,1.22l-4.65,3.7c-.33.07-.77,0-1,.21-.8.71-1.53,1.5-2.51,2.48H654l.13.39a12.23,12.23,0,0,1-1.55.93c-2.33,1-4.72,1.88-7.3,1.43A15.62,15.62,0,0,1,640,465.8a5.74,5.74,0,0,0-1.19-.4l-1-1.22c-1.82-2.28-3.5-4.59-2.34-7.79a20.55,20.55,0,0,0,.56-2.47c.74-.65,1.51-1.26,2.2-1.94a10.43,10.43,0,0,1,7.25-3,14.75,14.75,0,0,1,8.07,1.64C653.71,450.7,653.93,450.63,654.12,450.63Z" transform="translate(-376.22 -290.63)"/><path class="cls-1" d="M527.61,357.63c0-.85.07-1.46.1-2.13H538.5v1.74c1.27,1.13,3.49.65,3.93,2.74a.91.91,0,0,1-.11.22c-.05.07-.13.16-.2.16H500.86c-.07-1.58,0-3.16,0-4.84h10.31l.18,2a4.39,4.39,0,0,0,2.29-.29c1.63-.85,3.57-1.14,5.14-2.06,1.11-.66,1.74,0,2.49.26,1.56.64,3,1.48,4.59,2.13A5.45,5.45,0,0,0,527.61,357.63Z" transform="translate(-376.22 -290.63)"/><path class="cls-1" d="M496.5,458.2V445.8h11.26s0,0,.09.09a.44.44,0,0,1,.09.24c0,4,0,8,0,12.07Z" transform="translate(-376.22 -290.63)"/><path class="cls-1" d="M423,458.25H411.68V445.8c3.68-.21,7.45,0,11.32-.11Z" transform="translate(-376.22 -290.63)"/><path class="cls-1" d="M411,445.8v12.4h-6.89s0,0-.09-.09a.54.54,0,0,1-.09-.24V445.8Z" transform="translate(-376.22 -290.63)"/><path class="cls-1" d="M508.54,458.2V445.8h7c.06,4,0,8.17,0,12.4Z" transform="translate(-376.22 -290.63)"/><path class="cls-1" d="M471.27,456.1l-1.54,1.11V445.8H480c-.36,1.06-1.86,1.31-1.59,2.65l-1.09,1.09-1.1-.55-1.45-.39-1.28.94a3.24,3.24,0,0,0-.82,4l-.28,1.48Z" transform="translate(-376.22 -290.63)"/><path class="cls-1" d="M445,455h.81c1.2-1.54.75-3.35.83-5l3.12-3.12c-.07-.05,0,0,.06.05a.4.4,0,0,1,.1.22c0,3.44,0,6.87,0,10.46-3.43,0-6.82,0-10.22,0-.06,0-.12-.29-.19-.44l3.29-2.74c.29.86,1.19.72,1.79,1.07A6.47,6.47,0,0,0,445,455Z" transform="translate(-376.22 -290.63)"/><path class="cls-1" d="M471.27,456.1l1.09-1.09,1-.57.87,1.1h1.7a4.51,4.51,0,0,0,1.91-4.35,11.3,11.3,0,0,0-.53-1.65l1.09-1.09,2.1-1.64v10.88h-9.56Z" transform="translate(-376.22 -290.63)"/><path class="cls-1" d="M627.34,433v-5.83H635a15.61,15.61,0,0,0-.56,3,12.88,12.88,0,0,0,.69,2.81Z" transform="translate(-376.22 -290.63)"/><path class="cls-1" d="M658.67,408h7.41c0,.94.06,1.9.08,2.86s0,2,0,3c-.93.17-1.78.44-2.49-.37a6,6,0,0,1-2.33.49,19.31,19.31,0,0,1-2.63,0c-.6-1.19.27-2.11.28-3.09S658.09,409,658.67,408Z" transform="translate(-376.22 -290.63)"/><path class="cls-1" d="M519.49,423.28v-5.93h7.42c1,1-.73,1.79-.37,2.84.3.89.41,1.84.67,3-.76,0-1.8.26-2,0-.52-.75-1.36.64-1.62-.4-.43.58-1,.55-1.67.53S520.45,423.28,519.49,423.28Z" transform="translate(-376.22 -290.63)"/><path class="cls-1" d="M423.68,451.64V445.8h7c0,.86.06,1.82.07,2.78s0,2,0,3.06Z" transform="translate(-376.22 -290.63)"/><path class="cls-1" d="M495.85,452.37v5.83h-7c0-.85-.06-1.81-.07-2.77s0-2,0-3.06Z" transform="translate(-376.22 -290.63)"/><path class="cls-1" d="M488.83,451.64V445.8h7c0,.86.07,1.83.08,2.79s0,2,0,3.05Z" transform="translate(-376.22 -290.63)"/><path class="cls-1" d="M423.68,458.2v-5.84h7c0,.86.06,1.83.07,2.79s0,2,0,3.05Z" transform="translate(-376.22 -290.63)"/><path class="cls-1" d="M592.8,507c3.56-2.54,5.48-2,7.66.93-.62,3-1.29,3.47-5.25,3.42l-2.41-1.75Z" transform="translate(-376.22 -290.63)"/><path class="cls-1" d="M439.06,445.76h9.81l-3.09,3.08-1.65-.85c-1.48.69-2.6,1.75-2.42,3.68h-2.65Z" transform="translate(-376.22 -290.63)"/><path class="cls-1" d="M576.92,510c-1.5,1.8-3.42,1.26-5.06,1.35l-2-1.89v-2.19a4.62,4.62,0,0,1,4.73-1.88l2.37,1.72Z" transform="translate(-376.22 -290.63)"/><path class="cls-1" d="M493.19,355.44h6.51c.08,1.57,0,3.15.05,4.83h-6.54C493.13,358.73,493.16,357.09,493.19,355.44Z" transform="translate(-376.22 -290.63)"/><path class="cls-1" d="M576.92,511.36l1.32,1,1.42,1.15.56,1H567.08l1.63-2.07.55-.54,1.49-.27A10.5,10.5,0,0,0,576.92,511.36Z" transform="translate(-376.22 -290.63)"/><path class="cls-1" d="M591.16,513l.55-.55c1,.3,1.33-.74,2-1.09a7.26,7.26,0,0,0,5.8,0c.69,0,.93,1.47,2,1.09l.55.55,1.11,1.53h-13.1Z" transform="translate(-376.22 -290.63)"/><path class="cls-1" d="M445,455a6.47,6.47,0,0,1-.4.52c-.6-.35-1.5-.21-1.79-1.07l-.66-3.32L443.5,449h1.31l1.21,1.86C446.45,452.44,445.7,453.72,445,455Z" transform="translate(-376.22 -290.63)"/><path class="cls-1" d="M526.56,351.61c.15.07.44.13.44.19,0,1.75,0,3.5,0,5.38a48.83,48.83,0,0,1-4.73-2,4.44,4.44,0,0,0-1.75-.31,6.57,6.57,0,0,1,3.13-1.66A5.9,5.9,0,0,0,526.56,351.61Z" transform="translate(-376.22 -290.63)"/><path class="cls-1" d="M643.5,423.92h6.42l-3.34,5.63c.07-1.43-1.18-1.79-1.47-2.89A12,12,0,0,0,643.5,423.92Z" transform="translate(-376.22 -290.63)"/><path class="cls-1" d="M539.15,421.09a9.1,9.1,0,0,0,.56,1.67c.67,1.19,1.42,2.32,2.22,3.6a7.58,7.58,0,0,1-2.87.19c-1,.06-2,0-3.22,0l.57-2.19c1.3-.53,1.4-2,2.2-2.87A3.2,3.2,0,0,1,539.15,421.09Z" transform="translate(-376.22 -290.63)"/><path class="cls-1" d="M642.62,478.53a16.43,16.43,0,0,0,1.33,1,19.76,19.76,0,0,0,1.81.88,8,8,0,0,0-4.24,1.91c-.68,0-1.44-.22-2,.76v-5.56C640.49,477.87,641.39,478.79,642.62,478.53Z" transform="translate(-376.22 -290.63)"/><path class="cls-1" d="M647.85,430.1a30.62,30.62,0,0,1,6.17-2.65v5.07C652,431.65,650,431,647.85,430.1Z" transform="translate(-376.22 -290.63)"/><path class="cls-1" d="M538.69,419.53c-1-1.57-2-3.08-3-4.71,1.06-.55,2.05-.21,3-.28s2,0,3.06,0c-.32.94-.38,2.26-1,2.63C539.79,417.74,539.8,418.83,538.69,419.53Z" transform="translate(-376.22 -290.63)"/><path class="cls-1" d="M646.88,430.88l2.88,4.78a7.77,7.77,0,0,1-2.83.19c-1,0-2,0-3.06,0,.33-.94.38-2.26,1-2.64C645.81,432.65,645.8,431.56,646.88,430.88Z" transform="translate(-376.22 -290.63)"/><path class="cls-1" d="M638.69,433.12c-1.48,0-2.25-1-3.13-1.85v-2.84a3.22,3.22,0,0,1,3.13-1.25Z" transform="translate(-376.22 -290.63)"/><path class="cls-1" d="M639.44,413.56v-5l6,2.33C643.57,412.23,641.51,412.68,639.44,413.56Z" transform="translate(-376.22 -290.63)"/><path class="cls-1" d="M643.73,405.32h6.08l-3.07,5.1C645.66,408.59,644.71,407,643.73,405.32Z" transform="translate(-376.22 -290.63)"/><path class="cls-1" d="M517.88,354.06l.4.55-5.86,2.33v-4.86Z" transform="translate(-376.22 -290.63)"/><path class="cls-1" d="M649.88,416.66h-6.11l3-4.81a9.57,9.57,0,0,0,1.46,2.41C648.89,414.92,649.12,415.79,649.88,416.66Z" transform="translate(-376.22 -290.63)"/><path class="cls-1" d="M516.16,346.14a8,8,0,0,0,1.63-.56,2.84,2.84,0,0,1,3.31,0,7.64,7.64,0,0,0,1.63.56l.43,1.64h-7.37Z" transform="translate(-376.22 -290.63)"/><path class="cls-1" d="M530.3,422.58l-.83.74c-1.41-.4-1.68-1.7-2.49-2.82l1.92-2.71,1.4.06Z" transform="translate(-376.22 -290.63)"/><path class="cls-1" d="M657.88,409.62v3.19l-2.35,1.34c-.61-1-.24-2-.3-2.95s0-2,0-3.32Z" transform="translate(-376.22 -290.63)"/><path class="cls-1" d="M439.38,457.29a18.55,18.55,0,0,1-.42-4.92h2.65l.14,1.72-2.37,2.06Z" transform="translate(-376.22 -290.63)"/><path class="cls-1" d="M729.66,419.45c-.93,2-3.08,2.54-4.8,3.18a21.24,21.24,0,0,1-9.38,1.74,25.73,25.73,0,0,1-9.16-2.28c-.11,0-.13-.3-.2-.45a4.36,4.36,0,0,1,1.77.33,11.07,11.07,0,0,0,5.43,1.32c1.54,0,3.08,0,4.62,0a17.89,17.89,0,0,0,10.73-3.63C728.91,419.47,729.33,419.51,729.66,419.45Z" transform="translate(-376.22 -290.63)"/><path class="cls-1" d="M671.63,509.72l1.55,1.93-.45.8c-1.73-.07-1.86,1.61-3.06,2.11l.32.56h7v5.42H665.71c-.6-.27-.84-1.57-2.34-1.53a7.85,7.85,0,0,0,1.24,1.52H628.93l1.24-1.53c-.53.09-.9,0-1.11.2a15.54,15.54,0,0,0-1.43,1.4H616.45v-5.48h7.3c-.89-1.37-1.48-2.55-3-2.67l-.55-.54,1.65-2.19c.76-.77,1.53-1.53,2.13-2.13V503.3l-2.68-2.88-1.8-1.61c-1.12-.18-2.33.42-3.07-.8v-4.55c6.56-.47,12.53-.29,13.84.32a14.33,14.33,0,0,1,2.4-.46q14.08,0,28.17,0a14.28,14.28,0,0,1,2.26.4c1.31-.55,7.45-.72,14-.26v4.71c-.78.2-1.6.38-2.42.61-1,.28-2,.5-2.44,1.64-1.7,1.23-2.22,3.11-2.67,4.77.2.77.35,1.32.48,1.88C670.24,508.13,670.41,509.25,671.63,509.72Z" transform="translate(-376.22 -290.63)"/><path class="cls-1" d="M527.18,523.94V518h7.53v5.72a2.13,2.13,0,0,1-2.44-.33c-.63.84-1.57-.42-2.42.43C529.41,524.31,528.14,523.94,527.18,523.94Z" transform="translate(-376.22 -290.63)"/><path class="cls-1" d="M569.72,449.07h7.69V455c-.51,0-1,0-1.54,0a1.36,1.36,0,0,1-1.41-.55c-.29.9-.9,0-1.36.22a4.14,4.14,0,0,1-1.5.31c-.53.05-1.07,0-1.55,0-.67-1.16.25-2.07.26-3.05A13.75,13.75,0,0,0,569.72,449.07Z" transform="translate(-376.22 -290.63)"/><path class="cls-1" d="M620.17,511.91l.55.54,1.63,2.07H609.21l.56-1,.55-.55c1.23.18,1.54-.78,1.87-1.52a8.46,8.46,0,0,0,7.13,0Z" transform="translate(-376.22 -290.63)"/><path class="cls-1" d="M672.73,512.45c1.31-.29,2.47-.73,4-.1s3-.48,4.6-.8c.31.66.62,1.63,1.84,1.45l1.1,1.54H671.1Z" transform="translate(-376.22 -290.63)"/><path class="cls-1" d="M558,451.14c-1-1.66-2-3.32-3.17-5.18,2.1-.52,4.1-.1,6.19-.31,0,1.48-1,2.16-1.58,3.08S558.89,450.57,558,451.14Z" transform="translate(-376.22 -290.63)"/><path class="cls-1" d="M566.12,448.84l2.38.76,1.15,2.43c-.71,1.67-1.82,3-4.07,3C566.39,453,565.7,451,566.12,448.84Z" transform="translate(-376.22 -290.63)"/><path class="cls-1" d="M527.14,527.28c.92-3.18,3.32-2.81,5.74-2.77L535.2,527C532.27,527.49,529.73,527,527.14,527.28Z" transform="translate(-376.22 -290.63)"/><path class="cls-1" d="M555,457.65l3-5c1,1.73,2,3.32,3,5Z" transform="translate(-376.22 -290.63)"/><path class="cls-1" d="M621.27,500.42,624,503.3v4.29c-.6.6-1.37,1.36-2.13,2.13-.34.06-.79,0-1,.21a5.46,5.46,0,0,1-4.05,1.43h-3.33a11.52,11.52,0,0,0-1.7-1,5.57,5.57,0,0,1-3.54-4.48,4.93,4.93,0,0,1,2-4.58,8.89,8.89,0,0,0,1.16-1.41c1.65-.05,3.2-.74,4.91-.6a13.2,13.2,0,0,1,3.95,1A4.67,4.67,0,0,0,621.27,500.42Z" transform="translate(-376.22 -290.63)"/><path class="cls-1" d="M671.63,509.72c-1.22-.47-1.39-1.59-1.64-2.65-.13-.56-.28-1.11-.48-1.88.45-1.66,1-3.54,2.67-4.77a.61.61,0,0,0,.27,0,10.22,10.22,0,0,1,2.55-1c1.71-.17,3.44-.05,5.2-.05a28.89,28.89,0,0,1,3.15,2.18c1.91,1.72,2.11,2.81,1.43,5.49a5,5,0,0,0,0,1.09,28.12,28.12,0,0,1-2.2,1.89,25,25,0,0,1-2.67,1.39h-3.25a5.33,5.33,0,0,1-4-1.44C672.42,509.72,672,509.78,671.63,509.72Z" transform="translate(-376.22 -290.63)"/><path class="cls-1" d="M645.9,462.12l4.65-3.7c-.52-.47-.9-.87-1.34-1.22a35.46,35.46,0,0,1-3.85-3.28l-1.12-1.54h11.29c1.94,1.2,2.07,3.58,2.9,5.58-.94,1.19-.1,2.9-1.18,4.08-.26.28-.27.78-.4,1.18l-1.43,1H644.27Z" transform="translate(-376.22 -290.63)"/><path class="cls-1" d="M666.08,476.92v6.48h-7.36c-.82-1.16.47-2.12.31-3.2s-.43-2-.73-3.31C661.05,476.9,663.61,476.87,666.08,476.92Z" transform="translate(-376.22 -290.63)"/><path class="cls-1" d="M643.64,474.29H650l-3.21,5.21a18,18,0,0,1-1.59-2.57C644.79,476,643.79,475.5,643.64,474.29Z" transform="translate(-376.22 -290.63)"/><path class="cls-1" d="M656.88,477.54l1.63,2.43c-.46,2.26-2.12,3-4.21,3.53.13-.64.29-1.22.35-1.81s0-1.27,0-1.91v-2.24Z" transform="translate(-376.22 -290.63)"/><path class="cls-1" d="M649.82,486.15h-6.15l3-5.29a17.45,17.45,0,0,1,1.59,2.56C648.66,484.33,649.65,484.85,649.82,486.15Z" transform="translate(-376.22 -290.63)"/><path class="cls-1" d="M523.23,339.12v6a23.72,23.72,0,0,0-3.79-.58,22,22,0,0,0-3.7.62v-6.05Z" transform="translate(-376.22 -290.63)"/><path class="cls-1" d="M604.84,372.4c-.06.52.06,1.17-.22,1.53a2.23,2.23,0,0,0-.25,2.28c.78,1.47.43,3,.45,4.43.06,4.16,0,8.33,0,12.49,0,.84.38,1.82-.51,2.5a7.42,7.42,0,0,0,1.67,4.44c.87,1,1.79,2,2.69,3-.19,0-.42.07-.54,0-2.61-1.73-4.36-4-4.38-7.28,0-6.8,0-13.61,0-20.42C603.75,374.21,603.66,373.07,604.84,372.4Z" transform="translate(-376.22 -290.63)"/><path class="cls-1" d="M611.41,499.87a8.89,8.89,0,0,1-1.16,1.41,4.93,4.93,0,0,0-2,4.58,5.57,5.57,0,0,0,3.54,4.48,11.52,11.52,0,0,1,1.7,1h3.33a5.46,5.46,0,0,0,4.05-1.43c.21-.2.66-.15,1-.21l-1.65,2.19-.85-.4a8.46,8.46,0,0,1-7.13,0c-.33.74-.64,1.7-1.87,1.52.38-.56.77-1.11,1.18-1.7-1.34-1.2-3.32-1.81-3.37-4-1.4-1.65-.07-3.3,0-5,.64-.63,1.32-1.36,2.07-2A3.64,3.64,0,0,1,611.41,499.87Z" transform="translate(-376.22 -290.63)"/><path class="cls-1" d="M636.05,453.92a20.55,20.55,0,0,1-.56,2.47c-1.16,3.2.52,5.51,2.34,7.79l1,1.22c-1.45.14-2.2-1.08-2.66-1.95-1-1.93-2.32-3.93-1.7-6.31C634.74,456,634.5,454.48,636.05,453.92Z" transform="translate(-376.22 -290.63)"/><path class="cls-1" d="M615.25,394.83h1l.14,3.2h10.89V376.79h.47V398h7.06v-8.51c-3.46-.4-4.26-1.31-4.2-4.85l2.41-2.42H635V373.5c.76,0,.54.58.54,1,0,2.53,0,5.07,0,7.64a4.94,4.94,0,0,1,3.6,1.79l.77,2.43-2.2,3-2.12.11v9.24H629a3.13,3.13,0,0,0-2.24.55c0-.75-.58-.54-1-.54H616C615.53,397.39,616.2,396,615.25,394.83Zm21.16-12c-2.45-.51-4,.8-5.3,2.5a3.4,3.4,0,0,0,2.5,3.38h3.32l1.8-1.79V384.5Z" transform="translate(-376.22 -290.63)"/><path class="cls-1" d="M473.46,449.54l1.28-.94,1.45.39a17.45,17.45,0,0,1,.53,2.22,22,22,0,0,1,0,2.44l-.38-.37-1,1.92c-1.44-1.16-1.44-1.16-2.45-3.21C473.88,451.36,473.3,450.37,473.46,449.54Z" transform="translate(-376.22 -290.63)"/><path class="cls-1" d="M473.46,449.54c-.16.83.42,1.82-.55,2.45,1,2.05,1,2.05,2.45,3.21l1-1.92.38.37a22,22,0,0,0,0-2.44,17.45,17.45,0,0,0-.53-2.22l1.1.55a11.3,11.3,0,0,1,.53,1.65,4.51,4.51,0,0,1-1.91,4.35h-1.7l-.87-1.1-1,.57.28-1.48A3.24,3.24,0,0,1,473.46,449.54Z" transform="translate(-376.22 -290.63)"/><path class="cls-1" d="M636.41,382.87l2.32,1.63V387l-1.8,1.79h-3.32a3.4,3.4,0,0,1-2.5-3.38C632.43,383.67,634,382.36,636.41,382.87Z" transform="translate(-376.22 -290.63)"/><path class="cls-3" d="M439.88,321.05h-1.8v-.65h4.38v.65h-1.81v5.27h-.77Z" transform="translate(-376.22 -290.63)"/><path class="cls-3" d="M444.88,326.32l-.06-.54h0a1.57,1.57,0,0,1-1.29.63,1.21,1.21,0,0,1-1.3-1.22c0-1,.91-1.58,2.55-1.58v-.08a.88.88,0,0,0-1-1,2.15,2.15,0,0,0-1.11.32l-.18-.51a2.62,2.62,0,0,1,1.4-.38c1.3,0,1.61.89,1.61,1.74v1.59a6.28,6.28,0,0,0,.07,1Zm-.11-2.17c-.85,0-1.8.13-1.8,1a.68.68,0,0,0,.73.73,1,1,0,0,0,1-.71.74.74,0,0,0,0-.24Z" transform="translate(-376.22 -290.63)"/><path class="cls-3" d="M446.76,323.22c0-.44,0-.8,0-1.15h.69l0,.7h0a1.56,1.56,0,0,1,1.4-.8c.59,0,1.5.35,1.5,1.81v2.54h-.77v-2.45c0-.69-.25-1.26-1-1.26a1.1,1.1,0,0,0-1,.79,1.3,1.3,0,0,0-.05.36v2.56h-.77Z" transform="translate(-376.22 -290.63)"/><path class="cls-3" d="M454.52,325.66h0a1.5,1.5,0,0,1-1.38.75,1.94,1.94,0,0,1-1.8-2.15,2,2,0,0,1,1.92-2.29,1.4,1.4,0,0,1,1.31.74h0l0-.64h.73c0,.36,0,.73,0,1.17v4.81h-.77Zm0-1.87a1.76,1.76,0,0,0,0-.33,1.14,1.14,0,0,0-1.11-.87c-.8,0-1.28.67-1.28,1.63s.4,1.58,1.25,1.58a1.16,1.16,0,0,0,1.11-.84,1.19,1.19,0,0,0,.06-.37Z" transform="translate(-376.22 -290.63)"/><path class="cls-3" d="M460.12,325.16c0,.44,0,.82,0,1.16h-.68l-.05-.7h0a1.6,1.6,0,0,1-1.41.79c-.67,0-1.46-.37-1.46-1.86v-2.48h.77v2.35c0,.81.24,1.35.95,1.35a1.11,1.11,0,0,0,1-.7,1,1,0,0,0,.07-.39v-2.61h.78Z" transform="translate(-376.22 -290.63)"/><path class="cls-3" d="M461.83,324.33a1.36,1.36,0,0,0,1.45,1.48,2.83,2.83,0,0,0,1.18-.22l.13.55a3.5,3.5,0,0,1-1.41.26,2,2,0,0,1-2.09-2.14,2.06,2.06,0,0,1,2-2.29,1.8,1.8,0,0,1,1.76,2,2.55,2.55,0,0,1,0,.36Zm2.26-.55a1.09,1.09,0,0,0-1.07-1.25,1.29,1.29,0,0,0-1.19,1.25Z" transform="translate(-376.22 -290.63)"/><path class="cls-3" d="M471.32,320.09v5.13c0,.38,0,.81,0,1.1h-.69l0-.74h0a1.59,1.59,0,0,1-1.45.83,1.94,1.94,0,0,1-1.82-2.16,2,2,0,0,1,1.91-2.28,1.43,1.43,0,0,1,1.28.65h0v-2.53Zm-.77,3.71a1.24,1.24,0,0,0,0-.33,1.12,1.12,0,0,0-1.11-.89c-.8,0-1.28.7-1.28,1.64s.42,1.57,1.26,1.57a1.15,1.15,0,0,0,1.13-.92,1.19,1.19,0,0,0,0-.33Z" transform="translate(-376.22 -290.63)"/><path class="cls-3" d="M476.44,324.16a2.07,2.07,0,0,1-2.11,2.25,2,2,0,0,1-2-2.18A2.08,2.08,0,0,1,474.4,322,2,2,0,0,1,476.44,324.16Zm-3.37,0c0,.93.54,1.63,1.29,1.63s1.29-.69,1.29-1.65c0-.72-.36-1.63-1.27-1.63S473.07,323.39,473.07,324.2Z" transform="translate(-376.22 -290.63)"/><path class="cls-3" d="M443.74,334.25c0-.83-.09-1.82-.09-2.56h0c-.2.69-.45,1.43-.75,2.25l-1,2.87h-.58l-1-2.82c-.28-.83-.51-1.6-.68-2.3h0c0,.74-.06,1.73-.11,2.62l-.16,2.53h-.73l.41-5.91h1l1,2.86c.24.73.44,1.38.59,2h0c.15-.6.36-1.25.62-2l1.05-2.86h1l.37,5.91h-.75Z" transform="translate(-376.22 -290.63)"/><path class="cls-3" d="M449.68,334.68a2.08,2.08,0,0,1-2.11,2.26,2,2,0,0,1-2-2.19,2.07,2.07,0,0,1,2.11-2.25A2,2,0,0,1,449.68,334.68Zm-3.37.05c0,.93.54,1.63,1.29,1.63s1.29-.69,1.29-1.65c0-.72-.36-1.63-1.27-1.63S446.31,333.92,446.31,334.73Z" transform="translate(-376.22 -290.63)"/><path class="cls-3" d="M454.32,330.61v5.14c0,.37,0,.8,0,1.09h-.69l0-.74h0a1.58,1.58,0,0,1-1.45.84,1.94,1.94,0,0,1-1.82-2.16,2,2,0,0,1,1.91-2.28,1.42,1.42,0,0,1,1.28.65h0v-2.54Zm-.77,3.71a1.22,1.22,0,0,0,0-.32,1.13,1.13,0,0,0-1.11-.9c-.8,0-1.27.71-1.27,1.65s.42,1.57,1.25,1.57a1.16,1.16,0,0,0,1.13-.93,1.15,1.15,0,0,0,0-.33Z" transform="translate(-376.22 -290.63)"/><path class="cls-3" d="M456,334.86a1.36,1.36,0,0,0,1.45,1.47,2.68,2.68,0,0,0,1.18-.22l.13.56a3.5,3.5,0,0,1-1.41.26,2,2,0,0,1-2.09-2.14,2.06,2.06,0,0,1,2-2.29,1.8,1.8,0,0,1,1.76,2,2.55,2.55,0,0,1,0,.36Zm2.26-.55a1.1,1.1,0,0,0-1.07-1.26,1.28,1.28,0,0,0-1.18,1.26Z" transform="translate(-376.22 -290.63)"/><path class="cls-3" d="M460,333.92c0-.5,0-.93,0-1.32h.67l0,.83h0a1.26,1.26,0,0,1,1.17-.93.73.73,0,0,1,.22,0v.72l-.26,0a1.08,1.08,0,0,0-1,1,1.94,1.94,0,0,0,0,.36v2.26H460Z" transform="translate(-376.22 -290.63)"/><path class="cls-3" d="M465.17,336.84l-.06-.53h0a1.59,1.59,0,0,1-1.3.63,1.21,1.21,0,0,1-1.3-1.22c0-1,.92-1.59,2.56-1.58v-.09a.88.88,0,0,0-1-1,2.11,2.11,0,0,0-1.1.31l-.18-.5a2.62,2.62,0,0,1,1.4-.38c1.29,0,1.61.88,1.61,1.74v1.58a6.28,6.28,0,0,0,.07,1Zm-.12-2.17c-.84,0-1.79.14-1.79,1a.68.68,0,0,0,.72.74,1.05,1.05,0,0,0,1-.71.73.73,0,0,0,0-.25Z" transform="translate(-376.22 -290.63)"/><path class="cls-3" d="M470.71,330.61v5.14c0,.37,0,.8,0,1.09h-.7l0-.74h0a1.56,1.56,0,0,1-1.45.84,1.94,1.94,0,0,1-1.81-2.16,2,2,0,0,1,1.9-2.28,1.42,1.42,0,0,1,1.28.65h0v-2.54Zm-.77,3.71a1.82,1.82,0,0,0,0-.32,1.15,1.15,0,0,0-1.12-.9c-.8,0-1.27.71-1.27,1.65s.42,1.57,1.25,1.57a1.18,1.18,0,0,0,1.14-.93,1.69,1.69,0,0,0,0-.33Z" transform="translate(-376.22 -290.63)"/><path class="cls-3" d="M475.83,334.68a2.08,2.08,0,0,1-2.11,2.26,2,2,0,0,1-2-2.19,2.08,2.08,0,0,1,2.11-2.25A2,2,0,0,1,475.83,334.68Zm-3.36.05c0,.93.53,1.63,1.29,1.63s1.28-.69,1.28-1.65c0-.72-.35-1.63-1.27-1.63S472.47,333.92,472.47,334.73Z" transform="translate(-376.22 -290.63)"/><path class="cls-3" d="M476.81,333.92c0-.5,0-.93,0-1.32h.68l0,.83h0a1.27,1.27,0,0,1,1.18-.93.71.71,0,0,1,.21,0v.72l-.26,0a1.08,1.08,0,0,0-1,1,1.88,1.88,0,0,0,0,.36v2.26h-.76Z" transform="translate(-376.22 -290.63)"/><text class="cls-4" transform="translate(70 13.75)">T<tspan class="cls-5" x="4.12" y="0">Q</tspan><tspan class="cls-6" x="10.29" y="0">-201</tspan></text><path class="cls-3" d="M397.34,405a3.75,3.75,0,0,1-1.56.29,2.77,2.77,0,0,1-2.92-3,2.93,2.93,0,0,1,3.08-3.1,3.13,3.13,0,0,1,1.41.26l-.19.62a2.78,2.78,0,0,0-1.19-.24,2.2,2.2,0,0,0-2.31,2.44,2.15,2.15,0,0,0,2.28,2.37,3,3,0,0,0,1.24-.24Z" transform="translate(-376.22 -290.63)"/><path class="cls-3" d="M402,403a2.07,2.07,0,0,1-2.11,2.25,2,2,0,0,1-2-2.18,2.08,2.08,0,0,1,2.11-2.26A2,2,0,0,1,402,403Zm-3.36,0c0,.93.53,1.63,1.29,1.63s1.28-.69,1.28-1.64c0-.72-.35-1.64-1.27-1.64S398.65,402.28,398.65,403.08Z" transform="translate(-376.22 -290.63)"/><path class="cls-3" d="M403,402.1c0-.44,0-.8,0-1.15h.69l0,.7h0a1.56,1.56,0,0,1,1.4-.8c.59,0,1.5.36,1.5,1.81v2.54h-.77v-2.45c0-.68-.26-1.25-1-1.25a1.09,1.09,0,0,0-1,.78,1.3,1.3,0,0,0-.05.36v2.56H403Z" transform="translate(-376.22 -290.63)"/><path class="cls-3" d="M408.75,399.73V401h1.1v.59h-1.1v2.29c0,.53.15.82.58.82a1.64,1.64,0,0,0,.45,0l0,.58a1.92,1.92,0,0,1-.68.11,1.1,1.1,0,0,1-.84-.33,1.57,1.57,0,0,1-.29-1.11v-2.31h-.66V401H408v-1Z" transform="translate(-376.22 -290.63)"/><path class="cls-3" d="M410.72,402.28c0-.5,0-.93,0-1.33h.67l0,.83h0a1.28,1.28,0,0,1,1.18-.93.73.73,0,0,1,.22,0v.73a1,1,0,0,0-.26,0,1.09,1.09,0,0,0-1,1,2,2,0,0,0,0,.36v2.27h-.77Z" transform="translate(-376.22 -290.63)"/><path class="cls-3" d="M417.35,403a2.07,2.07,0,0,1-2.12,2.25,2,2,0,0,1-2-2.18,2.08,2.08,0,0,1,2.1-2.26A2,2,0,0,1,417.35,403Zm-3.37,0c0,.93.53,1.63,1.29,1.63s1.29-.69,1.29-1.64c0-.72-.36-1.64-1.28-1.64S414,402.28,414,403.08Z" transform="translate(-376.22 -290.63)"/><path class="cls-3" d="M418.32,399h.77v6.23h-.77Z" transform="translate(-376.22 -290.63)"/><path class="cls-3" d="M422.74,405.2l-.06-.54h0a1.55,1.55,0,0,1-1.3.63,1.21,1.21,0,0,1-1.3-1.22c0-1,.92-1.58,2.56-1.57v-.09a.88.88,0,0,0-1-1,2.15,2.15,0,0,0-1.1.32l-.18-.51a2.62,2.62,0,0,1,1.4-.38c1.3,0,1.61.89,1.61,1.74v1.59a6.28,6.28,0,0,0,.07,1Zm-.11-2.17c-.85,0-1.8.13-1.8,1a.68.68,0,0,0,.73.73,1,1,0,0,0,1-.71.69.69,0,0,0,.05-.24Z" transform="translate(-376.22 -290.63)"/><path class="cls-3" d="M428.28,399v5.13c0,.38,0,.81,0,1.1h-.69l0-.74h0a1.56,1.56,0,0,1-1.44.83,1.93,1.93,0,0,1-1.82-2.15,2,2,0,0,1,1.9-2.29,1.42,1.42,0,0,1,1.28.65h0V399Zm-.77,3.71a1.84,1.84,0,0,0,0-.33,1.14,1.14,0,0,0-1.12-.89c-.8,0-1.27.7-1.27,1.64s.42,1.57,1.25,1.57a1.17,1.17,0,0,0,1.14-.92,1.76,1.76,0,0,0,0-.33Z" transform="translate(-376.22 -290.63)"/><path class="cls-3" d="M433.41,403a2.07,2.07,0,0,1-2.12,2.25,2,2,0,0,1-2-2.18,2.08,2.08,0,0,1,2.11-2.26A2,2,0,0,1,433.41,403Zm-3.37,0c0,.93.53,1.63,1.29,1.63s1.29-.69,1.29-1.64c0-.72-.36-1.64-1.28-1.64S430,402.28,430,403.08Z" transform="translate(-376.22 -290.63)"/><path class="cls-3" d="M434.38,402.28c0-.5,0-.93,0-1.33H435l0,.83h0a1.27,1.27,0,0,1,1.18-.93.71.71,0,0,1,.21,0v.73a.93.93,0,0,0-.26,0,1.08,1.08,0,0,0-1,1,2,2,0,0,0,0,.36v2.27h-.76Z" transform="translate(-376.22 -290.63)"/><path class="cls-3" d="M396.85,409.49v5.14c0,.37,0,.8,0,1.09h-.69l0-.73h0a1.59,1.59,0,0,1-1.45.83,1.94,1.94,0,0,1-1.82-2.16,2,2,0,0,1,1.91-2.28,1.42,1.42,0,0,1,1.28.65h0v-2.54Zm-.77,3.71a1.22,1.22,0,0,0,0-.32,1.12,1.12,0,0,0-1.11-.89c-.8,0-1.28.7-1.28,1.64s.43,1.57,1.26,1.57a1.16,1.16,0,0,0,1.13-.92,1.27,1.27,0,0,0,0-.34Z" transform="translate(-376.22 -290.63)"/><path class="cls-3" d="M398.56,413.74a1.36,1.36,0,0,0,1.45,1.47,2.68,2.68,0,0,0,1.18-.22l.13.56a3.5,3.5,0,0,1-1.41.26,2,2,0,0,1-2.09-2.14,2.06,2.06,0,0,1,2-2.29,1.8,1.8,0,0,1,1.76,2,2.55,2.55,0,0,1,0,.36Zm2.26-.55a1.1,1.1,0,0,0-1.07-1.26,1.28,1.28,0,0,0-1.18,1.26Z" transform="translate(-376.22 -290.63)"/><path class="cls-3" d="M404.38,412.63c0-.44,0-.8,0-1.15H405l0,.7h0a1.55,1.55,0,0,1,1.41-.8c.58,0,1.5.35,1.5,1.81v2.53h-.78v-2.45c0-.68-.25-1.25-1-1.25a1.09,1.09,0,0,0-1,.79,1,1,0,0,0-.06.36v2.55h-.77Z" transform="translate(-376.22 -290.63)"/><path class="cls-3" d="M410.82,409.64l-1.07,1.26h-.55l.77-1.26Zm-1.57,6.08v-4.24H410v4.24Z" transform="translate(-376.22 -290.63)"/><path class="cls-3" d="M411.6,411.48l.83,2.38c.14.39.26.74.35,1.09h0c.1-.35.22-.7.36-1.09l.83-2.38h.8l-1.66,4.24h-.74l-1.61-4.24Z" transform="translate(-376.22 -290.63)"/><path class="cls-3" d="M415.86,413.74a1.36,1.36,0,0,0,1.46,1.47,2.63,2.63,0,0,0,1.17-.22l.14.56a3.56,3.56,0,0,1-1.42.26,2,2,0,0,1-2.08-2.14,2.06,2.06,0,0,1,2-2.29,1.8,1.8,0,0,1,1.75,2c0,.16,0,.28,0,.36Zm2.27-.55a1.11,1.11,0,0,0-1.07-1.26,1.28,1.28,0,0,0-1.19,1.26Z" transform="translate(-376.22 -290.63)"/><path class="cls-3" d="M419.83,409.49h.77v6.23h-.77Z" transform="translate(-376.22 -290.63)"/><path class="cls-3" d="M378.19,478.76l-1.93-5.92h.82l.93,2.92c.25.8.47,1.52.63,2.21h0c.16-.69.41-1.43.67-2.2l1-2.93h.82L379,478.76Z" transform="translate(-376.22 -290.63)"/><path class="cls-3" d="M381.9,476.78a1.36,1.36,0,0,0,1.46,1.47,2.82,2.82,0,0,0,1.17-.22l.13.55a3.27,3.27,0,0,1-1.41.27,2,2,0,0,1-2.09-2.14,2.06,2.06,0,0,1,2-2.29,1.8,1.8,0,0,1,1.76,2,2.7,2.7,0,0,1,0,.36Zm2.26-.56a1.09,1.09,0,0,0-1.07-1.25,1.27,1.27,0,0,0-1.18,1.25Z" transform="translate(-376.22 -290.63)"/><path class="cls-3" d="M385.86,475.66c0-.44,0-.8,0-1.15h.67l0,.69h0a1.44,1.44,0,0,1,1.33-.78,1.25,1.25,0,0,1,1.2.85h0a1.77,1.77,0,0,1,.47-.56,1.48,1.48,0,0,1,.94-.29c.56,0,1.4.36,1.4,1.84v2.5h-.76v-2.41c0-.81-.3-1.3-.92-1.3a1,1,0,0,0-.91.7,1.08,1.08,0,0,0-.06.38v2.63h-.76v-2.55c0-.67-.3-1.16-.88-1.16a1,1,0,0,0-1,.77,1.12,1.12,0,0,0-.06.38v2.56h-.76Z" transform="translate(-376.22 -290.63)"/><path class="cls-3" d="M398.71,472.53v5.13c0,.38,0,.81,0,1.1h-.69l0-.74h0a1.59,1.59,0,0,1-1.45.83,1.93,1.93,0,0,1-1.82-2.15,2,2,0,0,1,1.91-2.28,1.43,1.43,0,0,1,1.28.64h0v-2.53Zm-.78,3.71a1.17,1.17,0,0,0-1.14-1.22c-.8,0-1.28.7-1.28,1.64s.42,1.57,1.26,1.57a1.19,1.19,0,0,0,1.16-1.25Z" transform="translate(-376.22 -290.63)"/><path class="cls-3" d="M403.83,476.6a2.07,2.07,0,0,1-2.12,2.25,2,2,0,0,1-2-2.18,2.07,2.07,0,0,1,2.1-2.25A2,2,0,0,1,403.83,476.6Zm-3.37,0c0,.93.53,1.64,1.29,1.64s1.29-.7,1.29-1.65c0-.72-.36-1.64-1.27-1.64S400.46,475.84,400.46,476.64Z" transform="translate(-376.22 -290.63)"/><path class="cls-3" d="M378,484h-1.79v-.65h4.37V484h-1.8v5.26H378Z" transform="translate(-376.22 -290.63)"/><path class="cls-3" d="M385.89,490.15c-.8-.21-1.58-.45-2.26-.68a1.06,1.06,0,0,0-.36-.09,2.72,2.72,0,0,1-2.61-3,2.81,2.81,0,0,1,2.76-3.12,2.7,2.7,0,0,1,2.65,3,2.75,2.75,0,0,1-1.69,2.84v0c.59.15,1.23.29,1.73.38Zm-.63-3.85c0-1.18-.61-2.4-1.87-2.4s-1.92,1.19-1.91,2.47.68,2.39,1.88,2.39S385.26,487.65,385.26,486.3Z" transform="translate(-376.22 -290.63)"/><path class="cls-3" d="M388.94,486.63v.57h-2.16v-.57Z" transform="translate(-376.22 -290.63)"/><path class="cls-3" d="M391.28,484.3h0l-1,.53-.15-.58,1.24-.67H392v5.7h-.74Z" transform="translate(-376.22 -290.63)"/><path class="cls-3" d="M397.89,486.37c0,1.94-.72,3-2,3s-1.87-1-1.89-2.93.83-3,2-3S397.89,484.55,397.89,486.37Zm-3.1.09c0,1.48.46,2.32,1.16,2.32s1.17-.92,1.17-2.37-.36-2.33-1.16-2.33S394.79,484.91,394.79,486.46Z" transform="translate(-376.22 -290.63)"/><path class="cls-3" d="M398.6,489.28v-.47l.6-.59c1.46-1.39,2.12-2.12,2.13-3a1,1,0,0,0-1.13-1.12,1.93,1.93,0,0,0-1.21.49l-.25-.55a2.52,2.52,0,0,1,1.61-.58,1.61,1.61,0,0,1,1.75,1.66c0,1.06-.76,1.91-2,3.06l-.45.43h2.56v.64Z" transform="translate(-376.22 -290.63)"/><text class="cls-4" transform="translate(70.18 219.35)">T<tspan class="cls-5" x="4.12" y="0">Q</tspan><tspan class="cls-6" x="10.29" y="0">-202</tspan></text><text class="cls-7" transform="translate(44.3 229.93)"><tspan class="cls-8">T</tspan><tspan x="3.8" y="0">anque de es</tspan><tspan class="cls-9" x="47.99" y="0">t</tspan><tspan x="50.84" y="0">ocagem</tspan></text><text class="cls-10" transform="translate(177.48 204.67)"><tspan class="cls-11">B</tspan><tspan x="4" y="0">-201A</tspan></text><text class="cls-10" transform="translate(216.95 204.67)"><tspan class="cls-11">B</tspan><tspan x="4" y="0">-201B</tspan></text><text class="cls-10" transform="translate(250.86 218.18)"><tspan class="cls-11">B</tspan><tspan x="4" y="0">-202A</tspan></text><text class="cls-10" transform="translate(312.99 218.18)"><tspan class="cls-11">B</tspan><tspan x="4" y="0">-202A</tspan></text><text class="cls-10" transform="translate(312.96 168.83)"><tspan class="cls-12"></tspan><tspan x="4.39" y="0">gua </tspan><tspan class="cls-11" x="17.57" y="0">G</tspan><tspan x="22.33" y="0">elada</tspan></text><path class="cls-3" d="M623.6,451.1h-1.5v-.54h3.65v.54h-1.51v4.38h-.64Z" transform="translate(-376.22 -290.63)"/><path class="cls-3" d="M629.54,455.32a3.06,3.06,0,0,1-1.3.24,2.3,2.3,0,0,1-2.43-2.49,2.45,2.45,0,0,1,2.57-2.59,2.59,2.59,0,0,1,1.17.22l-.15.52a2.29,2.29,0,0,0-1-.21,1.83,1.83,0,0,0-1.92,2,1.79,1.79,0,0,0,1.89,2,2.6,2.6,0,0,0,1-.2Z" transform="translate(-376.22 -290.63)"/><path class="cls-3" d="M631.81,453.27v.48H630v-.48Z" transform="translate(-376.22 -290.63)"/><path class="cls-3" d="M622.44,464.26v-.4l.5-.49c1.22-1.15,1.76-1.77,1.77-2.48a.84.84,0,0,0-.94-.93,1.64,1.64,0,0,0-1,.4l-.2-.45a2,2,0,0,1,1.34-.49,1.34,1.34,0,0,1,1.45,1.39c0,.87-.63,1.58-1.63,2.55l-.38.35h2.13v.54Z" transform="translate(-376.22 -290.63)"/><path class="cls-3" d="M629.35,461.83c0,1.61-.6,2.51-1.66,2.51s-1.55-.87-1.57-2.44.69-2.48,1.65-2.48S629.35,460.32,629.35,461.83Zm-2.58.07c0,1.24.38,1.94,1,1.94s1-.77,1-2-.3-1.94-1-1.94S626.77,460.61,626.77,461.9Z" transform="translate(-376.22 -290.63)"/><path class="cls-3" d="M631.33,460.1h0l-.83.45-.12-.49,1-.56H632v4.76h-.62Z" transform="translate(-376.22 -290.63)"/><path class="cls-3" d="M592.9,379.47h-1.5v-.54h3.65v.54h-1.51v4.38h-.64Z" transform="translate(-376.22 -290.63)"/><path class="cls-3" d="M598.84,383.69a3.06,3.06,0,0,1-1.3.24,2.3,2.3,0,0,1-2.43-2.5,2.44,2.44,0,0,1,2.57-2.58,2.59,2.59,0,0,1,1.17.22l-.15.51a2.45,2.45,0,0,0-1-.2,1.83,1.83,0,0,0-1.92,2,1.79,1.79,0,0,0,1.89,2,2.6,2.6,0,0,0,1-.2Z" transform="translate(-376.22 -290.63)"/><path class="cls-3" d="M601.11,381.64v.47H599.3v-.47Z" transform="translate(-376.22 -290.63)"/><path class="cls-3" d="M591.74,392.63v-.4l.5-.49c1.22-1.15,1.76-1.77,1.77-2.48a.84.84,0,0,0-.94-.93,1.64,1.64,0,0,0-1,.4l-.2-.45a2,2,0,0,1,1.34-.49,1.35,1.35,0,0,1,1.46,1.38c0,.88-.64,1.59-1.64,2.56l-.38.35h2.13v.54Z" transform="translate(-376.22 -290.63)"/><path class="cls-3" d="M598.65,390.2c0,1.61-.6,2.51-1.65,2.51s-1.56-.87-1.58-2.45.69-2.47,1.66-2.47S598.65,388.69,598.65,390.2Zm-2.58.07c0,1.24.38,1.94,1,1.94s1-.77,1-2-.3-1.94-1-1.94S596.07,389,596.07,390.27Z" transform="translate(-376.22 -290.63)"/><path class="cls-3" d="M599.24,392.63v-.4l.5-.49c1.22-1.15,1.76-1.77,1.77-2.48a.84.84,0,0,0-.94-.93,1.64,1.64,0,0,0-1,.4l-.2-.45a2,2,0,0,1,1.34-.49,1.34,1.34,0,0,1,1.45,1.38c0,.88-.63,1.59-1.63,2.56l-.38.35h2.13v.54Z" transform="translate(-376.22 -290.63)"/><text class="cls-10" transform="translate(29.83 151.63)">H<tspan class="cls-13" x="4.77" y="0">V</tspan><tspan class="cls-14" x="8.74" y="0">-204</tspan></text><text class="cls-10" transform="translate(116.81 151.63)">H<tspan class="cls-13" x="4.77" y="0">V</tspan><tspan class="cls-14" x="8.74" y="0">-205</tspan></text><text class="cls-10" transform="translate(329.66 89.94)">V<tspan class="cls-15" x="4.08" y="0">S</tspan><tspan class="cls-14" x="7.72" y="0">-201</tspan></text><path class="cls-3" d="M665.53,428.63h2.65v.53h-2v1.64H668v.53h-1.87v2.23h-.63Z" transform="translate(-376.22 -290.63)"/><path class="cls-3" d="M670,429.17h-1.5v-.54h3.65v.54h-1.51v4.39H670Z" transform="translate(-376.22 -290.63)"/><path class="cls-3" d="M673.81,431.34v.48H672v-.48Z" transform="translate(-376.22 -290.63)"/><path class="cls-3" d="M665.3,442.33v-.4l.5-.49c1.22-1.15,1.77-1.77,1.77-2.48a.85.85,0,0,0-.94-.93,1.64,1.64,0,0,0-1,.4l-.2-.45a2.06,2.06,0,0,1,1.34-.48,1.34,1.34,0,0,1,1.46,1.38c0,.88-.64,1.58-1.64,2.55l-.38.35h2.13v.54Z" transform="translate(-376.22 -290.63)"/><path class="cls-3" d="M672.21,439.9c0,1.62-.6,2.51-1.65,2.51S669,441.54,669,440s.69-2.47,1.66-2.47S672.21,438.39,672.21,439.9Zm-2.58.07c0,1.24.38,1.94,1,1.94s1-.77,1-2-.3-1.94-1-1.94S669.63,438.68,669.63,440Z" transform="translate(-376.22 -290.63)"/><path class="cls-3" d="M674.19,438.18h0l-.83.44-.12-.49,1-.55h.55v4.75h-.63Z" transform="translate(-376.22 -290.63)"/><path class="cls-3" d="M658.22,353.35h2.65v.53h-2v1.64h1.87V356h-1.87v2.23h-.63Z" transform="translate(-376.22 -290.63)"/><path class="cls-3" d="M662.71,353.89h-1.5v-.54h3.65v.54h-1.5v4.38h-.65Z" transform="translate(-376.22 -290.63)"/><path class="cls-3" d="M666.51,356.06v.47H664.7v-.47Z" transform="translate(-376.22 -290.63)"/><path class="cls-3" d="M658,367v-.39l.51-.49c1.21-1.16,1.76-1.77,1.76-2.49a.84.84,0,0,0-.94-.92,1.59,1.59,0,0,0-1,.4l-.2-.46a2.11,2.11,0,0,1,1.34-.48,1.34,1.34,0,0,1,1.46,1.38c0,.88-.64,1.59-1.64,2.55l-.38.36H661V367Z" transform="translate(-376.22 -290.63)"/><path class="cls-3" d="M664.9,364.62c0,1.61-.6,2.5-1.65,2.5s-1.56-.87-1.58-2.44.69-2.47,1.66-2.47S664.9,363.1,664.9,364.62Zm-2.58.07c0,1.23.38,1.94,1,1.94s1-.77,1-2-.29-1.94-1-1.94S662.32,363.4,662.32,364.69Z" transform="translate(-376.22 -290.63)"/><path class="cls-3" d="M665.49,367v-.39l.5-.49c1.22-1.16,1.77-1.77,1.77-2.49a.84.84,0,0,0-.94-.92,1.59,1.59,0,0,0-1,.4l-.2-.46a2.11,2.11,0,0,1,1.34-.48,1.34,1.34,0,0,1,1.46,1.38c0,.88-.64,1.59-1.64,2.55l-.38.36h2.13V367Z" transform="translate(-376.22 -290.63)"/><text class="cls-16" transform="translate(327 117.53)"> </text><text class="cls-10" transform="translate(130.17 44.45)">H<tspan class="cls-13" x="4.77" y="0">V</tspan><tspan class="cls-14" x="8.74" y="0">-207B</tspan></text><text class="cls-10" transform="translate(125.79 124.12)">H<tspan class="cls-13" x="4.77" y="0">V</tspan><tspan class="cls-14" x="8.74" y="0">-207A</tspan></text><text class="cls-10" transform="translate(182.07 154.82)">H<tspan class="cls-13" x="4.77" y="0">V</tspan><tspan class="cls-14" x="8.74" y="0">-211A</tspan></text><text class="cls-10" transform="translate(147.72 224.99)">H<tspan class="cls-13" x="4.77" y="0">V</tspan><tspan class="cls-14" x="8.74" y="0">-211B</tspan></text><text class="cls-10" transform="translate(226.66 141.67)">H<tspan class="cls-13" x="4.77" y="0">V</tspan><tspan class="cls-14" x="8.74" y="0">-226</tspan></text><text class="cls-10" transform="translate(282.21 113.89)">H<tspan class="cls-13" x="4.77" y="0">V</tspan><tspan class="cls-14" x="8.74" y="0">-228</tspan></text><path class="cls-3" d="M459,547.58l-1.61-4.92h.68l.77,2.42c.21.67.4,1.27.53,1.84h0c.14-.57.35-1.19.57-1.83l.83-2.43h.68l-1.76,4.92Z" transform="translate(-376.22 -290.63)"/><path class="cls-3" d="M463.72,547.58l-.05-.45h0a1.33,1.33,0,0,1-1.09.53,1,1,0,0,1-1.08-1c0-.86.76-1.33,2.13-1.32v-.07a.73.73,0,0,0-.8-.82,1.8,1.8,0,0,0-.93.26l-.14-.42a2.17,2.17,0,0,1,1.16-.32c1.08,0,1.35.74,1.35,1.45v1.32a5.48,5.48,0,0,0,.05.85Zm-.1-1.8c-.7,0-1.49.11-1.49.79a.57.57,0,0,0,.6.62.89.89,0,0,0,.86-.6.64.64,0,0,0,0-.2Z" transform="translate(-376.22 -290.63)"/><path class="cls-3" d="M466,543.05a.37.37,0,0,1-.41.39.38.38,0,0,1-.39-.39.39.39,0,0,1,.4-.4A.38.38,0,0,1,466,543.05Zm-.72,4.53V544h.65v3.54Z" transform="translate(-376.22 -290.63)"/><path class="cls-3" d="M468.54,545.2c0-.45,0-.82,0-1.16h.58l0,.61h0a1.4,1.4,0,0,1,1.26-.69,1.61,1.61,0,0,1,1.5,1.8,1.67,1.67,0,0,1-1.61,1.9,1.25,1.25,0,0,1-1.09-.55h0V549h-.64Zm.64.94a1,1,0,0,0,0,.26,1,1,0,0,0,1,.76c.68,0,1.08-.56,1.08-1.37s-.38-1.32-1.06-1.32a1,1,0,0,0-1,.8,1.17,1.17,0,0,0,0,.26Z" transform="translate(-376.22 -290.63)"/><path class="cls-3" d="M474.66,547.58l-.05-.45h0a1.32,1.32,0,0,1-1.08.53,1,1,0,0,1-1.09-1c0-.86.76-1.33,2.13-1.32v-.07a.73.73,0,0,0-.8-.82,1.74,1.74,0,0,0-.92.26l-.15-.42a2.2,2.2,0,0,1,1.16-.32c1.08,0,1.35.74,1.35,1.45v1.32a4.41,4.41,0,0,0,.06.85Zm-.09-1.8c-.71,0-1.5.11-1.5.79a.57.57,0,0,0,.6.62.89.89,0,0,0,.86-.6.65.65,0,0,0,0-.2Z" transform="translate(-376.22 -290.63)"/><path class="cls-3" d="M476.22,545.15c0-.42,0-.78,0-1.11h.57l0,.7h0a1.06,1.06,0,0,1,1-.78.52.52,0,0,1,.18,0v.6l-.22,0a.9.9,0,0,0-.86.83,1.32,1.32,0,0,0,0,.3v1.88h-.64Z" transform="translate(-376.22 -290.63)"/><path class="cls-3" d="M480.54,547.58l-.05-.45h0a1.29,1.29,0,0,1-1.08.53,1,1,0,0,1-1.08-1c0-.86.76-1.33,2.13-1.32v-.07a.73.73,0,0,0-.81-.82,1.77,1.77,0,0,0-.92.26l-.14-.42a2.17,2.17,0,0,1,1.16-.32c1.08,0,1.34.74,1.34,1.45v1.32a5.39,5.39,0,0,0,.06.85Zm-.1-1.8c-.7,0-1.5.11-1.5.79a.57.57,0,0,0,.61.62.9.9,0,0,0,.86-.6.64.64,0,0,0,0-.2Z" transform="translate(-376.22 -290.63)"/><path class="cls-3" d="M458.88,552h-1.5v-.54H461V552h-1.51v4.38h-.64Z" transform="translate(-376.22 -290.63)"/><path class="cls-3" d="M465.44,557.08c-.66-.18-1.31-.38-1.88-.57a.9.9,0,0,0-.3-.08,2.26,2.26,0,0,1-2.17-2.49,2.33,2.33,0,0,1,2.29-2.59,2.24,2.24,0,0,1,2.21,2.49,2.31,2.31,0,0,1-1.4,2.36v0c.49.12,1,.24,1.44.31Zm-.52-3.21c0-1-.51-2-1.56-2s-1.6,1-1.59,2.06.57,2,1.56,2S464.92,555,464.92,553.87Z" transform="translate(-376.22 -290.63)"/><path class="cls-3" d="M468,554.14v.47h-1.81v-.47Z" transform="translate(-376.22 -290.63)"/><path class="cls-3" d="M468.54,556.35V556l.5-.49c1.21-1.16,1.76-1.77,1.77-2.49a.85.85,0,0,0-.94-.93,1.57,1.57,0,0,0-1,.41l-.21-.46a2.14,2.14,0,0,1,1.35-.48,1.33,1.33,0,0,1,1.45,1.38c0,.88-.63,1.59-1.64,2.55l-.38.35v0h2.14v.53Z" transform="translate(-376.22 -290.63)"/><path class="cls-3" d="M475.44,553.93c0,1.61-.6,2.5-1.65,2.5s-1.56-.87-1.57-2.44.69-2.47,1.65-2.47S475.44,552.41,475.44,553.93Zm-2.58.07c0,1.23.38,1.94,1,1.94s1-.77,1-2-.3-1.94-1-1.94S472.86,552.71,472.86,554Z" transform="translate(-376.22 -290.63)"/><path class="cls-3" d="M476.19,555.61a2.08,2.08,0,0,0,1.05.3c.83,0,1.08-.52,1.07-.92,0-.66-.6-1-1.22-1h-.36v-.48h.36c.46,0,1.06-.24,1.06-.8,0-.38-.24-.72-.84-.72a1.81,1.81,0,0,0-.95.31l-.17-.46a2.23,2.23,0,0,1,1.25-.37c.93,0,1.36.56,1.36,1.13a1.19,1.19,0,0,1-.88,1.12v0A1.23,1.23,0,0,1,479,555c0,.76-.59,1.42-1.73,1.42a2.47,2.47,0,0,1-1.24-.32Z" transform="translate(-376.22 -290.63)"/><line class="cls-1" x1="112" y1="259.01" x2="109.81" y2="256.82"/></svg>